/* XPM */
static char * abuse_sdl_16x16_xpm[] = {
"16 16 193 2",
"  	c None",
". 	c #020202",
"+ 	c #424642",
"@ 	c #363A36",
"# 	c #2A2E2A",
"$ 	c #222222",
"% 	c #6E726E",
"& 	c #666666",
"* 	c #161A16",
"= 	c #02120E",
"- 	c #5A5A56",
"; 	c #020E02",
"> 	c #464E4A",
", 	c #86726E",
"' 	c #5A524A",
") 	c #4E524E",
"! 	c #16021E",
"~ 	c #3E423E",
"{ 	c #0E0202",
"] 	c #A29282",
"^ 	c #72625A",
"/ 	c #7A6E66",
"( 	c #121202",
"_ 	c #323636",
": 	c #0E0E02",
"< 	c #262A26",
"[ 	c #6A5E56",
"} 	c #52524E",
"| 	c #464A46",
"1 	c #22121A",
"2 	c #5E5E5A",
"3 	c #8E7A6E",
"4 	c #6A6E6E",
"5 	c #3A3E3A",
"6 	c #766666",
"7 	c #4E4E46",
"8 	c #0E0E0E",
"9 	c #524642",
"0 	c #020212",
"a 	c #0E1216",
"b 	c #525652",
"c 	c #0E020E",
"d 	c #4A423E",
"e 	c #82766E",
"f 	c #1A1A1A",
"g 	c #72665E",
"h 	c #0E0E1A",
"i 	c #2E322E",
"j 	c #463A3A",
"k 	c #4E4642",
"l 	c #927E72",
"m 	c #02020E",
"n 	c #262622",
"o 	c #121216",
"p 	c #665E5A",
"q 	c #1A1212",
"r 	c #4A4A46",
"s 	c #1E1E1A",
"t 	c #0E0E16",
"u 	c #564E4A",
"v 	c #161616",
"w 	c #42423A",
"x 	c #5E625E",
"y 	c #4A4642",
"z 	c #3E3A36",
"A 	c #625A56",
"B 	c #6A6A6A",
"C 	c #0E120E",
"D 	c #020E0E",
"E 	c #96827A",
"F 	c #2E2A2A",
"G 	c #423E42",
"H 	c #7A726A",
"I 	c #4E4E4A",
"J 	c #261E1A",
"K 	c #1A1622",
"L 	c #424246",
"M 	c #322E2A",
"N 	c #524E4A",
"O 	c #3A3A3E",
"P 	c #AA9A8A",
"Q 	c #6E6662",
"R 	c #5A5652",
"S 	c #4E4E4E",
"T 	c #0E021A",
"U 	c #3A3632",
"V 	c #120E0E",
"W 	c #565652",
"X 	c #161212",
"Y 	c #262A2A",
"Z 	c #160E1A",
"` 	c #9E8676",
" .	c #46464A",
"..	c #2E2E2E",
"+.	c #0E0E12",
"@.	c #26262E",
"#.	c #36363E",
"$.	c #767676",
"%.	c #22222A",
"&.	c #4E5252",
"*.	c #464642",
"=.	c #5E5A56",
"-.	c #565252",
";.	c #3E3E3E",
">.	c #121612",
",.	c #26221E",
"'.	c #42423E",
").	c #12161E",
"!.	c #323232",
"~.	c #12121E",
"{.	c #1E1A1A",
"].	c #161E1E",
"^.	c #4A4E4E",
"/.	c #726A66",
"(.	c #66625E",
"_.	c #2E2E32",
":.	c #3E3A3E",
"<.	c #565A5A",
"[.	c #5E5E5E",
"}.	c #26262A",
"|.	c #1E1E22",
"1.	c #2A2A2E",
"2.	c #7A6E6A",
"3.	c #3A3A3A",
"4.	c #4A4E4A",
"5.	c #363632",
"6.	c #6E6E6A",
"7.	c #4E4A4A",
"8.	c #121212",
"9.	c #5E5652",
"0.	c #464242",
"a.	c #5A5A5A",
"b.	c #625E5E",
"c.	c #5A5252",
"d.	c #3E3E42",
"e.	c #1E1616",
"f.	c #766A62",
"g.	c #1A1612",
"h.	c #96867A",
"i.	c #2A2626",
"j.	c #2A2A2A",
"k.	c #6A6662",
"l.	c #464246",
"m.	c #464A4A",
"n.	c #62625E",
"o.	c #6A5E5E",
"p.	c #0E121E",
"q.	c #4A464A",
"r.	c #3A363A",
"s.	c #565656",
"t.	c #464646",
"u.	c #36363A",
"v.	c #7E6E62",
"w.	c #120E02",
"x.	c #2A2A26",
"y.	c #120E1A",
"z.	c #32322E",
"A.	c #0E0212",
"B.	c #4E423E",
"C.	c #16121E",
"D.	c #221E22",
"E.	c #3E4242",
"F.	c #222226",
"G.	c #525252",
"H.	c #4A4A4A",
"I.	c #1E1E1E",
"J.	c #16161A",
"K.	c #4E4E52",
"L.	c #424242",
"M.	c #323236",
"N.	c #1E1A1E",
"O.	c #5E5E62",
"P.	c #363636",
"Q.	c #6E6E6E",
"R.	c #5A5A5E",
"S.	c #262626",
"T.	c #524E4E",
"U.	c #525656",
"V.	c #12121A",
"W.	c #5E6262",
"X.	c #4A4646",
"Y.	c #120E12",
"Z.	c #424646",
"`.	c #72625E",
" +	c #3A3E3E",
".+	c #524646",
"++	c #020216",
"@+	c #4E4646",
"#+	c #665E5E",
"$+	c #322E2E",
"%+	c #5A5656",
"&+	c #262222",
"*+	c #5E5656",
". . . . . . 9 ] I . . . . . . . ",
". . 8.. . . j.h.s.3.. . . . . . ",
". . S S I.. e.2.% B . . . . . . ",
". . v H.s.s.L I I I r t.. . . . ",
". . . P.H.7 W '.s.7.W./ N.{ . . ",
". . . . c h L.[.a.q.$ d ^ T . . ",
". . . . . . . < t.l.L.{.f.8 . . ",
". . 8 I.. 8 i.W.a.[.P.N.^.8.. . ",
"8 !.3.P.. . b./.$.t.;.O O S 8 . ",
"P...$ v 8 '.[.R.H.8 3.O z r.3...",
"f j.!.3.L O C.G.:.m t F y.G ;.;.",
"q.H.H.H.L f 8 %+i.G J L.. F. .'.",
"H.H.4.4.4.H.4.2 %.%+m.m.H.8.H. .",
"_.H.) 4.I ) d (.#.) S S H. +!...",
". ; # ^.) 7.H.@ S <.G.I b d.. . ",
"+++.V.: 8 1.P.< _.&+V.V ! y.).t."};
