/* XPM */
static char * BillardGL_16x16_xpm[] = {
"16 16 256 2",
"  	c None",
". 	c #020202",
"+ 	c #828282",
"@ 	c #165D2A",
"# 	c #AE02AE",
"$ 	c #084319",
"% 	c #9E029E",
"& 	c #C6C6C6",
"* 	c #720372",
"= 	c #022F0F",
"- 	c #AEAEAE",
"; 	c #5A5A5A",
"> 	c #420242",
", 	c #915E91",
"' 	c #0D2616",
") 	c #9E9E9E",
"! 	c #626662",
"~ 	c #121012",
"{ 	c #AE4BAE",
"] 	c #6A436A",
"^ 	c #AA84AA",
"/ 	c #7A7A7A",
"( 	c #B63EB6",
"_ 	c #969696",
": 	c #3A3E3A",
"< 	c #424642",
"[ 	c #E6E3E6",
"} 	c #443844",
"| 	c #BE02BE",
"1 	c #320232",
"2 	c #620362",
"3 	c #763576",
"4 	c #22753A",
"5 	c #232223",
"6 	c #023A12",
"7 	c #9E909E",
"8 	c #B332B3",
"9 	c #8A8E8A",
"0 	c #DEDBDE",
"a 	c #BEBEBE",
"b 	c #191E19",
"c 	c #525652",
"d 	c #2A2A2A",
"e 	c #D1A2D1",
"f 	c #820282",
"g 	c #BF34BF",
"h 	c #323632",
"i 	c #A75FA7",
"j 	c #1B1A1B",
"k 	c #A629A6",
"l 	c #482448",
"m 	c #B126B1",
"n 	c #520252",
"o 	c #525252",
"p 	c #6A6E6A",
"q 	c #D5B4D5",
"r 	c #D6D6D6",
"s 	c #161616",
"t 	c #9C3E9C",
"u 	c #6C606C",
"v 	c #1A021A",
"w 	c #A6A6A6",
"x 	c #8B268B",
"y 	c #827382",
"z 	c #662466",
"A 	c #B6B2B6",
"B 	c #03220A",
"C 	c #7A767A",
"D 	c #762776",
"E 	c #968996",
"F 	c #C289C2",
"G 	c #E2C9E2",
"H 	c #323232",
"I 	c #2A022A",
"J 	c #828682",
"K 	c #B116B1",
"L 	c #B602B6",
"M 	c #626262",
"N 	c #5A4A5A",
"O 	c #A120A1",
"P 	c #A578A5",
"Q 	c #D6D2D6",
"R 	c #C602C6",
"S 	c #960296",
"T 	c #524E52",
"U 	c #968E96",
"V 	c #382238",
"W 	c #727672",
"X 	c #061E0C",
"Y 	c #222622",
"Z 	c #491C49",
"` 	c #BE24BE",
" .	c #6A666A",
"..	c #541954",
"+.	c #671B67",
"@.	c #761A76",
"#.	c #8A458A",
"$.	c #4A4E4A",
"%.	c #CEC6CE",
"&.	c #827E82",
"*.	c #B6B6B6",
"=.	c #A313A3",
"-.	c #103A18",
";.	c #423E42",
">.	c #841E84",
",.	c #DCC0DC",
"'.	c #726E72",
").	c #8A868A",
"!.	c #625E62",
"~.	c #BA78BA",
"{.	c #BF5CBF",
"].	c #BBA9BB",
"^.	c #A602A6",
"/.	c #451645",
"(.	c #196E31",
"_.	c #322E32",
":.	c #3A023A",
"<.	c #0A0E0A",
"[.	c #8F688F",
"}.	c #220222",
"|.	c #A69EA6",
"1.	c #2A262A",
"2.	c #F8F3F8",
"3.	c #5A2C5A",
"4.	c #4A024A",
"5.	c #CECACE",
"6.	c #4A464A",
"7.	c #BE15BE",
"8.	c #871987",
"9.	c #1A3A22",
"0.	c #AE0EAE",
"a.	c #D685D6",
"b.	c #625062",
"c.	c #661466",
"d.	c #A60EA6",
"e.	c #9E969E",
"f.	c #561256",
"g.	c #961A96",
"h.	c #BFB6BF",
"i.	c #AEA6AE",
"j.	c #C6BEC6",
"k.	c #5A565A",
"l.	c #F8EAF8",
"m.	c #222A22",
"n.	c #0A0A0A",
"o.	c #6A6A6A",
"p.	c #727272",
"q.	c #741074",
"r.	c #8A8A8A",
"s.	c #145425",
"t.	c #7A7E7A",
"u.	c #B6AEB6",
"v.	c #D6CDD6",
"w.	c #EFDCEF",
"x.	c #5A405A",
"y.	c #5A025A",
"z.	c #2A2E2A",
"A.	c #3A363A",
"B.	c #5A5E5A",
"C.	c #B60EB6",
"D.	c #C62AC6",
"E.	c #969296",
"F.	c #321E32",
"G.	c #221222",
"H.	c #825282",
"I.	c #917191",
"J.	c #870F87",
"K.	c #963296",
"L.	c #650B65",
"M.	c #D254D2",
"N.	c #A98AA9",
"O.	c #D68CD6",
"P.	c #4A4A4A",
"Q.	c #424242",
"R.	c #EEEBEE",
"S.	c #9E9A9E",
"T.	c #D066D0",
"U.	c #BE0EBE",
"V.	c #825E82",
"W.	c #C1A1C1",
"X.	c #6A326A",
"Y.	c #A60AA6",
"Z.	c #7D667D",
"`.	c #4A0F4A",
" +	c #C296C2",
".+	c #8A028A",
"++	c #A6A2A6",
"@+	c #7F437F",
"#+	c #E6DEE6",
"$+	c #9E0B9E",
"%+	c #AEAAAE",
"&+	c #CC78CC",
"*+	c #1A7634",
"=+	c #960F96",
"-+	c #174320",
";+	c #BF6DBF",
">+	c #7A507A",
",+	c #112D19",
"'+	c #9E4C9E",
")+	c #DED6DE",
"!+	c #BEBABE",
"~+	c #760A76",
"{+	c #B60AB6",
"]+	c #C7C2C7",
"^+	c #AE0AAE",
"/+	c #5A355A",
"(+	c #6A046A",
"_+	c #E9B6E9",
":+	c #736A73",
"<+	c #7A5F7A",
"[+	c #BA54BA",
"}+	c #3A1A3A",
"|+	c #5A0B5A",
"1+	c #420F42",
"2+	c #8A548A",
"3+	c #220E22",
"4+	c #0A060A",
"5+	c #A897A8",
"6+	c #C83EC8",
"7+	c #164E23",
"8+	c #7A037A",
"9+	c #8A828A",
"0+	c #1A7232",
"a+	c #E6A6E6",
"b+	c #12692B",
"c+	c #CECECE",
"d+	c #15361B",
"e+	c #EEE5EE",
"f+	c #C61AC6",
"g+	c #1A121A",
"h+	c #251625",
"i+	c #A238A2",
"j+	c #520B52",
"k+	c #321A32",
"l+	c #2A122A",
"m+	c #D295D2",
"n+	c #4A074A",
"o+	c #C6B2C6",
"p+	c #3A3A3A",
"q+	c #DFD1DF",
"r+	c #A86CA8",
"s+	c #8A0A8A",
"t+	c #6D506D",
"u+	c #BD49BD",
"v+	c #4B424B",
"w+	c #DEA6DE",
"x+	c #BE0ABE",
"y+	c #863686",
"z+	c #572457",
"A+	c #231E23",
"B+	c #8E7B8E",
"C+	c #1A692D",
"D+	c #820A82",
"E+	c #960A96",
"F+	c #BE64BE",
"G+	c #D6C6D6",
"        (.R R | | L #           ",
"      # | R R | | L w.v.i       ",
"    # L L | R | L G )+v.i.8+    ",
"  S ^.# # % # # # c+5.. A : /   ",
"0+.+]+v.v.c+C.# # ~.*.9 ++E.C   ",
"* A *.!+a & #+[ k f i.S.. n. .  ",
"9 S.++w %+u.A *.%+e.* r.t.H M 1 ",
"C J r.r.E._ _ S.E.U 9+y.t+o.4.1 ",
"B.'.&.+ J ).).r.r.&.&.'.y.4.:.v ",
"6.M '.C / / t.&.&.C '.'.4.> 1 v ",
"H o !.! '.p.C p.p o. .!.l :.I   ",
"  } $.o M M u M M !.k.T < I }.  ",
"  d H : $.T T o $.T Q.: _.}.    ",
"    1._.A.p+;.;.: h H d v       ",
"      $ 5 d d Y d d Y 5         ",
"            ' d d ,+            "};
