/* XPM */
static char * card_32x32_xpm[] = {
"32 32 486 2",
"  	c None",
". 	c #6A6A6A",
"+ 	c #454545",
"@ 	c #404040",
"# 	c #3E3E3E",
"$ 	c #080808",
"% 	c #B4B4B4",
"& 	c #000000",
"* 	c #878787",
"= 	c #7E7E7E",
"- 	c #7C7C7C",
"; 	c #3F3F3F",
"> 	c #5B6D54",
", 	c #9ABC91",
"' 	c #819D77",
") 	c #9DB086",
"! 	c #91AE86",
"~ 	c #A1B388",
"{ 	c #A3B489",
"] 	c #8EA47D",
"^ 	c #90A67F",
"/ 	c #9FB086",
"( 	c #9FAF84",
"_ 	c #96AF85",
": 	c #899D75",
"< 	c #8F9C74",
"[ 	c #88936E",
"} 	c #87926D",
"| 	c #8E966F",
"1 	c #828E69",
"2 	c #838F69",
"3 	c #84906A",
"4 	c #828D67",
"5 	c #818C67",
"6 	c #838D67",
"7 	c #607553",
"8 	c #65765C",
"9 	c #667A5E",
"0 	c #718A69",
"a 	c #637A5B",
"b 	c #66795A",
"c 	c #596B4F",
"d 	c #5E6E51",
"e 	c #5F6E52",
"f 	c #586A4E",
"g 	c #58694E",
"h 	c #5C6C4F",
"i 	c #55664B",
"j 	c #4C5A42",
"k 	c #536146",
"l 	c #4B5D43",
"m 	c #4D5F45",
"n 	c #727B59",
"o 	c #63755A",
"p 	c #5D6E55",
"q 	c #4C583E",
"r 	c #536749",
"s 	c #72816A",
"t 	c #465139",
"u 	c #4D6043",
"v 	c #5E6E55",
"w 	c #5E6C53",
"x 	c #637A5C",
"y 	c #5C7255",
"z 	c #7F8B7B",
"A 	c #7E8A7A",
"B 	c #B2B8AF",
"C 	c #AAB1A8",
"D 	c #7A8675",
"E 	c #778372",
"F 	c #AAB0A7",
"G 	c #778472",
"H 	c #747F6F",
"I 	c #A5AAA3",
"J 	c #364430",
"K 	c #42543A",
"L 	c #6A7252",
"M 	c #5B6B53",
"N 	c #586254",
"O 	c #485640",
"P 	c #495B3E",
"Q 	c #697363",
"R 	c #454E3F",
"S 	c #445539",
"T 	c #58684F",
"U 	c #2E2E2E",
"V 	c #6A7054",
"W 	c #51644B",
"X 	c #4B5D44",
"Y 	c #AAAEA9",
"Z 	c #AEB2AC",
"` 	c #ABADAA",
" .	c #A2A4A1",
"..	c #A6AAA4",
"+.	c #A3A7A2",
"@.	c #989A97",
"#.	c #A0A29F",
"$.	c #A2A6A0",
"%.	c #A0A39E",
"&.	c #858684",
"*.	c #3C4439",
"=.	c #35432E",
"-.	c #666D4E",
";.	c #768270",
">.	c #9E9E9E",
",.	c #464C43",
"'.	c #43553A",
").	c #B5B5B5",
"!.	c #5A5A5A",
"~.	c #3E4F34",
"{.	c #55634B",
"].	c #828282",
"^.	c #52634C",
"/.	c #707E6C",
"(.	c #AEB4AC",
"_.	c #ADADAD",
":.	c #A7A7A7",
"<.	c #AFAFAF",
"[.	c #B7B7B7",
"}.	c #A4A4A4",
"|.	c #A1A1A1",
"1.	c #909090",
"2.	c #8A8A8A",
"3.	c #616161",
"4.	c #757874",
"5.	c #62685E",
"6.	c #525B41",
"7.	c #737C63",
"8.	c #C8B882",
"9.	c #43442A",
"0.	c #3F4F36",
"a.	c #D0C59F",
"b.	c #6E633A",
"c.	c #38462E",
"d.	c #526149",
"e.	c #7A7A7A",
"f.	c #626B51",
"g.	c #72806E",
"h.	c #B0B6AE",
"i.	c #A6A6A6",
"j.	c #9B9B9B",
"k.	c #D0D0D0",
"l.	c #BDBDBD",
"m.	c #959595",
"n.	c #C5C5C5",
"o.	c #969696",
"p.	c #B8B8B8",
"q.	c #8F8F8F",
"r.	c #545454",
"s.	c #6C6E6A",
"t.	c #555B51",
"u.	c #525A40",
"v.	c #717B68",
"w.	c #B4AF9D",
"x.	c #3C4031",
"y.	c #3D4E34",
"z.	c #C1BEB1",
"A.	c #5E5A4C",
"B.	c #303D28",
"C.	c #4F5D46",
"D.	c #696969",
"E.	c #53644E",
"F.	c #697B63",
"G.	c #7D8978",
"H.	c #B2B2B2",
"I.	c #8D8D8D",
"J.	c #A5A5A5",
"K.	c #767676",
"L.	c #7F7F7F",
"M.	c #7B7B7B",
"N.	c #4F4F4F",
"O.	c #494E47",
"P.	c #3E473A",
"Q.	c #34422D",
"R.	c #72715D",
"S.	c #C06049",
"T.	c #3D2314",
"U.	c #3B4B32",
"V.	c #CA8677",
"W.	c #671D0D",
"X.	c #606060",
"Y.	c #636C52",
"Z.	c #596654",
"`.	c #788273",
" +	c #656565",
".+	c #5F5F5F",
"++	c #5B5B5B",
"@+	c #575757",
"#+	c #555555",
"$+	c #535353",
"%+	c #505050",
"&+	c #4A4A4A",
"*+	c #474747",
"=+	c #3B3B3B",
"-+	c #464A44",
";+	c #3B4337",
">+	c #4D553C",
",+	c #6E7563",
"'+	c #B4938C",
")+	c #383229",
"!+	c #3A4931",
"~+	c #C2ABA6",
"{+	c #5E4540",
"]+	c #2F3C27",
"^+	c #4D5B44",
"/+	c #566850",
"(+	c #54674D",
"_+	c #394834",
":+	c #555D52",
"<+	c #5A6456",
"[+	c #7C807B",
"}+	c #535A50",
"|+	c #51584E",
"1+	c #7A7D78",
"2+	c #4E554C",
"3+	c #4D534A",
"4+	c #777975",
"5+	c #1F271B",
"6+	c #343E2B",
"7+	c #585F43",
"8+	c #505D49",
"9+	c #646962",
"0+	c #3E463A",
"a+	c #3A4A32",
"b+	c #696E66",
"c+	c #4B4F48",
"d+	c #2E3B26",
"e+	c #4D5B45",
"f+	c #232323",
"g+	c #5F7359",
"h+	c #677F5E",
"i+	c #4B5E44",
"j+	c #364032",
"k+	c #2C3529",
"l+	c #2F362D",
"m+	c #2C322B",
"n+	c #242B22",
"o+	c #22271F",
"p+	c #292D28",
"q+	c #1F241D",
"r+	c #1F231C",
"s+	c #262924",
"t+	c #151B13",
"u+	c #404732",
"v+	c #4B563B",
"w+	c #425438",
"x+	c #37462F",
"y+	c #283322",
"z+	c #3E4E34",
"A+	c #36452D",
"B+	c #212A1B",
"C+	c #323F29",
"D+	c #4D5A44",
"E+	c #607358",
"F+	c #698161",
"G+	c #586D50",
"H+	c #576447",
"I+	c #49513B",
"J+	c #585C42",
"K+	c #565940",
"L+	c #3D4330",
"M+	c #3C422E",
"N+	c #50523B",
"O+	c #383D2B",
"P+	c #373D2B",
"Q+	c #273021",
"R+	c #495339",
"S+	c #535D41",
"T+	c #576545",
"U+	c #4C5E3F",
"V+	c #6B7350",
"W+	c #47573A",
"X+	c #4D5A3D",
"Y+	c #656C4A",
"Z+	c #37462D",
"`+	c #505D46",
" @	c #5F7258",
".@	c #748A66",
"+@	c #788360",
"@@	c #6A7655",
"#@	c #4D5D42",
"$@	c #5A6549",
"%@	c #586245",
"&@	c #424F38",
"*@	c #5B6347",
"=@	c #47543B",
"-@	c #686D4E",
";@	c #4D583E",
">@	c #707453",
",@	c #656C4D",
"'@	c #707754",
")@	c #787E59",
"!@	c #677350",
"~@	c #727C56",
"{@	c #616F4C",
"]@	c #707753",
"^@	c #8E9085",
"/@	c #7A7D71",
"(@	c #6A6F66",
"_@	c #6E736B",
":@	c #5D7056",
"<@	c #778A66",
"[@	c #7C876E",
"}@	c #677156",
"|@	c #556144",
"1@	c #757D68",
"2@	c #64694C",
"3@	c #57624B",
"4@	c #808369",
"5@	c #50583D",
"6@	c #606B57",
"7@	c #6A6F53",
"8@	c #4E583D",
"9@	c #676E4E",
"0@	c #45583C",
"a@	c #4B5F40",
"b@	c #556746",
"c@	c #727C57",
"d@	c #4F6342",
"e@	c #607255",
"f@	c #96A18D",
"g@	c #737373",
"h@	c #525252",
"i@	c #767573",
"j@	c #C2C2C2",
"k@	c #B0B0B0",
"l@	c #303030",
"m@	c #202020",
"n@	c #5C6F55",
"o@	c #748764",
"p@	c #A7A58C",
"q@	c #837A58",
"r@	c #414732",
"s@	c #B5AD92",
"t@	c #554F38",
"u@	c #6E735C",
"v@	c #B3A985",
"w@	c #313223",
"x@	c #91917C",
"y@	c #484934",
"z@	c #4B583D",
"A@	c #45583B",
"B@	c #4C6141",
"C@	c #6D7954",
"D@	c #697651",
"E@	c #4F6442",
"F@	c #5B6D4E",
"G@	c #88957F",
"H@	c #6C6C6C",
"I@	c #726F69",
"J@	c #B6B6B6",
"K@	c #9C9C9C",
"L@	c #586B52",
"M@	c #748562",
"N@	c #807D58",
"O@	c #222118",
"P@	c #2F3224",
"Q@	c #5D573C",
"R@	c #232219",
"S@	c #575A3F",
"T@	c #403E2B",
"U@	c #292A1E",
"V@	c #625F41",
"W@	c #201F16",
"X@	c #504D38",
"Y@	c #4F5A3E",
"Z@	c #576445",
"`@	c #5D6D4A",
" #	c #78805A",
".#	c #5B6D4A",
"+#	c #4F6441",
"@#	c #556848",
"##	c #68795E",
"$#	c #6E6E6E",
"%#	c #5D5D5D",
"&#	c #A2A2A2",
"*#	c #506049",
"=#	c #697F5E",
"-#	c #5D6B4D",
";#	c #626549",
">#	c #414933",
",#	c #5C5E44",
"'#	c #434A35",
")#	c #606347",
"!#	c #434C35",
"~#	c #5E5F45",
"{#	c #393F2C",
"]#	c #57573E",
"^#	c #3F4731",
"/#	c #6C7251",
"(#	c #596747",
"_#	c #767F59",
":#	c #61704D",
"<#	c #66744F",
"[#	c #717B55",
"}#	c #77805C",
"|#	c #8B9072",
"1#	c #515151",
"2#	c #181818",
"3#	c #2A2A2A",
"4#	c #333333",
"5#	c #353535",
"6#	c #51624A",
"7#	c #738E68",
"8#	c #607855",
"9#	c #727B58",
"0#	c #546345",
"a#	c #6B7352",
"b#	c #505F42",
"c#	c #6B7351",
"d#	c #515F42",
"e#	c #515F41",
"f#	c #646E4D",
"g#	c #697350",
"h#	c #5E6D4A",
"i#	c #6D7953",
"j#	c #60704C",
"k#	c #5F6F4B",
"l#	c #5D6C48",
"m#	c #405135",
"n#	c #3C4C31",
"o#	c #334029",
"p#	c #2B3622",
"q#	c #21291A",
"r#	c #151B11",
"s#	c #2B3528",
"t#	c #34422F",
"u#	c #647E59",
"v#	c #848963",
"w#	c #637150",
"x#	c #848962",
"y#	c #616F4E",
"z#	c #848861",
"A#	c #616E4D",
"B#	c #7F845E",
"C#	c #606D4C",
"D#	c #7E835D",
"E#	c #5F6D4B",
"F#	c #63704D",
"G#	c #81875F",
"H#	c #63714D",
"I#	c #7A815A",
"J#	c #5F6C49",
"K#	c #2A3522",
"L#	c #0F130C",
"M#	c #0D100A",
"N#	c #0A0D08",
"O#	c #030402",
"P#	c #4E6144",
"Q#	c #C1B485",
"R#	c #76815C",
"S#	c #C0B484",
"T#	c #767F5B",
"U#	c #757F59",
"V#	c #747D58",
"W#	c #BFB383",
"X#	c #737C57",
"Y#	c #737D57",
"Z#	c #727B55",
"`#	c #BFB282",
" $	c #6E7551",
".$	c #1E2618",
"+$	c #46583E",
"@$	c #DEC995",
"#$	c #7E855F",
"$$	c #7D845E",
"%$	c #7D835D",
"&$	c #7C825C",
"*$	c #7B815B",
"=$	c #7A805A",
"-$	c #7A8059",
";$	c #767B55",
">$	c #1F2719",
",$	c #293424",
"'$	c #756F51",
")$	c #484E37",
"!$	c #746F51",
"~$	c #464D36",
"{$	c #746E51",
"]$	c #746E50",
"^$	c #464C34",
"/$	c #454B34",
"($	c #736D4F",
"_$	c #424831",
":$	c #171D12",
"<$	c #2F2F2F",
"                                                                ",
"                                                                ",
"                                                    . + @ #     ",
"                                                  $ % + @ #     ",
"                                                  & * &         ",
"                                                  & = &         ",
"                                                  & -           ",
"                                                  & -           ",
"                                                    -           ",
"    & & & & & & & & & & & & & & & & & & & & & & & ; -           ",
"  > , ' ) ! ~ { ] ^ / ( _ : < [ } | 1 2 3 4 5 6 7 8 -           ",
"  9 0 a b c d e f g h h i j k l m n o p q r s t u v -           ",
"  w x y z A B C D E F F G H I J K L M N O P Q R S T - U         ",
"  V W X Y Z `  ...+.@.#.$.%.&.*.=.-.;.>.,.'.).!.~.{.- ].&       ",
"  ^./.(._.:.<.[.}.<.}.|.1.2.3.4.5.6.7.8.9.0.a.b.c.d.- e.&       ",
"  f.g.h.i.j.k.l.m.n.o.p.l.q.r.s.t.u.v.w.x.y.z.A.B.C.- D.&       ",
"  E.F.G.H.I.J.p.= |.K.j.L.M.N.O.P.Q.R.S.T.U.V.W.B.C.- X.&       ",
"  Y.Z.`.M. +.+++@+#+$+%+&+*+=+-+;+>+,+'+)+!+~+{+]+^+- 3.&       ",
"  /+(+_+:+<+[+[+}+|+1+1+2+3+4+5+6+7+8+9+0+a+b+c+d+e+- f+        ",
"  g+h+i+j+k+l+m+n+o+p+p+q+r+s+t+u+v+w+x+y+z+A+B+C+D+- &         ",
"  E+F+G+H+I+J+K+L+M+N+N+O+P+N+Q+R+S+T+U+V+W+X+Y+Z+`+- &         ",
"   @.@+@@@#@$@%@&@*@=@=@-@;@>@,@'@)@!@~@{@]@^@/@(@_@- & & &     ",
"  :@<@[@}@|@1@2@3@4@5@6@7@8@9@0@a@b@c@d@e@f@g@h@N.X.- i@j@k@l@m@",
"  n@o@p@q@r@s@t@u@v@w@x@q@y@z@A@B@C@D@E@F@G@H@h@N.X.- I@J@}.K@q.",
"  L@M@N@O@P@Q@R@S@T@U@V@W@X@Y@Z@`@ #.#+#@###$#$+%#3.- H@<.&#& !.",
"  *#=#-#;#>#,#'#)#!#~#{#]#^#/#(#_#:#<#[#}#|#1#2#2#*+- 3#4#5#    ",
"  6#7#8#9#0#a#b#c#d#c#e#f#Z@g#h#i#j#k#l#m#n#o#p#q#r#- &         ",
"  s#t#u#v#w#x#y#z#A#B#C#D#E#B#F#G#H#I#J#K#r#L#M#N#O#- &         ",
"    & P#Q#R#S#T#S#U#S#V#W#X#W#Y#W#Z#`# $.$&       & -           ",
"      +$@$#$@$$$@$%$@$&$@$*$@$=$@$-$@$;$>$&       & -           ",
"      ,$'$)$!$~$!$~${$~$]$^$]$/$]$/$($_$:$        & -           ",
"                                                    <$          "};
