/* XPM */
static char * cervisia_16x16_xpm[] = {
"16 16 106 2",
"  	c None",
". 	c #000000",
"+ 	c #6D4B86",
"@ 	c #2447B2",
"# 	c #2C45A2",
"$ 	c #334492",
"% 	c #8A5678",
"& 	c #7C5995",
"* 	c #8C5F81",
"= 	c #7E649E",
"- 	c #7D5186",
"; 	c #2B45A4",
"> 	c #334494",
", 	c #3A4284",
"' 	c #8E5773",
") 	c #805B90",
"! 	c #90617C",
"~ 	c #836499",
"{ 	c #D76161",
"] 	c #D96565",
"^ 	c #134BD8",
"/ 	c #DB6D6D",
"( 	c #DC7171",
"_ 	c #DD7474",
": 	c #DE7878",
"< 	c #E08080",
"[ 	c #E18383",
"} 	c #E28787",
"| 	c #E28B8A",
"1 	c #E59393",
"2 	c #A75E81",
"3 	c #795899",
"4 	c #1949C9",
"5 	c #825B8D",
"6 	c #B1687F",
"7 	c #DF7C7C",
"8 	c #AE7A9D",
"9 	c #7E6BAC",
"0 	c #876EA0",
"a 	c #78589A",
"b 	c #1D48C0",
"c 	c #2546B0",
"d 	c #2D45A0",
"e 	c #885E86",
"f 	c #DF7C7B",
"g 	c #E07F7F",
"h 	c #E38B8B",
"i 	c #7D6BAD",
"j 	c #282829",
"k 	c #00005F",
"l 	c #7B5995",
"m 	c #2646AF",
"n 	c #E48E8E",
"o 	c #816CA7",
"p 	c #505052",
"q 	c #805A8F",
"r 	c #90607C",
"s 	c #E08382",
"t 	c #E59291",
"u 	c #856DA2",
"v 	c #DE7777",
"w 	c #E38A8A",
"x 	c #E59292",
"y 	c #E69696",
"z 	c #E79999",
"A 	c #E89D9D",
"B 	c #E5A4A4",
"C 	c #AA6C8F",
"D 	c #7B61A2",
"E 	c #846496",
"F 	c #B5768C",
"G 	c #E9A1A1",
"H 	c #E8A8A8",
"I 	c #7B61A3",
"J 	c #8B678F",
"K 	c #E69595",
"L 	c #EAA5A5",
"M 	c #E8ABAB",
"N 	c #7F639E",
"O 	c #EBAFAF",
"P 	c #936A85",
"Q 	c #E9A0A0",
"R 	c #EAA4A4",
"S 	c #EBA8A8",
"T 	c #ECACAC",
"U 	c #EDB0B0",
"V 	c #ECB3B3",
"W 	c #E28686",
"X 	c #E59191",
"Y 	c #EDAFAF",
"Z 	c #EEB3B3",
"` 	c #ECB6B6",
" .	c #714444",
"..	c #704545",
"+.	c #09256C",
"@.	c #6E4A4B",
"#.	c #684D4D",
"$.	c #694E4F",
"%.	c #724F4F",
"&.	c #705151",
"*.	c #6F5253",
"=.	c #735455",
"-.	c #6A5455",
";.	c #745858",
">.	c #775A5A",
",.	c #6C5959",
"  . . . . . . . . . . . . . .   ",
"  + @ # $ % & @ # $ * = @ # $ . ",
". - ; > , ' ) ; > , ! ~ ; > , . ",
". { ] ^ / ( _ : ^ < [ } | ^ 1 . ",
". 2 3 4 5 6 : 7 ^ [ } 8 9 4 0 . ",
". a b c d e f g ^ } h i b c d j ",
"k l @ # $ m ^ ^ ^ h n o @ # $ p ",
". q ; > , r s } | n t u ; > , p ",
". _ v ^ g [ } w n x y z A ^ B p ",
". C D 4 E F w n x y z A G ^ H p ",
". I b c d J n x K z A G L ^ M p ",
". N @ # $ m ^ ^ ^ ^ ^ ^ ^ ^ O p ",
". ~ ; > , P K z A Q R S T U V p ",
". W w ^ X K z A Q R S T Y Z ` p ",
".  ...+.@.#.$.%.&.*.=.-.;.>.,.p ",
"  p p p p p p p p p p p p p p p "};
