/* XPM */
static char * cervisia_32x32_xpm[] = {
"32 32 194 2",
"  	c None",
". 	c #000000",
"+ 	c #AB4646",
"@ 	c #1D48C2",
"# 	c #2148BA",
"$ 	c #2547B2",
"% 	c #2846AA",
"& 	c #2C45A2",
"* 	c #30459A",
"= 	c #344492",
"- 	c #38438A",
"; 	c #DA6969",
"> 	c #DA6A6A",
", 	c #DE7C7B",
"' 	c #DE817B",
") 	c #CE5656",
"! 	c #2048BB",
"~ 	c #2447B3",
"{ 	c #2846AB",
"] 	c #2C45A3",
"^ 	c #30459B",
"/ 	c #344493",
"( 	c #37438B",
"_ 	c #3B4283",
": 	c #DB6B6B",
"< 	c #DB6D6D",
"[ 	c #E07E7E",
"} 	c #E08080",
"| 	c #D45B5C",
"1 	c #2447B4",
"2 	c #2746AC",
"3 	c #2B46A4",
"4 	c #2F459C",
"5 	c #334494",
"6 	c #37438C",
"7 	c #3B4284",
"8 	c #3F427C",
"9 	c #DB6E6E",
"0 	c #E18282",
"a 	c #D55D5E",
"b 	c #2746AD",
"c 	c #2B46A5",
"d 	c #2F459D",
"e 	c #334495",
"f 	c #37438D",
"g 	c #3A4385",
"h 	c #3E427D",
"i 	c #424175",
"j 	c #DC6F6F",
"k 	c #DC7171",
"l 	c #E18484",
"m 	c #D65F60",
"n 	c #D86262",
"o 	c #D96464",
"p 	c #D96565",
"q 	c #134BD8",
"r 	c #DD7373",
"s 	c #DD7575",
"t 	c #DE7676",
"u 	c #DE7878",
"v 	c #E28686",
"w 	c #E28787",
"x 	c #E38989",
"y 	c #E28B8A",
"z 	c #E59191",
"A 	c #E59393",
"B 	c #D96363",
"C 	c #DA6767",
"D 	c #DD7474",
"E 	c #DF7A7A",
"F 	c #E28585",
"G 	c #E48D8D",
"H 	c #E69595",
"I 	c #D86363",
"J 	c #DF7C7C",
"K 	c #E38B8B",
"L 	c #E48F8F",
"M 	c #E69696",
"N 	c #124BD7",
"O 	c #164ACF",
"P 	c #1A49C7",
"Q 	c #1E48BF",
"R 	c #2247B7",
"S 	c #2647AF",
"T 	c #2A46A7",
"U 	c #2E459F",
"V 	c #E18383",
"W 	c #D96767",
"X 	c #164AD0",
"Y 	c #1A49C8",
"Z 	c #1E48C0",
"` 	c #2247B8",
" .	c #2547B0",
"..	c #2946A8",
"+.	c #2D45A0",
"@.	c #314498",
"#.	c #1949C9",
"$.	c #1D48C1",
"%.	c #2148B9",
"&.	c #2547B1",
"*.	c #2946A9",
"=.	c #2D45A1",
"-.	c #314499",
";.	c #354491",
">.	c #E18181",
",.	c #A0A0A4",
"'.	c #D86A6B",
").	c #E59090",
"!.	c #D96C6D",
"~.	c #E59292",
"{.	c #DA6D6D",
"].	c #E07F7F",
"^.	c #E18D88",
"/.	c #E48E8E",
"(.	c #E69494",
"_.	c #DC7070",
":.	c #DF8580",
"<.	c #E48C8C",
"[.	c #E59493",
"}.	c #DC7272",
"|.	c #E07D7D",
"1.	c #E79898",
"2.	c #E79A9A",
"3.	c #E89C9C",
"4.	c #E89D9D",
"5.	c #EAA3A3",
"6.	c #E1A4A4",
"7.	c #DF7979",
"8.	c #E38A8A",
"9.	c #E89B9B",
"0.	c #E99F9F",
"a.	c #EAA5A5",
"b.	c #E2A6A6",
"c.	c #DD7676",
"d.	c #DF7B7B",
"e.	c #E38888",
"f.	c #E79999",
"g.	c #E9A1A1",
"h.	c #EBA7A7",
"i.	c #E6A8A8",
"j.	c #DE7777",
"k.	c #EBA9A9",
"l.	c #E7A9A9",
"m.	c #DE7979",
"n.	c #E79797",
"o.	c #ECAAAA",
"p.	c #E4AAAB",
"q.	c #ECACAC",
"r.	c #E4ACAC",
"s.	c #DF7D7D",
"t.	c #EDAEAE",
"u.	c #E8AFAF",
"v.	c #EDB0B0",
"w.	c #EBB1B1",
"x.	c #E08181",
"y.	c #E69393",
"z.	c #EAA4A4",
"A.	c #EBA6A6",
"B.	c #EBA8A8",
"C.	c #EEB2B2",
"D.	c #EBB3B3",
"E.	c #EAA2A2",
"F.	c #EEB3B3",
"G.	c #EBB4B4",
"H.	c #E9A0A0",
"I.	c #EEB1B1",
"J.	c #EFB5B5",
"K.	c #ECB6B6",
"L.	c #EFB7B7",
"M.	c #E9B7B7",
"N.	c #E28888",
"O.	c #DE8989",
"P.	c #E19394",
"Q.	c #D89798",
"R.	c #D2999A",
"S.	c #D19B9C",
"T.	c #CB9D9E",
"U.	c #DA9D9E",
"V.	c #E59E9E",
"W.	c #E5A0A0",
"X.	c #E2A1A2",
"Y.	c #DEA3A4",
"Z.	c #DAA4A5",
"`.	c #E5A7A7",
" +	c #E9A9A9",
".+	c #E5AAAB",
"++	c #D5A9AA",
"@+	c #D4AAAB",
"#+	c #E5AFAF",
"$+	c #EBB2B2",
"%+	c #EEB4B4",
"&+	c #EEB6B6",
"*+	c #ECB7B8",
"=+	c #C7ADAF",
"                                                                ",
"  . . . . . . . . . . . . . . . . . . . . . . . . . . . . . .   ",
"  . + @ # $ % & * = - ; > @ # $ % & * = - , ' @ # $ % & * = .   ",
"  . ) ! ~ { ] ^ / ( _ : < ! ~ { ] ^ / ( _ [ } ! ~ { ] ^ / ( .   ",
"  . | 1 2 3 4 5 6 7 8 < 9 1 2 3 4 5 6 7 8 } 0 1 2 3 4 5 6 7 .   ",
"  . a b c d e f g h i j k b c d e f g h i 0 l b c d e f g h .   ",
"  . m n o p q q : < j k r s t u q q [ } 0 l v w x y q q z A .   ",
"  . n B p C q q < j k r D t u E q q } 0 l F w x y G q q A H .   ",
"  . I p C ; q q j k r D t u E J q q 0 l F w x K G L q q H M .   ",
"  . p N O P Q R S T U t u E J [ q q V F w x K N O P Q R S T .   ",
"  . W X Y Z `  ...+.@.u E J [ } q q F w x K G X Y Z `  ...+..   ",
"  . ; #.$.%.&.*.=.-.;.E , [ } >.q q w x K G L #.$.%.&.*.=.-.. ,.",
"  . '.@ # $ % & * = - q q q q q q q x K G L ).@ # $ % & * = . ,.",
"  . !.! ~ { ] ^ / ( _ q q q q q q q K G L ).~.! ~ { ] ^ / ( . ,.",
"  . {.1 2 3 4 5 6 7 8 ].>.V F w x ^.G /.).~.(.1 2 3 4 5 6 7 . ,.",
"  . _.b c d e f g h i >.:.F w x K <./.).~.[.M b c d e f g h . ,.",
"  . }.D t u q q |.].>.V F w x K <./.).~.(.M 1.2.3.4.q q 5.6.. ,.",
"  . D t u 7.q q ].>.V F w x 8.<./.).~.(.M 1.2.9.4.0.q q a.b.. ,.",
"  . c.u 7.d.q q >.V F w e.8.<./.).~.(.M 1.f.9.4.0.g.q q h.i.. ,.",
"  . j.N O P Q R S T U e.8.<./.).~.(.M 1.f.9.4.0.g.5.q q k.l.. ,.",
"  . m.X Y Z `  ...+.@.8.<./.).~.(.M n.f.9.4.0.g.5.a.q q o.p.. ,.",
"  . d.#.$.%.&.*.=.-.;.<./.).~.(.M n.f.9.4.0.g.5.a.h.q q q.r.. ,.",
"  . s.@ # $ % & * = - q q q q q q q q q q q q q q q q q t.u.. ,.",
"  . ].! ~ { ] ^ / ( _ q q q q q q q q q q q q q q q q q v.w.. ,.",
"  . x.1 2 3 4 5 6 7 8 ~.y.H n.f.9.4.0.g.5.z.A.B.o.q.t.v.C.D.. ,.",
"  . 0 b c d e f g h i y.H n.f.9.4.0.g.E.z.A.B.o.q.t.v.C.F.G.. ,.",
"  . l v e.8.q q ).z y.H n.f.9.4.0.H.E.z.A.B.o.q.t.v.I.F.J.K.. ,.",
"  . v e.8.<.q q z y.H n.f.9.4.0.H.E.z.A.B.o.q.t.v.I.F.J.L.M.. ,.",
"  . N.8.<.O.q q P.Q.R.S.T.U.V.W.X.Y.Z.`. +.+++@+#+$+%+&+*+=+. ,.",
"  . . . . . . . . . . . . . . . . . . . . . . . . . . . . . . ,.",
"    ,.,.,.,.,.,.,.,.,.,.,.,.,.,.,.,.,.,.,.,.,.,.,.,.,.,.,.,.,.,.",
"                                                                "};
