/* XPM */
static char * chromium_16x16_xpm[] = {
"16 16 256 2",
"  	c None",
". 	c #020202",
"+ 	c #CAB2AE",
"@ 	c #A67C66",
"# 	c #793F26",
"$ 	c #4A1D09",
"% 	c #390D03",
"& 	c #2C0A04",
"* 	c #140A6A",
"= 	c #181A18",
"- 	c #4A4E4A",
"; 	c #200603",
"> 	c #36127A",
", 	c #4E167E",
"' 	c #41413B",
") 	c #060563",
"! 	c #E3CBC5",
"~ 	c #121211",
"{ 	c #87553E",
"] 	c #D1A7AD",
"^ 	c #120203",
"/ 	c #363A3A",
"( 	c #2E2E26",
"_ 	c #2A128E",
": 	c #7A6292",
"< 	c #4A3662",
"[ 	c #0A0E02",
"} 	c #9E8ACE",
"| 	c #623E26",
"1 	c #2A2A32",
"2 	c #36323E",
"3 	c #8E7686",
"4 	c #0A0A06",
"5 	c #361E8A",
"6 	c #F2DACE",
"7 	c #7E4A82",
"8 	c #2A2635",
"9 	c #DAC4C6",
"0 	c #A67A82",
"a 	c #0E0202",
"b 	c #572F16",
"c 	c #9B6E62",
"d 	c #45230F",
"e 	c #2F1935",
"f 	c #C29296",
"g 	c #5E1E92",
"h 	c #A692D2",
"i 	c #141341",
"j 	c #1E1A4A",
"k 	c #CEAAF6",
"l 	c #72565A",
"m 	c #FABEF8",
"n 	c #0A0202",
"o 	c #765A66",
"p 	c #422E66",
"q 	c #B6818D",
"r 	c #130E0E",
"s 	c #2A0E07",
"t 	c #6A3116",
"u 	c #020602",
"v 	c #926A60",
"w 	c #9A5A92",
"x 	c #261616",
"y 	c #EEE2DA",
"z 	c #391205",
"A 	c #0E0A3A",
"B 	c #7A4E6A",
"C 	c #C2A2E6",
"D 	c #462E9E",
"E 	c #1E0E08",
"F 	c #4A2A26",
"G 	c #7E564A",
"H 	c #56326E",
"I 	c #DAB2D2",
"J 	c #5E5246",
"K 	c #461902",
"L 	c #FACEF2",
"M 	c #252336",
"N 	c #725262",
"O 	c #2A161A",
"P 	c #B07CA8",
"Q 	c #A686C2",
"R 	c #552307",
"S 	c #94645E",
"T 	c #0E0A22",
"U 	c #120808",
"V 	c #2E2A4E",
"W 	c #0E0E36",
"X 	c #7A4C4C",
"Y 	c #212223",
"Z 	c #5E2E3A",
"` 	c #F6E6DE",
" .	c #423B5A",
"..	c #826E9A",
"+.	c #66268A",
"@.	c #D9ADC5",
"#.	c #A27266",
"$.	c #6A422C",
"%.	c #2E1A16",
"&.	c #BA86B6",
"*.	c #220E7A",
"=.	c #824E2E",
"-.	c #E7C1E3",
";.	c #422A3A",
">.	c #401E0C",
",.	c #6A5A6A",
"'.	c #EAA8DE",
").	c #421608",
"!.	c #5A2606",
"~.	c #32304E",
"{.	c #966EA2",
"].	c #F9E2F7",
"^.	c #FEDAFE",
"/.	c #52425A",
"(.	c #180E5E",
"_.	c #8E6E82",
":.	c #885868",
"<.	c #F6EAE6",
"[.	c #DEC0BE",
"}.	c #120E2E",
"|.	c #DAB2EA",
"1.	c #100881",
"2.	c #2D160F",
"3.	c #060A12",
"4.	c #542210",
"5.	c #0E1222",
"6.	c #A87584",
"7.	c #5C4446",
"8.	c #4A3236",
"9.	c #A66E7E",
"0.	c #BA96AA",
"a.	c #361A0A",
"b.	c #463E56",
"c.	c #443034",
"d.	c #5A5A82",
"e.	c #060202",
"f.	c #1E1E2A",
"g.	c #7A72A2",
"h.	c #72369E",
"i.	c #160705",
"j.	c #FAEAEA",
"k.	c #9E7AA6",
"l.	c #D6A2CE",
"m.	c #463E76",
"n.	c #020210",
"o.	c #0A0612",
"p.	c #261E26",
"q.	c #705256",
"r.	c #1E0A06",
"s.	c #44445E",
"t.	c #3A3A54",
"u.	c #2F0E04",
"v.	c #62424E",
"w.	c #9A62C2",
"x.	c #160A12",
"y.	c #1A0202",
"z.	c #4D2713",
"A.	c #5E3A36",
"B.	c #2E2A6E",
"C.	c #1A1212",
"D.	c #0A0606",
"E.	c #0A0A0A",
"F.	c #24121A",
"G.	c #B68676",
"H.	c #FEEEFC",
"I.	c #6A3A26",
"J.	c #723E46",
"K.	c #D2A0E8",
"L.	c #BC8896",
"M.	c #AE7E7E",
"N.	c #8E6676",
"O.	c #552914",
"P.	c #FBC6FE",
"Q.	c #88585A",
"R.	c #464A4A",
"S.	c #151613",
"T.	c #8E5E42",
"U.	c #9E6EBA",
"V.	c #2B2E37",
"W.	c #C88AAC",
"X.	c #0E0604",
"Y.	c #5A3A66",
"Z.	c #DAB2AE",
"`.	c #060602",
" +	c #3E1507",
".+	c #CA96B6",
"++	c #6E3A32",
"@+	c #D0AEA4",
"#+	c #320902",
"$+	c #FAE6EE",
"%+	c #461E09",
"&+	c #7E429A",
"*+	c #060606",
"=+	c #1E1E1B",
"-+	c #1A0E0C",
";+	c #925E62",
">+	c #E6B8F8",
",+	c #1A0A86",
"'+	c #62567E",
")+	c #58425E",
"!+	c #8E5E4E",
"~+	c #635B7F",
"{+	c #7E4632",
"]+	c #311207",
"^+	c #220612",
"/+	c #02020A",
"(+	c #8E6A72",
"_+	c #24110E",
":+	c #573121",
"<+	c #160203",
"[+	c #32303C",
"}+	c #723216",
"|+	c #17151E",
"1+	c #0E0A0D",
"2+	c #624262",
"3+	c #665E8E",
"4+	c #5E2816",
"5+	c #36128E",
"6+	c #7A5A7A",
"7+	c #522A3A",
"8+	c #2E162E",
"9+	c #26128E",
"0+	c #260602",
"a+	c #3B3946",
"b+	c #1A0604",
"c+	c #230A05",
"d+	c #381609",
"e+	c #0A0E0A",
"f+	c #4E2A22",
"g+	c #0A0A66",
"h+	c #7E6A8E",
"i+	c #A68292",
"j+	c #26224A",
"k+	c #66361A",
"l+	c #5A3A6A",
"m+	c #865E6A",
"n+	c #564A4A",
"o+	c #464652",
"p+	c #F0D8DE",
"q+	c #7E4C3E",
"r+	c #402218",
"s+	c #FBE8FA",
"t+	c #2A120D",
"u+	c #252627",
"v+	c #421A0D",
"w+	c #2B2A3F",
"x+	c #0D0A12",
"y+	c #362E4A",
"z+	c #0E0A06",
"A+	c #322636",
"B+	c #0E0E0A",
"C+	c #4A128E",
"D+	c #C292A2",
"E+	c #1E1E5A",
"F+	c #0A020A",
"G+	c #3C1A08",
". . `.*+. . . . . . . . . . . . ",
". . . B+`.E.`.( u . . . . . . . ",
"e . . B+E.e+e+o+x+`.D.. . . . . ",
"C.. . 4 E.u u - S.[ B+B+4 *+. ~ ",
"u . u . . 4 /+(.A . e.. *+E.B+=+",
"S.. *+~ a u+u+) i T . . . . . E.",
"~ . . B+B+[+w+g+B.'+u . . . . . ",
". . . ~ 3.t.V.* '+~.~.. . . . . ",
"S.. *+n w+A+,.9+: 3 } o.. . . . ",
"~ e.U x )+7+6.C+&.D+|.Q ^ a . . ",
"X.^ c+7.:.J.f h.>+[.^.L v.<+a e.",
"s b+s r+X c p+K.s+` ! d+]+r.<+^ ",
"O ; s  +b !+H.m -.<.=.%+d+; <+a ",
"U <+& ).R # f W.0 c !.z u.b+a n ",
"e.n c+ +4.t G Q.++4.% 0+r.n n . ",
"4 B+X.2.a.r+b >.]+u.y.<+X.. . . "};
