/* XPM */
static char * critter_32x32_xpm[] = {
"32 32 256 2",
"  	c None",
". 	c #0A0A02",
"+ 	c #E6020A",
"@ 	c #C20202",
"# 	c #AE0202",
"$ 	c #7A0202",
"% 	c #5A0A02",
"& 	c #061E02",
"* 	c #F6423E",
"= 	c #4A0E02",
"- 	c #E80E10",
"; 	c #1E3202",
"> 	c #CA4232",
", 	c #261E04",
"' 	c #3A0E02",
") 	c #F4322A",
"! 	c #D2261E",
"~ 	c #280E04",
"{ 	c #262603",
"] 	c #8A0402",
"^ 	c #BE2622",
"/ 	c #EE1A1E",
"( 	c #221202",
"_ 	c #3E2606",
": 	c #D61E1E",
"< 	c #5A1404",
"[ 	c #CA0206",
"} 	c #0A1A02",
"| 	c #1A2E02",
"1 	c #CE1A1A",
"2 	c #2E2602",
"3 	c #AA261E",
"4 	c #121E04",
"5 	c #EA2626",
"6 	c #162A02",
"7 	c #B6160A",
"8 	c #960A06",
"9 	c #5E1A12",
"0 	c #3C1E02",
"a 	c #D2040A",
"b 	c #161602",
"c 	c #2E3202",
"d 	c #EE262A",
"e 	c #FA0202",
"f 	c #9A1E12",
"g 	c #1A2605",
"h 	c #1E0E04",
"i 	c #323202",
"j 	c #662E1E",
"k 	c #B2120E",
"l 	c #2E2A02",
"m 	c #FE4E4E",
"n 	c #7E1206",
"o 	c #4D1202",
"p 	c #1A1E02",
"q 	c #DA0E07",
"r 	c #5E0E02",
"s 	c #F2222A",
"t 	c #341E03",
"u 	c #BA0203",
"v 	c #1E1602",
"w 	c #731205",
"x 	c #FE2E36",
"y 	c #522616",
"z 	c #161202",
"A 	c #D60607",
"B 	c #3A3202",
"C 	c #261202",
"D 	c #F22A1E",
"E 	c #2E2E02",
"F 	c #A20206",
"G 	c #161A03",
"H 	c #6E0202",
"I 	c #282E03",
"J 	c #F60604",
"K 	c #661806",
"L 	c #E23636",
"M 	c #1A2204",
"N 	c #DE020A",
"O 	c #0E1202",
"P 	c #BE0A06",
"Q 	c #EE362A",
"R 	c #660A02",
"S 	c #4A2602",
"T 	c #321202",
"U 	c #401202",
"V 	c #701A04",
"W 	c #F65A4E",
"X 	c #A50E0A",
"Y 	c #262A02",
"Z 	c #E60607",
"` 	c #FE3C42",
" .	c #2A1E02",
"..	c #363602",
"+.	c #5A2008",
"@.	c #B60E0E",
"#.	c #322E02",
"$.	c #221A02",
"%.	c #362A04",
"&.	c #CE0A06",
"*.	c #FA2622",
"=.	c #D61A16",
"-.	c #363202",
";.	c #560602",
">.	c #221E02",
",.	c #6A0A02",
"'.	c #FA5651",
").	c #DE0A07",
"!.	c #1E2203",
"~.	c #381A03",
"{.	c #DE4242",
"].	c #FA161A",
"^.	c #281A03",
"/.	c #861E16",
"(.	c #511A03",
"_.	c #B40204",
":.	c #F63636",
"<.	c #EE0A0E",
"[.	c #8E0A08",
"}.	c #1E2605",
"|.	c #A80806",
"1.	c #F24A52",
"2.	c #6A2004",
"3.	c #1A1602",
"4.	c #4E0E02",
"5.	c #F21A22",
"6.	c #FA2220",
"7.	c #FC4E5C",
"8.	c #BA3222",
"9.	c #0E1603",
"0.	c #3A2E02",
"a.	c #1A2A02",
"b.	c #AA1E16",
"c.	c #720A06",
"d.	c #F64652",
"e.	c #1E1A03",
"f.	c #2A2202",
"g.	c #362E03",
"h.	c #FE2622",
"i.	c #421602",
"j.	c #C60A0E",
"k.	c #E20E0E",
"l.	c #DA1A22",
"m.	c #F03A3A",
"n.	c #B20604",
"o.	c #1A1A03",
"p.	c #120E02",
"q.	c #F20E0E",
"r.	c #761A02",
"s.	c #FD1E23",
"t.	c #D64A40",
"u.	c #1E1E02",
"v.	c #2A2602",
"w.	c #2A2A02",
"x.	c #262203",
"y.	c #321903",
"z.	c #E20A10",
"A.	c #EE0209",
"B.	c #222202",
"C.	c #322A02",
"D.	c #320E02",
"E.	c #E01E2E",
"F.	c #332602",
"G.	c #4A2A16",
"H.	c #FE2227",
"I.	c #121A02",
"J.	c #861408",
"K.	c #521602",
"L.	c #BE0202",
"M.	c #2E1602",
"N.	c #2E1A02",
"O.	c #3A2A12",
"P.	c #5A1A02",
"Q.	c #622202",
"R.	c #332202",
"S.	c #9A0A0A",
"T.	c #DE3E36",
"U.	c #CE120E",
"V.	c #212E02",
"W.	c #221602",
"X.	c #FE524A",
"Y.	c #421E0E",
"Z.	c #D61111",
"`.	c #760D03",
" +	c #0E1E02",
".+	c #E20608",
"++	c #FA5253",
"@+	c #BA0606",
"#+	c #FE2628",
"$+	c #1A0E06",
"%+	c #FA2A1E",
"&+	c #121202",
"*+	c #222A02",
"=+	c #FE4A4E",
"-+	c #221E0E",
";+	c #DA0A06",
">+	c #FA3236",
",+	c #281604",
"'+	c #222602",
")+	c #750502",
"!+	c #550D02",
"~+	c #1E1202",
"{+	c #E21A1E",
"]+	c #F9262A",
"^+	c #6E1E0E",
"/+	c #3A2202",
"(+	c #2E1E02",
"_+	c #B4060A",
":+	c #26220A",
"<+	c #FE4A5A",
"[+	c #FE524F",
"}+	c #263202",
"|+	c #BE1612",
"1+	c #461202",
"2+	c #AA0E02",
"3+	c #E20A05",
"4+	c #461602",
"5+	c #0E0E02",
"6+	c #AE0602",
"7+	c #2E3602",
"8+	c #3A3602",
"9+	c #E6060E",
"0+	c #F72A27",
"a+	c #121604",
"b+	c #F6565A",
"c+	c #3E1A02",
"d+	c #F23634",
"e+	c #761C0C",
"f+	c #DA4A4A",
"g+	c #3A2A04",
"h+	c #DE0609",
"i+	c #C60202",
"j+	c #161E03",
"k+	c #DA0606",
"l+	c #362E0A",
"m+	c #7B0605",
"n+	c #FD0606",
"o+	c #4A1602",
"p+	c #A10607",
"q+	c #F93A3A",
"r+	c #0A2202",
"s+	c #1A1203",
"t+	c #EA0207",
"u+	c #FE2221",
"v+	c #B60603",
"w+	c #16120A",
"x+	c #2E2202",
"y+	c #FE5256",
"z+	c #E62A22",
"A+	c #960E0A",
"B+	c #EE2A2A",
"C+	c #BA0E0A",
"D+	c #CA0E0A",
"E+	c #8A0E0A",
"F+	c #700E02",
"G+	c #F23E3A",
"3.3.b b b b b b b b b s+b b z a+9.&+&+&+z &+O O 5+5+5+5+5+5+5+. ",
"o.B.-+o.3.3.z z z a+s+~ z a+~+} 9.h w+&+$+&+&+z &+&+&+p.5+. 5+5+",
"e.u.v o.o.o.o.o.G G ( v I.a+~+b s+h 9.z } a+p.z &+p.&+p.&+5+5+5+",
"o.e.G u.3.3.3.3.G G W.G I.G ~+o 4.v b  +& z s+z &+&+&+&+p.p.O 5+",
"p e.e.o.u.o.o.o.e.e.p 4 s+o.D.|.A+v b  +b ~+} 3.b z z &+p.p.O O ",
"u.u.u.u.u.u.u.e.e.$.j+o.W.v R ;+;+< p 3.( ~+I.b b &+&+z &+&+&+p.",
"u.>.u.u.u.u.u.u.u.e.$.$.p ' 6+J e @.T C W.v b b o.3.b b z &+a+&+",
">.!.>., >.>.>.>.p p U i.$.,.9+e e z.,.M.Y.O.W.e.3.G I.3.b b &+O ",
"B.}.M , M !.N.^.M >.< 2+] @+- n+n+<.C+3 {.j 3.e.( G r+W.3.} b z ",
"B.B.B., g g >.x.g , % @+P {+h.6.u+u+) ` * y p p ,+W.G W.W.3.b b ",
"'+x.(+(+'+a.B.f.B., = n.[ / u+*.6.*.#+` d.G.$.p $.e.4 j+W.v G 3.",
"x.{ f. .f.{ *+x.(+x.y.8 a s.H.6.#+s.]+G+f+y., u.$.,+,+W.e.v 3.G ",
"{ *+V.}.f.x.| '+/+c+y.E+[ s.u+]+0+s.H.G+f+~.t i.j+M p ,+j+e.o.o.",
"{ Y a.x+(.o+R.R.w J.4+c.q 0+H.0+]+H.s.) t.U /.V x.>.M.9 !.$.o.o.",
"v.l R.1+F+E+w F+X U.w m+Z.D u+]+H.%+0+) 8.n {+^ `.7 l.l.~.e.o.o.",
"w.v.Y F.!+8 # # u &.@.] : #+*.#+H.H.#+) : 1 s q+:.].].b., ^.u.u.",
"l w.*+C.= ] # u u i+@+p+{+H.*.#+#+H.h.0+5 ) <+b+++x 5.^+g ,+e.u.",
"w.w.I F.4.m+_.u u L.L._.).<.- - - 9+<.k.m.[+++7.7.=+L K.g !.!.u.",
"E l 2 t = H p+u u _.L.L..++ )..+3++ Z Z q+[+y+<+++'.m.@.P., >.>.",
"l #.%.t U ;.$ F _._.@ @ + t+h++ + Z Z + d [+++m '.m.- j.(.N.B.!.",
"E #.g.%./+U ;.$ S._.L.L.k+.+h+A.Z .+).h+s m '.[+>+Z.X K.a. .x.B.",
"#.E I E #.C.i.;.H 6+L.L.;+)..+A.t+).q ;+5 =+++m.|+K t '+'+}.B.B.",
"i i c E #.g.g+/+= )+|.@ .+3+.+Z + + .+q z+m T.f P.R.{ f.'+g B.B.",
"#.#.c i i #.#.%.g+o )+v+k++ Z Z Z Z A.t+B+> r.K.R.V.Y 2 f.'+'+B.",
"i i c i i #.#.E c #.< ] D+A k+A &.D+A h+1 K l w.V.| Y F.2 { { { ",
"i i i i E c c c I C.!+[.6+v+u L.L._._.@ v+w /+I V.Y 2 x+v.{ { B.",
"#.i i ..c c c i c I S Q.V V V F+`.2.Q.V V +.%.l l l C.2 w.Y Y { ",
"-.-.i i i i i i c }+-.0.g.-.g.M.~.g+C.%._ %.C.C.C.F.w.w.v.v.v.{ ",
"-.........i i -.-.0.g+0.#.#.g.^. .g.#.c c #.#.E I w.I *+2 2 w.w.",
"..-.-.-.-.-.-.-.-.-.-.g.-.#.-.2 v.#.E g.#.#.#.E #.E w.l v.2 v.v.",
"........8+....B -.-.-.-.-.#.i -.i #.E #.#.#.i #.E E l l w.l v.v.",
"8+8+8+8+..8+B ....-...-.-.-.-.i #.i i i i i #.E #.#.E E l l l l "};
