/* XPM */
static char * csmash_32x32_xpm[] = {
"32 32 256 2",
"  	c None",
". 	c #111611",
"+ 	c #227E8A",
"@ 	c #3632F6",
"# 	c #AA100E",
"$ 	c #4A56D6",
"% 	c #B29276",
"& 	c #6A1A16",
"* 	c #132E13",
"= 	c #4A62EA",
"- 	c #2B86AE",
"; 	c #263216",
"> 	c #4636CE",
", 	c #677EEB",
"' 	c #5A4226",
") 	c #3A5AE4",
"! 	c #6E7EDE",
"~ 	c #A2321E",
"{ 	c #538249",
"] 	c #485020",
"^ 	c #266686",
"/ 	c #8B7A31",
"( 	c #4955DA",
"_ 	c #BAA27A",
": 	c #928242",
"< 	c #B666FA",
"[ 	c #3A3A1A",
"} 	c #6666C2",
"| 	c #6F7760",
"1 	c #845730",
"2 	c #664AE6",
"3 	c #7E5EA2",
"4 	c #504CE1",
"5 	c #325E1A",
"6 	c #BEBE9E",
"7 	c #6A4AB6",
"8 	c #A2964E",
"9 	c #7A82CA",
"0 	c #8276E6",
"a 	c #6E9222",
"b 	c #2E2ACE",
"c 	c #164212",
"d 	c #90A880",
"e 	c #266078",
"f 	c #3A4232",
"g 	c #3642EE",
"h 	c #525824",
"i 	c #BA2A2E",
"j 	c #9AC6D6",
"k 	c #8A8EB6",
"l 	c #6F79D6",
"m 	c #5E3E9A",
"n 	c #9E6E92",
"o 	c #7E6A82",
"p 	c #164A12",
"q 	c #8E7EEA",
"r 	c #763E22",
"s 	c #2E5D1A",
"t 	c #3A4A32",
"u 	c #AEC2C2",
"v 	c #9E8E4E",
"w 	c #5B8E99",
"x 	c #4B31E1",
"y 	c #6A6ADC",
"z 	c #BE7EFA",
"A 	c #6246C6",
"B 	c #745CE0",
"C 	c #5E763A",
"D 	c #46763A",
"E 	c #42563A",
"F 	c #8E3622",
"G 	c #27631C",
"H 	c #9A9672",
"I 	c #725AD6",
"J 	c #9E6A46",
"K 	c #145214",
"L 	c #563AE1",
"M 	c #C66ABE",
"N 	c #366276",
"O 	c #4A8EA6",
"P 	c #3E2E2A",
"Q 	c #D9D1B1",
"R 	c #967E66",
"S 	c #667E6E",
"T 	c #AA42F2",
"U 	c #A0A2EA",
"V 	c #7B4A2A",
"W 	c #5A66D6",
"X 	c #66582A",
"Y 	c #946A4E",
"Z 	c #3E5AE2",
"` 	c #32221C",
" .	c #726AE0",
"..	c #967A76",
"+.	c #728672",
"@.	c #3E6232",
"#.	c #165D14",
"$.	c #4F46E1",
"%.	c #226420",
"&.	c #6854E8",
"*.	c #3098C6",
"=.	c #2494CA",
"-.	c #D6C2A6",
";.	c #4655D2",
">.	c #8880E2",
",.	c #828E6E",
"'.	c #1E5A4A",
").	c #605626",
"!.	c #6E86EE",
"~.	c #566E76",
"{.	c #86522C",
"].	c #162A16",
"^.	c #A29252",
"/.	c #1E6215",
"(.	c #7E6652",
"_.	c #88826E",
":.	c #5E76E3",
"<.	c #807EDC",
"[.	c #535DDB",
"}.	c #6E9666",
"|.	c #5236E6",
"1.	c #665226",
"2.	c #2E724E",
"3.	c #9EA286",
"4.	c #968E7A",
"5.	c #231E1F",
"6.	c #7A9EB2",
"7.	c #4C5BD6",
"8.	c #965A30",
"9.	c #CACECA",
"0.	c #605842",
"a.	c #A266DE",
"b.	c #4D36E6",
"c.	c #2A2E16",
"d.	c #426A32",
"e.	c #553AEE",
"f.	c #427E9C",
"g.	c #A68A6E",
"h.	c #82522E",
"i.	c #5864D2",
"j.	c #624BE6",
"k.	c #9A96EE",
"l.	c #6E6EF6",
"m.	c #6A72D6",
"n.	c #126212",
"o.	c #2380AC",
"p.	c #8985DD",
"q.	c #A69E6E",
"r.	c #B66E6A",
"s.	c #7E8A6B",
"t.	c #C2BE9E",
"u.	c #326E2B",
"v.	c #5E46DE",
"w.	c #8A865A",
"x.	c #555EEF",
"y.	c #22749E",
"z.	c #462AE4",
"A.	c #567266",
"B.	c #5A56E2",
"C.	c #866EC2",
"D.	c #7775E1",
"E.	c #A66AFE",
"F.	c #8AA29E",
"G.	c #CAAE8E",
"H.	c #765EB6",
"I.	c #535CD6",
"J.	c #5E66E2",
"K.	c #524E46",
"L.	c #627666",
"M.	c #92968E",
"N.	c #B6AF93",
"O.	c #E0DCB4",
"P.	c #7E4626",
"Q.	c #8B582F",
"R.	c #5636F9",
"S.	c #7D4E2C",
"T.	c #5663EB",
"U.	c #6A4A26",
"V.	c #462EE6",
"W.	c #CDBB9A",
"X.	c #2A6E0E",
"Y.	c #0E220E",
"Z.	c #9E6E46",
"`.	c #4E36F6",
" +	c #366E3E",
".+	c #625EEA",
"++	c #6A5AFE",
"@+	c #8E8EDA",
"#+	c #8E866E",
"$+	c #DAD2BA",
"%+	c #4E5BDD",
"&+	c #228ABE",
"*+	c #166214",
"=+	c #8EAE9E",
"-+	c #828670",
";+	c #56723E",
">+	c #708FEC",
",+	c #5B3BEC",
"'+	c #AA9E6A",
")+	c #768470",
"!+	c #B676FC",
"~+	c #535EE8",
"{+	c #2A4626",
"]+	c #B25E3A",
"^+	c #9E9ABA",
"/+	c #5646F3",
"(+	c #767E66",
"_+	c #9E926A",
":+	c #B89E84",
"<+	c #B62E4E",
"[+	c #5252F2",
"}+	c #6A96A6",
"|+	c #4A5A3E",
"1+	c #1E2E1A",
"2+	c #4A2EE9",
"3+	c #768A7A",
"4+	c #828A6E",
"5+	c #5A36EE",
"6+	c #744B29",
"7+	c #525ED2",
"8+	c #9088EC",
"9+	c #4A62D6",
"0+	c #62624E",
"a+	c #B60A0A",
"b+	c #2E7896",
"c+	c #824E2C",
"d+	c #7E5E9E",
"e+	c #9A968E",
"f+	c #A262FA",
"g+	c #366E7E",
"h+	c #968A4E",
"i+	c #6672D6",
"j+	c #969A76",
"k+	c #725A42",
"l+	c #5E44EC",
"m+	c #7C72FE",
"n+	c #5436ED",
"o+	c #D8D7CB",
"p+	c #4433EB",
"q+	c #4F55DC",
"r+	c #6A69F7",
"s+	c #5636BA",
"t+	c #765EBA",
"u+	c #8E664E",
"v+	c #A49A84",
"w+	c #754528",
"x+	c #765232",
"y+	c #D6BC98",
"z+	c #D5C9A9",
"A+	c #767E7A",
"B+	c #6A72E2",
"C+	c #42763A",
"D+	c #7E866E",
"E+	c #567A4A",
"F+	c #865A3E",
"G+	c #4D32EA",
",.,.,.,.,.,.4+4+4+4+4+4+4+4+4+4+4+4+4+4+4+4+4+4+4+4+4+4+s.4+4+D+",
"4+4+4+4+4+4+,.,.,.,.,.,.4+s.0+0.0.(+s.4+4+s.s.s.s.s.s.s.-+D+s.4+",
",.,.,.4+4+4+4+4+4+4+4+s.4+| 5.k+_+_.4+s.-+-+-+-+-+-+-+s.s.-+s.D+",
"4+4+4+,.4+4+4+4+4+4+4+4+s.#+Y g.z+N.s.4+s.s.s.s.s.s.s.D+D+s.-+)+",
"4+4+4+,.4+4+4+4+s.s.4+4+s.)+4.y+Q 6 s.4+4+s.s.D+D+D+s.4+s.4+-+(+",
"4+4+4+4+,.4+4+s.4+4+4+4+)+g+b+F.Q 3.-+s.s.-+-+s.s.s.-+D+-+s.s.(+",
",.4+4+4+4+s.4+4+4+s.4+S e f.*.- O +.4+-+s.s.-+w.D+s.s.s.-+-+D+| ",
"4+,.4+4+s.4+4+4+4+4+)+e A+z+j =.*.3+D+s.D+D+s.s.s.D+D+D+s.s.-+| ",
"4+4+4+4+4+s.s.s.4+4+L.e :+o+6.o.=.w D+s.s.D+D+D+4+4+s.D+s.s.D+| ",
"4+4+4+4+4+4+4+4+4+4+~.~.W.o+f.o.&+w s.w.D+s.s.s.D+s.D+s.D+-+D+| ",
"E+E+E+E+C E+D C+C+C+ +_.Q u y.y.o.2.u.u.u.u.u.X.u.u.%./.{+t E |+",
"n.n.n.n.n.n.n.n.*+n.G N.o+}+y.&++ n.#.#.#.#.#.#.#.#.n.#.* * ].].",
"*+n.n.n.n.n.n.n.n.*+;+y+o+b+o.o.=+d }.{ 2.X.#.n.n.n.n.#.* * * * ",
"n.*+n.n.n.n.n.n.n.#.@.:+$+w + - 4.'+G.W.z+t.=+n.n.#.#.#.].* * * ",
"n.*+*+*+*+*+n.n.n.n.c (.W.9.N '.*+*+G @.C w.{ n.n.n.n.K ].* ].* ",
"n.n.n.n.n.n.n.n.n.#.Y.5.% z+e+1+#.#.*+a n.n.n.#.n.n.n.K ].].* * ",
"n.n.n.n.n.n.n.n.n.#.. . ..z+Q f #.n.*+X.n.#.n.#.#.#.n.p * * ].* ",
"/././.#.s s s s s s c.. t.O.O.j+] ] h h ).).1.).).).1.U.' [ ; ].",
"S.h.1 6+h.h.S.S.6+6+6+5.K.3._.P c+P.w+6+6+S.6+6+S.V S.x+h.S.6+6+",
"S.V V c+V w+w+h.Q.F+S.` 5.5.& a+# a+F w+S.S.S.V V S.P.6+V h.F+1 ",
"d+3 m m t+H.7 s+A I B > b } o i a+~ Q.6+r w+V c+V V V c+c+{.{.Q.",
"|.|.G+b.b.p+L |.|.L ,+b.l+E.!+M <+r.]+8.1 {.{.V V {.{.S.V w+6+S.",
"2+G+|.b.x x x x x L L p+L f+!+!+< T a.n u+{.Q.Q.Q.{.Q.Q.Q.c+V P.",
"b.|.L |.L b.2+p+p+p+p+p+2 ++m+m+l+R.G+G+2 C...Q.{.{.1 8.8.Z.J J ",
"L e.L L L L ,+j.j.v..+ .q 8+U k.0  .>.>.q D.>.U ^+N.q.'+v ^.8 ^.",
"p.p.<.p.@+@+<.l l m.Z 7.l >+>+7+7.q+$ 7.( q+[.x.%+W 9 M.: / / / ",
"l i.I.7.I.7+7+7+[.7+) = , >+:.;.$ 7+I.7.7.;.;.%+x.x.T.T.B+k H : ",
"7.m.m.7+I.I.[.I.I.I.) = , >+:., 7+$ $ %+%+( ;.;.$ %+%+~+x.~+T.9 ",
"$ $ i.l i.[.[.I.;.$ ) = !.:.7+$ 7.q+q+( q+[+q+q+4 4 $.$.4 /+/+/+",
"I.q+( 4 i+B B.B.4 $.g [+r+r+r+.+&.p+x G+G+G+2+n+G+n+n+5+5+n+R.R.",
"e.,+x z.z.,+I ,+,+e.@ p+V.z.G+`.e.`.|.G+2+G+n+2+2+n+G+n+R.,+e.e.",
"n+R.e.L p+V.V.&.j.n+@ `.`.n+n+G+2+,+G+n+G+2+2+2+2+z.G+2+G+n+5+5+"};
