/* XPM */
static char * dbgui_16x16_xpm[] = {
"16 16 168 2",
"  	c None",
". 	c #010102",
"+ 	c #403E2F",
"@ 	c #404040",
"# 	c #7A7654",
"$ 	c #F8F0AC",
"% 	c #3D3B2B",
"& 	c #3E3C30",
"* 	c #F8F4CF",
"= 	c #FBF9E5",
"- 	c #807F7B",
"; 	c #746E44",
"> 	c #EADE8C",
", 	c #D6C878",
"' 	c #C6BE34",
") 	c #F6EEBF",
"! 	c #F8F3CD",
"~ 	c #F4EAAA",
"{ 	c #F5EFBD",
"] 	c #7D7B6A",
"^ 	c #A59954",
"/ 	c #D8C96C",
"( 	c #DACA6C",
"_ 	c #BCAC5C",
": 	c #A29832",
"< 	c #9B9B04",
"[ 	c #A8A804",
"} 	c #D2C570",
"| 	c #CDBF6E",
"1 	c #DFD9AF",
"2 	c #F6F0C7",
"3 	c #F0E492",
"4 	c #B8B490",
"5 	c #403C27",
"6 	c #918645",
"7 	c #5E5422",
"8 	c #5C590C",
"9 	c #6A660B",
"0 	c #777409",
"a 	c #808008",
"b 	c #ADA358",
"c 	c #A9A056",
"d 	c #A59C54",
"e 	c #A19852",
"f 	c #C4BF9D",
"g 	c #AEA362",
"h 	c #9E9662",
"i 	c #D1C474",
"j 	c #756E30",
"k 	c #48450E",
"l 	c #504C0B",
"m 	c #8D8545",
"n 	c #8C8649",
"o 	c #7E773A",
"p 	c #9B9260",
"q 	c #DED7BA",
"r 	c #918F7D",
"s 	c #6D6C65",
"t 	c #A8A486",
"u 	c #C2BB88",
"v 	c #CCC58E",
"w 	c #69633A",
"x 	c #403A13",
"y 	c #545346",
"z 	c #818183",
"A 	c #9C9572",
"B 	c #A29C6D",
"C 	c #60580D",
"D 	c #423C0E",
"E 	c #80807F",
"F 	c #FEFCEE",
"G 	c #E4E0C5",
"H 	c #C0BFA4",
"I 	c #6F6F69",
"J 	c #B9B9B7",
"K 	c #6B6B6A",
"L 	c #716C1C",
"M 	c #777511",
"N 	c #405B5D",
"O 	c #000000",
"P 	c #808075",
"Q 	c #FEFCE5",
"R 	c #FEFBD9",
"S 	c #FEFAD4",
"T 	c #716F68",
"U 	c #C2C2C0",
"V 	c #A8A8A7",
"W 	c #7C7C7B",
"X 	c #363634",
"Y 	c #504F10",
"Z 	c #74989B",
"` 	c #294E45",
" .	c #243434",
"..	c #2D3938",
"+.	c #807F73",
"@.	c #FEFACD",
"#.	c #777669",
"$.	c #DFDFE1",
"%.	c #BFBFBE",
"&.	c #565654",
"*.	c #A28A63",
"=.	c #4E4E10",
"-.	c #4D4C10",
";.	c #A8DBDD",
">.	c #6F9E9B",
",.	c #97D0D1",
"'.	c #132627",
").	c #807E6A",
"!.	c #FEFAC4",
"~.	c #FEF9BC",
"{.	c #505052",
"].	c #C3C3C4",
"^.	c #747473",
"/.	c #6D5E4C",
"(.	c #DDBF92",
"_.	c #866944",
":.	c #486466",
"<.	c #59A1A3",
"[.	c #28504F",
"}.	c #112323",
"|.	c #807E60",
"1.	c #FEF8B1",
"2.	c #BEB97B",
"3.	c #707172",
"4.	c #4C4C4B",
"5.	c #767511",
"6.	c #5C552E",
"7.	c #E3C6A1",
"8.	c #866C47",
"9.	c #283624",
"0.	c #34320D",
"a.	c #020204",
"b.	c #010103",
"c.	c #807C5C",
"d.	c #FEF9AE",
"e.	c #FEF7A2",
"f.	c #FEF696",
"g.	c #BEB86F",
"h.	c #BEB866",
"i.	c #717011",
"j.	c #83ADAF",
"k.	c #505B51",
"l.	c #DEBF94",
"m.	c #836641",
"n.	c #1B1B0C",
"o.	c #403E29",
"p.	c #BFB973",
"q.	c #FEF68D",
"r.	c #FEF57E",
"s.	c #BEB863",
"t.	c #7AA1A1",
"u.	c #5A9DA1",
"v.	c #4E4727",
"w.	c #DABC92",
"x.	c #846842",
"y.	c #403D1D",
"z.	c #7F7A3D",
"A.	c #80A8A9",
"B.	c #5A9DA0",
"C.	c #0B1A1B",
"D.	c #1E1E0C",
"E.	c #30271A",
"F.	c #CAA674",
"G.	c #6C5425",
"H.	c #3E5E61",
"I.	c #0B1A1A",
"J.	c #292111",
"K.	c #241B0D",
"          . +     @ .           ",
"      . # $ $ % & * = - .       ",
"  . ; > > > , ' ) ! ~ { * ] .   ",
"  ^ / ( _ : < [ } | 1 2 3 ~ 4   ",
"  5 6 7 8 9 0 a b c d e f g @   ",
"    h i j k l 8 m n o p q r     ",
"    s t u v w x y z A B C D     ",
"    E F G t H I J J K L M N O   ",
"    P Q R S T U V W X Y Z `  ...",
"    +.S @.#.$.%.&.*.=.-.;.>.,.'.",
"    ).!.~.{.].^./.(._.:.<.[.}.  ",
"    |.~.1.2.3.4.5.6.7.8.9.0.a.b.",
"    c.d.e.f.g.h.i.j.k.l.m.n.b.  ",
"      o.p.q.r.s.t.u.9.v.w.x.    ",
"          y.z.A.B.C.D.  E.F.G.  ",
"              H.I.        J.K.  "};
