/* XPM */
static char * excel_16x16_xpm[] = {
"14 14 3 1",
" 	c None",
".	c #008000",
"+	c #FFFFFF",
"..............",
".+++++++++++..",
".+++++++++++..",
".++...+....+..",
".+++......++..",
".++++....+++..",
".+++.+...+++..",
".++...+....+..",
".+.....+...+..",
".+............",
".+++++++++++..",
".+++++++++++..",
"..............",
".............."};
