/* XPM */
static char * frozen_bubble_16x16_xpm[] = {
"16 16 256 2",
"  	c None",
". 	c #1E1E1E",
"+ 	c #C9A359",
"@ 	c #564E42",
"# 	c #F2F2F2",
"$ 	c #9A7E3E",
"% 	c #F2D69E",
"& 	c #EECE8A",
"* 	c #888684",
"= 	c #A3A2A3",
"- 	c #E6C27A",
"; 	c #826A36",
"> 	c #4B2A52",
", 	c #C2BFC2",
"' 	c #BA964A",
") 	c #B2A282",
"! 	c #B29E76",
"~ 	c #F4CAF2",
"{ 	c #4E422A",
"] 	c #8F658D",
"^ 	c #7E5A7A",
"/ 	c #E2C27E",
"( 	c #8A7E5E",
"_ 	c #56365A",
": 	c #B67AB2",
"< 	c #F6DEA6",
"[ 	c #B6AE96",
"} 	c #454545",
"| 	c #726458",
"1 	c #DAC28E",
"2 	c #BA86B6",
"3 	c #DECA9A",
"4 	c #724E6E",
"5 	c #766377",
"6 	c #B286AE",
"7 	c #DCD6DA",
"8 	c #9A7696",
"9 	c #F6E6C2",
"0 	c #B2A692",
"a 	c #E2C6DE",
"b 	c #5A4A5E",
"c 	c #DAA2D6",
"d 	c #969296",
"e 	c #CEBA9A",
"f 	c #A692AB",
"g 	c #443A46",
"h 	c #FBD7FA",
"i 	c #D6AED6",
"j 	c #C6C6C6",
"k 	c #787178",
"l 	c #9B869D",
"m 	c #524E52",
"n 	c #7E7A72",
"o 	c #342038",
"p 	c #8A7E6A",
"q 	c #644E64",
"r 	c #EEC2EA",
"s 	c #D6C6D6",
"t 	c #B68AB2",
"u 	c #CAA6CA",
"v 	c #5E3666",
"w 	c #BBBABB",
"x 	c #E4E2E4",
"y 	c #B4AEB5",
"z 	c #5E5A5E",
"A 	c #4A464A",
"B 	c #DA9AD6",
"C 	c #724676",
"D 	c #8C768D",
"E 	c #706E70",
"F 	c #F6F6F6",
"G 	c #725E76",
"H 	c #C7B2C9",
"I 	c #DED2B2",
"J 	c #39263B",
"K 	c #BAAEBA",
"L 	c #B2A6B4",
"M 	c #A696A8",
"N 	c #CCAE72",
"O 	c #D4CAD4",
"P 	c #BA8EBA",
"Q 	c #876D88",
"R 	c #DEB2DE",
"S 	c #926A92",
"T 	c #624262",
"U 	c #9A989A",
"V 	c #F6DAF6",
"W 	c #E8B6E6",
"X 	c #EBEBEB",
"Y 	c #626262",
"Z 	c #45294B",
"` 	c #523656",
" .	c #BAB2BE",
"..	c #968B97",
"+.	c #C6C2C7",
"@.	c #6E566E",
"#.	c #826482",
"$.	c #FAFAFA",
"%.	c #DAD2C2",
"&.	c #9A8A9A",
"*.	c #A672A6",
"=.	c #62366A",
"-.	c #BA96B6",
";.	c #C6A2C6",
">.	c #8A7A8E",
",.	c #562E60",
"'.	c #ACAAAC",
").	c #AA9EAE",
"!.	c #C6B6CA",
"~.	c #F4CEF2",
"{.	c #827F82",
"].	c #372D39",
"^.	c #6E6A62",
"/.	c #F6E6CE",
"(.	c #44224A",
"_.	c #826E88",
":.	c #C6AA76",
"<.	c #D2CED2",
"[.	c #DEB66A",
"}.	c #8F8A8E",
"|.	c #725A72",
"1.	c #D6B6D6",
"2.	c #ACA2AE",
"3.	c #ECD0EA",
"4.	c #6A5A3E",
"5.	c #B6AABA",
"6.	c #56415B",
"7.	c #CDBECE",
"8.	c #68466E",
"9.	c #82726E",
"0.	c #977D97",
"a.	c #BFB2BE",
"b.	c #643E62",
"c.	c #666666",
"d.	c #6E5270",
"e.	c #827682",
"f.	c #E2DEE1",
"g.	c #CECACF",
"h.	c #8A7A5A",
"i.	c #A28D9E",
"j.	c #595758",
"k.	c #625E62",
"l.	c #D6D2D6",
"m.	c #6A626A",
"n.	c #C69AC6",
"o.	c #623B6A",
"p.	c #BCA2BC",
"q.	c #D2BAD2",
"r.	c #A09EA0",
"s.	c #625666",
"t.	c #B29AB2",
"u.	c #7E6A82",
"v.	c #5E3E60",
"w.	c #664266",
"x.	c #4C3A50",
"y.	c #845882",
"z.	c #512F59",
"A.	c #716773",
"B.	c #B6B6B6",
"C.	c #91718F",
"D.	c #846E4A",
"E.	c #A89C8A",
"F.	c #B19EB4",
"G.	c #7A517D",
"H.	c #BEB6BF",
"I.	c #7E6E76",
"J.	c #AA8EAA",
"K.	c #6E5D6D",
"L.	c #D7BDD6",
"M.	c #AA82A6",
"N.	c #EABEEA",
"O.	c #B69EB6",
"P.	c #90868E",
"Q.	c #FCC8F8",
"R.	c #7C627C",
"S.	c #AA96AE",
"T.	c #DACEDA",
"U.	c #663A6E",
"V.	c #685668",
"W.	c #A09AA0",
"X.	c #CDC2CF",
"Y.	c #524A4A",
"Z.	c #9E7E9C",
"`.	c #9F92A1",
" +	c #D6B26A",
".+	c #FEE6BA",
"++	c #BEAA82",
"@+	c #E2AEDE",
"#+	c #C1AEC4",
"$+	c #E2DAE2",
"%+	c #927A92",
"&+	c #FADE9E",
"*+	c #D6AAD6",
"=+	c #8A728E",
"-+	c #FEFEFE",
";+	c #9D8E9F",
">+	c #C8BACB",
",+	c #36322E",
"'+	c #ABA6AB",
")+	c #96829A",
"!+	c #8A5E86",
"~+	c #6C4276",
"{+	c #C2B2C6",
"]+	c #F2EEF2",
"^+	c #655267",
"/+	c #683E71",
"(+	c #FAD2FA",
"_+	c #A6A6A7",
":+	c #928E91",
"<+	c #92768E",
"[+	c #B9A6BC",
"}+	c #907E92",
"|+	c #604666",
"1+	c #BAAAB6",
"2+	c #C2BAC6",
"3+	c #4C3E4E",
"4+	c #CEC6D2",
"5+	c #7A5E7C",
"6+	c #8A6686",
"7+	c #726276",
"8+	c #B28CAE",
"9+	c #A28EA5",
"0+	c #514753",
"a+	c #DDDADD",
"b+	c #593261",
"c+	c #CECECE",
"d+	c #7B6679",
"e+	c #7B7A7D",
"f+	c #9E8AA6",
"g+	c #7F7181",
"h+	c #BDAAC1",
"i+	c #5E5242",
"j+	c #FEEAC2",
"k+	c #EAC6E6",
"l+	c #6A4E6A",
"m+	c #F6BEF2",
"n+	c #D2AAD2",
"o+	c #927E52",
"p+	c #8A5A86",
"q+	c #967296",
"r+	c #B282AE",
"s+	c #BE9EBA",
"t+	c #D2C2D2",
"u+	c #867E8A",
"v+	c #5C3A64",
"w+	c #744A78",
"x+	c #727272",
"y+	c #BAB6BA",
"z+	c #F2D2EE",
"A+	c #867A86",
"B+	c #604A66",
"C+	c #E6E6E6",
"D+	c #AC9AAE",
"E+	c #DCD2DD",
"F+	c #665A6A",
"G+	c #725078",
"                                ",
"          2.g.                  ",
"      _.A+'+7 L `.              ",
"      '.-+-+e+$+>+2.            ",
"  C+X -+-+} F K X.h+>.          ",
"  -+= -+-+C+-+).#+#+[+k.        ",
"  * {.x -+-+_+F.J.#+q.>+}.      ",
"  E.N e n @ s.u.^+f+q.E+2+W.    ",
"  4./ .+I p B y.6.3+A.f D+}+    ",
"  A + N 9.N.Q.2 b.G+|+o 6.u.    ",
"  n !+*+h h r 2 w./+w+U.=.      ",
"    ^ *+L.q.p.q+b.=.Z s.Z       ",
"    _+3+Z.K.Z.5+z.g+{+T.f.g.    ",
"d f.<.* o ` v./+x.R.&.[+#+D+M   ",
"                                ",
"                                "};
