/* XPM */
static char * gabber_32x32_xpm[] = {
"32 32 176 2",
"  	c None",
". 	c #000000",
"+ 	c #554823",
"@ 	c #806C34",
"# 	c #806A32",
"$ 	c #806830",
"% 	c #7A622A",
"& 	c #755C23",
"* 	c #745B22",
"= 	c #725A20",
"- 	c #4C3C16",
"; 	c #FFD769",
"> 	c #FFD465",
", 	c #FFD161",
"' 	c #F4C554",
") 	c #EAB946",
"! 	c #E7B644",
"~ 	c #E4B441",
"{ 	c #BFA352",
"] 	c #FFDB6E",
"^ 	c #FFD86B",
"/ 	c #FFD668",
"( 	c #F8CB5B",
"_ 	c #F2C04E",
": 	c #E9B946",
"< 	c #E1B13E",
"[ 	c #A6822C",
"} 	c #6C541A",
"| 	c #483812",
"1 	c #FFDF74",
"2 	c #FFDD71",
"3 	c #FCD262",
"4 	c #F9C857",
"5 	c #ECBB49",
"6 	c #DEAE3B",
"7 	c #DAAA38",
"8 	c #D7A735",
"9 	c #FFE588",
"0 	c #FFEFA2",
"a 	c #FFE78C",
"b 	c #FFE074",
"c 	c #FED769",
"d 	c #FCCE5E",
"e 	c #F2C251",
"f 	c #DEAD3B",
"g 	c #D4A432",
"h 	c #9C7924",
"i 	c #654E15",
"j 	c #43340E",
"k 	c #FFFFD1",
"l 	c #FFF2A6",
"m 	c #FFE47B",
"n 	c #FFDC70",
"o 	c #F8CA59",
"p 	c #F0BF4D",
"q 	c #E0B03E",
"r 	c #D1A12F",
"s 	c #CE9E2C",
"t 	c #CA9B2A",
"u 	c #FFEEA1",
"v 	c #FFF1A5",
"w 	c #FFE279",
"x 	c #FFDA6E",
"y 	c #FFD263",
"z 	c #F6C856",
"A 	c #EEBC4A",
"B 	c #E0AF3D",
"C 	c #D2A230",
"D 	c #CD9D2C",
"E 	c #C89828",
"F 	c #644C14",
"G 	c #FFEDA0",
"H 	c #FFF0A4",
"I 	c #FFE177",
"J 	c #FFD96C",
"K 	c #F5C654",
"L 	c #EBBA47",
"M 	c #DFAE3C",
"N 	c #D3A331",
"O 	c #CC9C2C",
"P 	c #C59626",
"Q 	c #624B13",
"R 	c #FEDE7F",
"S 	c #FFEA9B",
"T 	c #FFE184",
"U 	c #FACF60",
"V 	c #ECBC4A",
"W 	c #E2B240",
"X 	c #E3B341",
"Y 	c #E4B442",
"Z 	c #D2A333",
"` 	c #C19224",
" .	c #604912",
"..	c #E8B746",
"+.	c #F5C453",
"@.	c #D9A93A",
"#.	c #BD8E21",
"$.	c #5E4710",
"%.	c #E0B040",
"&.	c #EBBC4B",
"*.	c #F5C655",
"=.	c #E5B442",
"-.	c #F1C555",
";.	c #FAD265",
">.	c #DAAF42",
",.	c #BA8C1F",
"'.	c #5D4610",
").	c #D6A635",
"!.	c #C89929",
"~.	c #ECBB48",
"{.	c #ECBA48",
"].	c #DBB54A",
"^.	c #B7891D",
"/.	c #5C440E",
"(.	c #A17D28",
"_.	c #D0A02F",
":.	c #D4A433",
"<.	c #D9A938",
"[.	c #E7B745",
"}.	c #F1C656",
"|.	c #ECC75A",
"1.	c #F3CD5F",
"2.	c #EAC458",
"3.	c #9B7D2C",
"4.	c #3D2E0A",
"5.	c #CE9F2E",
"6.	c #C69727",
"7.	c #E2B343",
"8.	c #FFCF5F",
"9.	c #FFDA6D",
"0.	c #9A7622",
"a.	c #C89928",
"b.	c #D5A636",
"c.	c #E2B242",
"d.	c #EDC253",
"e.	c #F8D264",
"f.	c #E9C357",
"g.	c #DAAA3A",
"h.	c #D4A435",
"i.	c #926E1B",
"j.	c #BE9022",
"k.	c #C7982A",
"l.	c #D0A033",
"m.	c #967221",
"n.	c #B4861B",
"o.	c #B08219",
"p.	c #58410C",
"q.	c #2E2207",
"r.	c #5A430E",
"s.	c #2C2006",
"t.	c #202020",
"u.	c #404040",
"v.	c #535353",
"w.	c #666666",
"x.	c #383838",
"y.	c #303030",
"z.	c #181818",
"A.	c #818181",
"B.	c #A6A6A6",
"C.	c #CCCCCC",
"D.	c #707070",
"E.	c #606060",
"F.	c #686868",
"G.	c #8E8E8E",
"H.	c #777777",
"I.	c #484848",
"J.	c #282828",
"K.	c #515151",
"L.	c #3F3F3F",
"M.	c #444444",
"N.	c #888888",
"O.	c #747474",
"P.	c #C0C0C0",
"Q.	c #A0A0A0",
"R.	c #505050",
"S.	c #2B2B2B",
"                                                                ",
"                                                                ",
"                          . . . . . . .                         ",
"                        . . . . . . . . .                       ",
"                      . + @ # $ % & * = - .                     ",
"                    . . @ ; > , ' ) ! ~ = . .                   ",
"                  . + @ { ] ^ / ( _ : < [ } | .                 ",
"                . . @ ; ] 1 2 ] 3 4 5 6 7 8 } . .               ",
"              . + @ { ] 9 0 a b c d e ! f g h i j .             ",
"            . . @ ; ] 1 0 k l m n > o p q r s t i . .           ",
"            . . # > ^ 2 u k v w x y z A B C D E F . .           ",
"            . . $ , / ] G k H I J , K L M N O P Q . .           ",
"            . . % ' ( 3 R S T J U K V W X Y Z `  .. .           ",
"            . . & ) _ 4 d > y , K L W 7 ..+.@.#.$.. .           ",
"            . . * ! Y %.&.z *.K V W =...-.;.>.,.'.. .           ",
"            . . = ~ ).!.7 ~.{.L W 7 ..+.;.I ].^./.. .           ",
"              . - = (._.:.<.[.+.}.|.1.;.2.].3./.4..             ",
"                . . } 8 5.6.7.8.9.m w I ].^./.. .               ",
"                  . | } 0.a.b.c.d.e.f.].3./.4..                 ",
"                    . . i t E P g.p h.^./.. .                   ",
"                      . j i i.j.k.l.m./.4..                     ",
"                        . . /.^.n.o.p.. .                       ",
"                      . . . q./.r.p.s.. . .                     ",
"                    . . . . . . . . . . . . .                   ",
"                    . . t.u.v.w.v.u.x.y.z.. .                   ",
"                    . . u.A.B.C.B.A.D.E.y.. .                   ",
"                    . . t.u.F.G.H.E.I.y.z.. .                   ",
"                    . . . . J.K.I.L.t.. . . .                   ",
"                      . . . M.N.O.E.y.. . .                     ",
"                        . . E.P.Q.A.u.. .                       ",
"                          . u.E.R.u.S..                         ",
"                            . . . . .                           "};
