/* XPM */
static char * galeon_32x32_xpm[] = {
"32 32 240 2",
"  	c None",
". 	c #C0BBB7",
"+ 	c #E8E7E7",
"@ 	c #D6D1CC",
"# 	c #6F655E",
"$ 	c #D3D1CF",
"% 	c #B6AFA9",
"& 	c #C0BEBC",
"* 	c #E6E5E3",
"= 	c #C2BCB8",
"- 	c #6C625A",
"; 	c #141210",
"> 	c #E3E1DF",
", 	c #C2BAB3",
"' 	c #5C5148",
") 	c #B8B5B3",
"! 	c #DAD5D2",
"~ 	c #A89D94",
"{ 	c #6B6056",
"] 	c #090807",
"^ 	c #B9B1AA",
"/ 	c #A99E95",
"( 	c #473F38",
"_ 	c #2F2A26",
": 	c #87807A",
"< 	c #A69B92",
"[ 	c #897A6F",
"} 	c #554B43",
"| 	c #020202",
"1 	c #8D8076",
"2 	c #665B53",
"3 	c #161311",
"4 	c #080706",
"5 	c #332E29",
"6 	c #5C524A",
"7 	c #4E453E",
"8 	c #1F1C18",
"9 	c #000000",
"0 	c #C1BEBC",
"a 	c #2D2824",
"b 	c #14110F",
"c 	c #201C19",
"d 	c #1E1B18",
"e 	c #070606",
"f 	c #DFDFDE",
"g 	c #CFCBC7",
"h 	c #635A53",
"i 	c #B9B3AF",
"j 	c #8E8780",
"k 	c #37322D",
"l 	c #617977",
"m 	c #5C787C",
"n 	c #748473",
"o 	c #748069",
"p 	c #6C795C",
"q 	c #776C64",
"r 	c #645A52",
"s 	c #12100E",
"t 	c #7B99B1",
"u 	c #8A9EA1",
"v 	c #799393",
"w 	c #889989",
"x 	c #939F80",
"y 	c #8A9875",
"z 	c #7B8968",
"A 	c #697251",
"B 	c #292421",
"C 	c #6A91B4",
"D 	c #9CB4BC",
"E 	c #DDDFC9",
"F 	c #E4E6CD",
"G 	c #C7CFBF",
"H 	c #607683",
"I 	c #4F5556",
"J 	c #5A564A",
"K 	c #36352F",
"L 	c #090806",
"M 	c #D8D6D4",
"N 	c #59534D",
"O 	c #C1D0CB",
"P 	c #F3F4D1",
"Q 	c #F6F6DD",
"R 	c #F6F5DA",
"S 	c #BCBCA1",
"T 	c #202321",
"U 	c #060707",
"V 	c #070707",
"W 	c #0C0C0B",
"X 	c #CFCAC6",
"Y 	c #C5BEB8",
"Z 	c #5F554C",
"` 	c #98B2BF",
" .	c #EEF0DB",
"..	c #F8F7E3",
"+.	c #F9F8DB",
"@.	c #C0C0A5",
"#.	c #1B1B17",
"$.	c #050504",
"%.	c #685F58",
"&.	c #645B54",
"*.	c #4274A7",
"=.	c #92ACB1",
"-.	c #D3D7AD",
";.	c #F1F0C3",
">.	c #F9F9D2",
",.	c #757567",
"'.	c #4578AC",
").	c #6E98B6",
"!.	c #9BB1A9",
"~.	c #A2B6A5",
"{.	c #B4C6A1",
"].	c #424A3D",
"^.	c #080907",
"/.	c #28363E",
"(.	c #263E4F",
"_.	c #294050",
":.	c #2F4452",
"<.	c #4478AC",
"[.	c #5188BC",
"}.	c #598DBB",
"|.	c #608EB3",
"1.	c #83A2A0",
"2.	c #323D34",
"3.	c #2D3B43",
"4.	c #4F5D5E",
"5.	c #5E6A65",
"6.	c #4F6265",
"7.	c #3E5057",
"8.	c #404E54",
"9.	c #455158",
"0.	c #495255",
"a.	c #4175A8",
"b.	c #4D83B8",
"c.	c #5085B7",
"d.	c #5684AD",
"e.	c #839BA1",
"f.	c #444639",
"g.	c #6E7265",
"h.	c #676A5B",
"i.	c #99926F",
"j.	c #878E79",
"k.	c #505D5E",
"l.	c #475454",
"m.	c #4A585E",
"n.	c #68737B",
"o.	c #3E6EA1",
"p.	c #4A7CB0",
"q.	c #4C7DAE",
"r.	c #4F7DA7",
"s.	c #7492A5",
"t.	c #97998A",
"u.	c #514C3B",
"v.	c #161410",
"w.	c #282A27",
"x.	c #505C59",
"y.	c #32495C",
"z.	c #294156",
"A.	c #2A4153",
"B.	c #3F505C",
"C.	c #39689A",
"D.	c #4372A5",
"E.	c #4574A2",
"F.	c #4B749A",
"G.	c #8FA0A2",
"H.	c #C5BB95",
"I.	c #3B372A",
"J.	c #1F364B",
"K.	c #244059",
"L.	c #203E57",
"M.	c #203C57",
"N.	c #1F3141",
"O.	c #335F8F",
"P.	c #3C699A",
"Q.	c #3E6B99",
"R.	c #466D93",
"S.	c #959F98",
"T.	c #D6CA99",
"U.	c #958E67",
"V.	c #253F56",
"W.	c #1E3C56",
"X.	c #213A52",
"Y.	c #17232D",
"Z.	c #2F5885",
"`.	c #35608B",
" +	c #396189",
".+	c #6E8692",
"++	c #EEDDA6",
"@+	c #CCC08C",
"#+	c #848060",
"$+	c #323D42",
"%+	c #525B5C",
"&+	c #2E465D",
"*+	c #22405B",
"=+	c #1F3C57",
"-+	c #1F3C54",
";+	c #1E3346",
">+	c #22466B",
",+	c #2A537D",
"'+	c #2E567F",
")+	c #496982",
"!+	c #CFC598",
"~+	c #CFBA88",
"{+	c #848170",
"]+	c #324C5F",
"^+	c #31485C",
"/+	c #3D4D5B",
"(+	c #25405D",
"_+	c #223E59",
":+	c #1D3B55",
"<+	c #1D3A53",
"[+	c #101E2A",
"}+	c #203C5C",
"|+	c #25476A",
"1+	c #254B76",
"2+	c #415D7C",
"3+	c #4B5C72",
"4+	c #2C4666",
"5+	c #204066",
"6+	c #1F3F5D",
"7+	c #213E59",
"8+	c #213F58",
"9+	c #1D3B56",
"0+	c #1B3750",
"a+	c #10202F",
"b+	c #1B324F",
"c+	c #1D3C65",
"d+	c #1E406D",
"e+	c #1E406A",
"f+	c #1F3F61",
"g+	c #1F3E5D",
"h+	c #203E58",
"i+	c #1F3E5B",
"j+	c #1A364C",
"k+	c #0C1924",
"l+	c #13263D",
"m+	c #18304D",
"n+	c #1A344F",
"o+	c #1B344A",
"p+	c #172E46",
"q+	c #0E1E2D",
"                                                                ",
"                                                                ",
"                            .                                   ",
"                          + @ #                                 ",
"                $ %     & * = - ;                               ",
"                > , '   ) ! ~ { ]                               ",
"                ^ / ( _ : < [ } |                               ",
"                1 2 3 4 5 6 7 8 9                               ",
"            0   a b       c d e                                 ",
"          f g h                                                 ",
"          i j k               l m n o p                         ",
"          q r s           t u v w x y z A                       ",
"            B         C D E F G H I J K L                       ",
"          M N         O P Q R S T U V W                         ",
"        X Y Z       `  ...+.@.#.$.                              ",
"        %.&.      *.=.-.;.>.,.|                                 ",
"                  '.).!.~.{.].^.        /.(.(._.:.              ",
"                  <.[.}.|.1.2.      3.4.5.6.7.8.9.0.            ",
"                  a.b.c.d.e.f.      g.h.i.j.k.l.m.n.            ",
"                  o.p.q.r.s.t.      u.v.w.x.y.z.A.B.            ",
"                  C.D.E.F.G.H.I.          J.K.L.M.N.            ",
"                  O.P.Q.R.S.T.U.          V.L.W.X.Y.            ",
"                    Z.`. +.+++@+#+  $+%+&+*+=+-+;+              ",
"                    >+,+'+)+!+~+{+]+^+/+(+_+:+<+[+              ",
"                      }+|+1+2+3+4+5+6+7+8+9+0+a+                ",
"                        b+c+d+e+f+g+h+i+9+j+k+                  ",
"                            l+m+n+o+o+p+q+                      ",
"                                                                ",
"                                                                ",
"                                                                ",
"                                                                ",
"                                                                "};
