/* XPM */
static char * galeon_16x16_xpm[] = {
"16 16 68 1",
" 	c None",
".	c #ACA6A0",
"+	c #CCC7C2",
"@	c #CECBC9",
"#	c #90877F",
"$	c #0E0D0C",
"%	c #958A82",
"&	c #25211D",
"*	c #6F6760",
"=	c #534A42",
"-	c #010101",
";	c #A6A19D",
">	c #201C1A",
",	c #12100F",
"'	c #98908A",
")	c #4F4943",
"!	c #778E8E",
"~	c #7B8D7E",
"{	c #798668",
"]	c #413C37",
"^	c #96B0C0",
"/	c #D8DFCD",
"(	c #D7DAC2",
"_	c #353D40",
":	c #292823",
"<	c #BBC9BE",
"[	c #F7F6D5",
"}	c #545449",
"|	c #4478AC",
"1	c #6D98B6",
"2	c #8EABA6",
"3	c #293028",
"4	c #3E4C50",
"5	c #3F5056",
"6	c #334752",
"7	c #3F4D55",
"8	c #4072A4",
"9	c #4D80B3",
"0	c #678CA6",
"a	c #6E7062",
"b	c #4F4F43",
"c	c #666A5A",
"d	c #3C4F59",
"e	c #475762",
"f	c #366494",
"g	c #406E9E",
"h	c #6D889A",
"i	c #9B9270",
"j	c #223A50",
"k	c #203E57",
"l	c #1E3246",
"m	c #2C547E",
"n	c #486A87",
"o	c #D6C794",
"p	c #696F65",
"q	c #3C4B55",
"r	c #26415C",
"s	c #1E3B55",
"t	c #172838",
"u	c #204065",
"v	c #324E71",
"w	c #224162",
"x	c #203E5A",
"y	c #1D3B54",
"z	c #122536",
"A	c #162B45",
"B	c #1A344C",
"C	c #193148",
"                ",
"       .        ",
"    + @#$       ",
"    %&*=-       ",
"   ;>  ,        ",
"  ')   !~{      ",
"   ] ^/(_:      ",
"  '  <[}        ",
"    |123 4567   ",
"    890a bcde   ",
"    fghi  jkl   ",
"     mnopqrst   ",
"      uvwxyz    ",
"       ABC      ",
"                ",
"                "};
