/* XPM */
static char * gltron_16x16_xpm[] = {
"16 16 256 2",
"  	c None",
". 	c #020202",
"+ 	c #9E9B05",
"@ 	c #6A6809",
"# 	c #52530D",
"$ 	c #B305FB",
"% 	c #444208",
"& 	c #38380C",
"* 	c #B29C4E",
"= 	c #7E7AA5",
"- 	c #3E260E",
"; 	c #F2EA4A",
"> 	c #322A09",
", 	c #81798C",
"' 	c #29230A",
") 	c #565292",
"! 	c #DAD63E",
"~ 	c #260236",
"{ 	c #7C7D04",
"] 	c #E2AE76",
"^ 	c #A610EE",
"/ 	c #7E7A66",
"( 	c #625672",
"_ 	c #C2C62A",
": 	c #A4A088",
"< 	c #EAE84E",
"[ 	c #160514",
"} 	c #CA8C9C",
"| 	c #4E465F",
"1 	c #BA48E8",
"2 	c #DADA46",
"3 	c #E6E6B2",
"4 	c #0F0408",
"5 	c #3F3B58",
"6 	c #F65AFA",
"7 	c #C2BC84",
"8 	c #7E7A4A",
"9 	c #565662",
"0 	c #684C1B",
"a 	c #715512",
"b 	c #2F2D31",
"c 	c #646A6E",
"d 	c #BEB626",
"e 	c #929005",
"f 	c #4B4951",
"g 	c #CECEBA",
"h 	c #10161A",
"i 	c #220B4A",
"j 	c #C276C6",
"k 	c #C69296",
"l 	c #B2AE7E",
"m 	c #101202",
"n 	c #60540A",
"o 	c #3D3743",
"p 	c #F6BE92",
"q 	c #A24E76",
"r 	c #633E27",
"s 	c #C0C860",
"t 	c #3E1256",
"u 	c #8E3E5E",
"v 	c #6A6A3A",
"w 	c #624E0E",
"x 	c #7C7E32",
"y 	c #C8BEC6",
"z 	c #CE36DA",
"A 	c #AE5686",
"B 	c #9282B6",
"C 	c #1E2226",
"D 	c #D61AFE",
"E 	c #191905",
"F 	c #4B473A",
"G 	c #B66E92",
"H 	c #969CA8",
"I 	c #AAA60E",
"J 	c #615A07",
"K 	c #F69AF6",
"L 	c #7B830E",
"M 	c #1E0E0A",
"N 	c #EE70EE",
"O 	c #ECEAD6",
"P 	c #94ACC8",
"Q 	c #FAD2A2",
"R 	c #110E03",
"S 	c #583E24",
"T 	c #0A0302",
"U 	c #B276DE",
"V 	c #FDF7D3",
"W 	c #5E4228",
"X 	c #686E02",
"Y 	c #1E062A",
"Z 	c #FAB2F4",
"` 	c #B626CE",
" .	c #312F41",
"..	c #828646",
"+.	c #675F24",
"@.	c #8E8A5A",
"#.	c #3E3A36",
"$.	c #A2923E",
"%.	c #6A6E26",
"&.	c #7A583E",
"*.	c #FAE2F2",
"=.	c #864256",
"-.	c #B29EB2",
";.	c #CEA65E",
">.	c #595F0A",
",.	c #3E225E",
"'.	c #0E0210",
").	c #B6B2BF",
"!.	c #9EB0C6",
"~.	c #EA36FE",
"{.	c #170F05",
"].	c #C8C4AA",
"^.	c #424612",
"/.	c #B6B26A",
"(.	c #85820D",
"_.	c #C6969A",
":.	c #22120E",
"<.	c #A58651",
"[.	c #585224",
"}.	c #82629A",
"|.	c #1E1A4A",
"1.	c #9B9561",
"2.	c #3A2A42",
"3.	c #7F8489",
"4.	c #92822E",
"5.	c #060A02",
"6.	c #7A7236",
"7.	c #26243E",
"8.	c #98863A",
"9.	c #6A6118",
"0.	c #F4F2F2",
"a.	c #1A1E32",
"b.	c #CACE26",
"c.	c #4A3E10",
"d.	c #766216",
"e.	c #0A0B04",
"f.	c #7A5E4A",
"g.	c #351726",
"h.	c #363246",
"i.	c #0F0A18",
"j.	c #04040F",
"k.	c #EAEADA",
"l.	c #503A76",
"m.	c #56551E",
"n.	c #8A92B6",
"o.	c #5A4A8A",
"p.	c #5F5B17",
"q.	c #E6C6CE",
"r.	c #AA22D2",
"s.	c #D6D6BE",
"t.	c #757307",
"u.	c #AEAA60",
"v.	c #AE9EB2",
"w.	c #180E1A",
"x.	c #060205",
"y.	c #0A0517",
"z.	c #D29EAA",
"A.	c #4B4B20",
"B.	c #6E4636",
"C.	c #6F671B",
"D.	c #7F7129",
"E.	c #12120A",
"F.	c #2C1B26",
"G.	c #595209",
"H.	c #967E9A",
"I.	c #B8AE28",
"J.	c #300A42",
"K.	c #888904",
"L.	c #8E8894",
"M.	c #D21AFE",
"N.	c #8A92C2",
"O.	c #A29E26",
"P.	c #99960A",
"Q.	c #221D06",
"R.	c #E24AEA",
"S.	c #725228",
"T.	c #827C1A",
"U.	c #D6D2D6",
"V.	c #ADACB5",
"W.	c #120212",
"X.	c #FDFBE3",
"Y.	c #A69646",
"Z.	c #D6D132",
"`.	c #BEBA9E",
" +	c #362622",
".+	c #3F3A09",
"++	c #BA10FA",
"@+	c #6A560F",
"#+	c #42421B",
"$+	c #221212",
"%+	c #523E4E",
"&+	c #9A865E",
"*+	c #928A0A",
"=+	c #62462B",
"-+	c #F8ECF7",
";+	c #636215",
">+	c #B6BA2E",
",+	c #584E1C",
"'+	c #E6DAC2",
")+	c #584856",
"!+	c #100E1C",
"~+	c #4A305C",
"{+	c #1A1A22",
"]+	c #F642FA",
"^+	c #180228",
"/+	c #020206",
"(+	c #0A020B",
"_+	c #DA2AFE",
":+	c #B0AE12",
"<+	c #FAE2AE",
"[+	c #E0DDD8",
"}+	c #A3A205",
"|+	c #C6C385",
"1+	c #060603",
"2+	c #DDD932",
"3+	c #4A4C06",
"4+	c #8C7444",
"5+	c #312437",
"6+	c #65600C",
"7+	c #595709",
"8+	c #969622",
"9+	c #A89C64",
"0+	c #4E4A7A",
"a+	c #10121A",
"b+	c #F8F8F4",
"c+	c #C3BF22",
"d+	c #9994A1",
"e+	c #505A12",
"f+	c #0E031B",
"g+	c #100A02",
"h+	c #6A5E9E",
"i+	c #EA22FE",
"j+	c #321E56",
"k+	c #2F2C5A",
"l+	c #423E1E",
"m+	c #868474",
"n+	c #3B300C",
"o+	c #C2CACE",
"p+	c #36164E",
"q+	c #767416",
"r+	c #A8A8C6",
"s+	c #241328",
"t+	c #62561E",
"u+	c #665E16",
"v+	c #5E5A3A",
"w+	c #120218",
"x+	c #313007",
"y+	c #5A5E1E",
"z+	c #4E4B13",
"A+	c #403E3E",
"B+	c #665A8A",
"C+	c #6C700F",
"D+	c #606058",
"E+	c #9AB6CA",
"F+	c #7C7C12",
"G+	c #1E2242",
"B [ w.o {+!+}.^ ++i+N -+H d+d+H ",
"f.r W =+B.=+=+u q G } k q.[+-+0.",
"t+d.g '+- a a J 4.4.$.* l 7 7 |+",
",+D.`.V )+% 3+Q..+p.u+u+G.G.n n ",
"T A./.).^.& ' ;+E./+m ;+9.>.u+C.",
"4 e.D+b+ .5.. . X z+& e+.+& [.n ",
"W./+. h.7.[.z+Q.x.@ K.e (.% x.x.",
"'.(+/+j.5.k+h.o 7+t.t.(.+ K.n+W.",
"W.(+(+/+/+j.k+v g+T.}+I }+e { 4 ",
"W.'.'.. . . 1+u.1+5 c+2+! :+K.A+",
"W.W.'.x.. . /+l+& |.8+Z.b.I.{ 3.",
"'.W.'.(+. . . x.L m t.e e { n+( ",
"W.w.F.F /+. /+. . E % ^.> 4 W.w+",
"3.!.P = | . . . . . . . . /+(+W.",
"o.,.J.^+w+'.. . . . . . . /+(+W.",
"f+f+W.'.W.W.'.x.. . . . . /+'.w+"};
