/* XPM */
static char * grip_32x32_xpm[] = {
"32 32 710 2",
"  	c None",
". 	c #040204",
"+ 	c #100204",
"@ 	c #2E0208",
"# 	c #570510",
"$ 	c #52040F",
"% 	c #320308",
"& 	c #1C0205",
"* 	c #0E0204",
"= 	c #060204",
"- 	c #0A0204",
"; 	c #0F0204",
"> 	c #160204",
", 	c #170204",
"' 	c #150204",
") 	c #130204",
"! 	c #080204",
"~ 	c #240206",
"{ 	c #6C0814",
"] 	c #E37180",
"^ 	c #DC6F7D",
"/ 	c #A41F30",
"( 	c #5A0610",
"_ 	c #2D0208",
": 	c #050204",
"< 	c #120204",
"[ 	c #1F0205",
"} 	c #2F0308",
"| 	c #3D040A",
"1 	c #4A040E",
"2 	c #4E040E",
"3 	c #4F040F",
"4 	c #47040E",
"5 	c #40030C",
"6 	c #340308",
"7 	c #2C0208",
"8 	c #49040D",
"9 	c #AF2839",
"0 	c #F8BBC5",
"a 	c #E05F70",
"b 	c #F28B99",
"c 	c #DF6676",
"d 	c #7E0D1B",
"e 	c #37030A",
"f 	c #070204",
"g 	c #2B0207",
"h 	c #47050C",
"i 	c #700916",
"j 	c #A31F30",
"k 	c #C23D4E",
"l 	c #D45566",
"m 	c #DE5D6E",
"n 	c #E35D6F",
"o 	c #D65566",
"p 	c #BC3A4B",
"q 	c #A62233",
"r 	c #7F0A18",
"s 	c #860918",
"t 	c #DE6474",
"u 	c #EB7C8C",
"v 	c #8F0A1A",
"w 	c #8E0D1D",
"x 	c #D65E6E",
"y 	c #F18E9C",
"z 	c #961E2E",
"A 	c #40040C",
"B 	c #180204",
"C 	c #210205",
"D 	c #43040C",
"E 	c #7D0A18",
"F 	c #C94758",
"G 	c #EF8594",
"H 	c #F17687",
"I 	c #D55667",
"J 	c #C43E4F",
"K 	c #BA3042",
"L 	c #BC2F41",
"M 	c #C73F51",
"N 	c #DD5F71",
"O 	c #F6ADB9",
"P 	c #EA7485",
"Q 	c #BA1328",
"R 	c #F7A8B4",
"S 	c #C23A4B",
"T 	c #53050F",
"U 	c #40040A",
"V 	c #5D0611",
"W 	c #B93C4D",
"X 	c #F295A3",
"Y 	c #971C2D",
"Z 	c #370309",
"` 	c #090204",
" .	c #270206",
"..	c #5F0712",
"+.	c #BD3748",
"@.	c #F28C9B",
"#.	c #DC5E6F",
"$.	c #9D1A2B",
"%.	c #680813",
"&.	c #45040D",
"*.	c #3D030B",
"=.	c #3A0309",
"-.	c #5B0610",
";.	c #930B1B",
">.	c #F08B99",
",.	c #EB6D7F",
"'.	c #E24056",
").	c #F6ADB8",
"!.	c #8A1120",
"~.	c #2B0208",
"{.	c #110204",
"].	c #220206",
"^.	c #50050F",
"/.	c #B63547",
"(.	c #F38E9C",
"_.	c #810C1B",
":.	c #310209",
"<.	c #0D0204",
"[.	c #2A0207",
"}.	c #680714",
"|.	c #DD6273",
"1.	c #ED8997",
"2.	c #A61F30",
"3.	c #9A1322",
"4.	c #F8AEBA",
"5.	c #E0344A",
"6.	c #F38796",
"7.	c #DB6877",
"8.	c #57050F",
"9.	c #D45364",
"0.	c #DA6575",
"a.	c #200205",
"b.	c #640612",
"c.	c #DE6B7B",
"d.	c #E67584",
"e.	c #7D0E1C",
"f.	c #40030B",
"g.	c #1D0205",
"h.	c #140204",
"i.	c #4A050D",
"j.	c #C63F50",
"k.	c #F3A7B2",
"l.	c #DF2039",
"m.	c #F8B8C2",
"n.	c #AE2537",
"o.	c #3D030A",
"p.	c #0B0204",
"q.	c #2D0207",
"r.	c #7D0B19",
"s.	c #F48C9B",
"t.	c #A72233",
"u.	c #1B0204",
"v.	c #580610",
"w.	c #D25464",
"x.	c #E77786",
"y.	c #690613",
"z.	c #6B0714",
"A.	c #F08F9D",
"B.	c #EC6376",
"C.	c #E64D61",
"D.	c #F29DAA",
"E.	c #7C0816",
"F.	c #270205",
"G.	c #290207",
"H.	c #5A0611",
"I.	c #C6394B",
"J.	c #E16E7E",
"K.	c #600612",
"L.	c #3A030A",
"M.	c #AB2537",
"N.	c #881221",
"O.	c #310308",
"P.	c #A01A2B",
"Q.	c #DF273F",
"R.	c #F293A1",
"S.	c #DC5869",
"T.	c #5E0611",
"U.	c #2A0206",
"V.	c #1A0205",
"W.	c #280206",
"X.	c #39030A",
"Y.	c #4E050E",
"Z.	c #750815",
"`.	c #BC2134",
" +	c #F7A1AE",
".+	c #931525",
"++	c #250206",
"@+	c #630712",
"#+	c #EE7687",
"$+	c #BA3344",
"%+	c #46040C",
"&+	c #D65969",
"*+	c #F395A3",
"=+	c #D1253A",
"-+	c #F9C6CE",
";+	c #C9384C",
">+	c #550510",
",+	c #54050F",
"'+	c #660813",
")+	c #890E1E",
"!+	c #B22437",
"~+	c #CD495B",
"{+	c #E97887",
"]+	c #F4ADB8",
"^+	c #F7B9C2",
"/+	c #A91E30",
"(+	c #390309",
"_+	c #AD1D2F",
":+	c #EB7F8F",
"<+	c #710815",
"[+	c #230206",
"}+	c #0C0204",
"|+	c #F09EAA",
"1+	c #D54558",
"2+	c #9F0C1D",
"3+	c #D65465",
"4+	c #F5A2AF",
"5+	c #CA3B4E",
"6+	c #C4384A",
"7+	c #DA6474",
"8+	c #F48F9D",
"9+	c #F8AFBA",
"0+	c #F8B6C0",
"a+	c #ED8D9B",
"b+	c #DE6071",
"c+	c #B72D3F",
"d+	c #8B0D1C",
"e+	c #51050E",
"f+	c #51050F",
"g+	c #DF6979",
"h+	c #C94053",
"i+	c #48050C",
"j+	c #340309",
"k+	c #610612",
"l+	c #B92C3E",
"m+	c #F8B3BE",
"n+	c #A51628",
"o+	c #680713",
"p+	c #790815",
"q+	c #D04255",
"r+	c #F8B5C0",
"s+	c #F6A2AF",
"t+	c #EB7484",
"u+	c #EC5166",
"v+	c #DD2D44",
"w+	c #E1223A",
"x+	c #C5162C",
"y+	c #830817",
"z+	c #4D050E",
"A+	c #2C0207",
"B+	c #240205",
"C+	c #7E0917",
"D+	c #F38F9E",
"E+	c #9C0E1F",
"F+	c #210206",
"G+	c #580710",
"H+	c #DC5567",
"I+	c #F6A7B3",
"J+	c #EB7C8B",
"K+	c #870A18",
"L+	c #620612",
"M+	c #740815",
"N+	c #A50C1E",
"O+	c #CC192F",
"P+	c #DE2A42",
"Q+	c #E4495D",
"R+	c #ED7081",
"S+	c #F59DAA",
"T+	c #F7BDC7",
"U+	c #820B1A",
"V+	c #911826",
"W+	c #F58798",
"X+	c #720715",
"Y+	c #240207",
"Z+	c #4D040F",
"`+	c #D24F60",
" @	c #F08D9B",
".@	c #D14457",
"+@	c #C93C4E",
"@@	c #B31A2D",
"#@	c #A60E21",
"$@	c #B52C3D",
"%@	c #D05263",
"&@	c #E9808E",
"*@	c #F7ACB7",
"=@	c #F8B1BC",
"-@	c #F29AA7",
";@	c #DD707F",
">@	c #CF4658",
",@	c #C83547",
"'@	c #F796A5",
")@	c #8D1625",
"!@	c #270207",
"~@	c #340209",
"{@	c #A12E3D",
"]@	c #F1798A",
"^@	c #600611",
"/@	c #1E0206",
"(@	c #2B0307",
"_@	c #8C1020",
":@	c #F28B9A",
"<@	c #A01729",
"[@	c #5C0610",
"}@	c #790816",
"|@	c #EB6A7C",
"1@	c #F8C1CA",
"2@	c #F48998",
"3@	c #D45667",
"4@	c #B73042",
"5@	c #941728",
"6@	c #700915",
"7@	c #5F0611",
"8@	c #8C0A1A",
"9@	c #ED6F81",
"0@	c #A92032",
"a@	c #2F0207",
"b@	c #320209",
"c@	c #A63548",
"d@	c #F07183",
"e@	c #5E0610",
"f@	c #1E0205",
"g@	c #2E0307",
"h@	c #AA2132",
"i@	c #E57A89",
"j@	c #760815",
"k@	c #38030A",
"l@	c #690815",
"m@	c #D9586C",
"n@	c #D95467",
"o@	c #780917",
"p@	c #2F0307",
"q@	c #280207",
"r@	c #6C0713",
"s@	c #E86779",
"t@	c #AE2334",
"u@	c #330308",
"v@	c #9F2D3D",
"w@	c #F4788A",
"x@	c #931223",
"y@	c #F492A1",
"z@	c #A21728",
"A@	c #5E0713",
"B@	c #5A0816",
"C@	c #801A34",
"D@	c #D285A1",
"E@	c #982D48",
"F@	c #3E0A16",
"G@	c #210207",
"H@	c #6B0812",
"I@	c #EE6F81",
"J@	c #A82132",
"K@	c #2E0209",
"L@	c #8E1726",
"M@	c #F58696",
"N@	c #030204",
"O@	c #4F050F",
"P@	c #D04F62",
"Q@	c #ED90A0",
"R@	c #C3455A",
"S@	c #B04765",
"T@	c #937AAD",
"U@	c #7591D0",
"V@	c #3A3966",
"W@	c #1C1122",
"X@	c #060409",
"Y@	c #250208",
"Z@	c #760B18",
"`@	c #F57C8E",
" #	c #8A1524",
".#	c #260207",
"+#	c #220205",
"@#	c #EF8A99",
"##	c #971123",
"$#	c #2F0914",
"%#	c #0B0C18",
"&#	c #03101E",
"*#	c #030B15",
"=#	c #030A13",
"-#	c #06070D",
";#	c #210B17",
">#	c #4E1022",
",#	c #942844",
"'#	c #BC6381",
")#	c #A86890",
"!#	c #496AB0",
"~#	c #87C8F8",
"{#	c #1966A4",
"]#	c #0C223F",
"^#	c #031120",
"/#	c #030C18",
"(#	c #0A1120",
"_#	c #2F0F20",
":#	c #931B2E",
"<#	c #EF798B",
"[#	c #6E0915",
"}#	c #4F050E",
"|#	c #D56173",
"1#	c #B14766",
"2#	c #402342",
"3#	c #0F2C50",
"4#	c #083560",
"5#	c #073057",
"6#	c #072E53",
"7#	c #07294B",
"8#	c #062646",
"9#	c #08213D",
"0#	c #192544",
"a#	c #282E56",
"b#	c #333664",
"c#	c #2F3E71",
"d#	c #1E5090",
"e#	c #1969B1",
"f#	c #0E4E8B",
"g#	c #08325B",
"h#	c #072B4F",
"i#	c #072E54",
"j#	c #14335D",
"k#	c #392D54",
"l#	c #A34B6F",
"m#	c #C4607A",
"n#	c #4E0612",
"o#	c #340812",
"p#	c #962A47",
"q#	c #A78CB9",
"r#	c #466BA9",
"s#	c #6FB1E7",
"t#	c #8DC8F2",
"u#	c #74B6EC",
"v#	c #3280C3",
"w#	c #4D9ADD",
"x#	c #2E82C6",
"y#	c #0B467F",
"z#	c #2A7ABC",
"A#	c #5BA5E4",
"B#	c #5BA3DF",
"C#	c #2682CE",
"D#	c #1366B1",
"E#	c #59A8E9",
"F#	c #1363A7",
"G#	c #0C4B88",
"H#	c #4294D6",
"I#	c #3E91D8",
"J#	c #4792D3",
"K#	c #82C0F0",
"L#	c #8BC6F1",
"M#	c #63A5DE",
"N#	c #7887C4",
"O#	c #843D63",
"P#	c #310F20",
"Q#	c #1E0C17",
"R#	c #52294F",
"S#	c #698BCB",
"T#	c #C2E1FA",
"U#	c #A4CEF2",
"V#	c #62A1DB",
"W#	c #72AEE2",
"X#	c #B6DAF9",
"Y#	c #C4E1FB",
"Z#	c #6AADE3",
"`#	c #0E5DA8",
" $	c #61A5DD",
".$	c #CCE5FC",
"+$	c #A3D1F6",
"@$	c #227BC6",
"#$	c #2078C4",
"$$	c #C6E4FA",
"%$	c #2B7DC1",
"&$	c #9CCDF4",
"*$	c #C3E1FB",
"=$	c #A1CFF6",
"-$	c #64A5DE",
";$	c #71ACE2",
">$	c #C5E2F9",
",$	c #A3CFF4",
"'$	c #38538D",
")$	c #171E39",
"!$	c #060509",
"~$	c #030306",
"{$	c #0E1223",
"]$	c #2A3766",
"^$	c #8FC7F3",
"/$	c #A3D0F5",
"($	c #4363A9",
"_$	c #264177",
":$	c #13467F",
"<$	c #377FC1",
"[$	c #C5E2FB",
"}$	c #73B0E6",
"|$	c #0E64B4",
"1$	c #69A8DE",
"2$	c #C3E1FA",
"3$	c #2273BB",
"4$	c #0C4F90",
"5$	c #1F72BB",
"6$	c #C4E2FA",
"7$	c #3280C5",
"8$	c #0E61AF",
"9$	c #A5D2F4",
"0$	c #2569AD",
"a$	c #28437A",
"b$	c #554D8B",
"c$	c #5E95D9",
"d$	c #CCE6FB",
"e$	c #5A99D0",
"f$	c #112B4F",
"g$	c #030912",
"h$	c #03050A",
"i$	c #031527",
"j$	c #1F4F88",
"k$	c #76B0EA",
"l$	c #8B7DB6",
"m$	c #572E57",
"n$	c #262D53",
"o$	c #154D89",
"p$	c #A4D3F8",
"q$	c #73B1E5",
"r$	c #68A9DF",
"s$	c #9FD1F9",
"t$	c #0F508C",
"u$	c #0B3F71",
"v$	c #1D6EB1",
"w$	c #317FC4",
"x$	c #0E60AD",
"y$	c #A4D0F4",
"z$	c #63A5E0",
"A$	c #284075",
"B$	c #5C3159",
"C$	c #A883AE",
"D$	c #706FAF",
"E$	c #94C8F6",
"F$	c #8DBFEC",
"G$	c #093763",
"H$	c #030E1B",
"I$	c #030205",
"J$	c #041425",
"K$	c #14477D",
"L$	c #BEE0FA",
"M$	c #71A6DD",
"N$	c #837DB7",
"O$	c #A579A3",
"P$	c #593867",
"Q$	c #235291",
"R$	c #AAD6F9",
"S$	c #75B1E5",
"T$	c #9CD1F9",
"U$	c #0E4B84",
"V$	c #0A3866",
"W$	c #1B6BAA",
"X$	c #C6E3FA",
"Y$	c #3180C6",
"Z$	c #105EAB",
"`$	c #A7D1F4",
" %	c #73ABE2",
".%	c #4B4A87",
"+%	c #A679A5",
"@%	c #9C75A4",
"#%	c #3C4D8C",
"$%	c #9FCDF5",
"%%	c #84B9E7",
"&%	c #08335C",
"*%	c #030E1A",
"=%	c #03101F",
"-%	c #083057",
";%	c #7CBBEF",
">%	c #B3D8F8",
",%	c #416DB3",
"'%	c #7B7CBB",
")%	c #7586C7",
"!%	c #5794D8",
"~%	c #CAE5FB",
"{%	c #72B0E6",
"]%	c #1B63B1",
"^%	c #68A8DD",
"/%	c #9CD1F8",
"(%	c #11487E",
"_%	c #0D3663",
":%	c #1D66A3",
"<%	c #C4E3FA",
"[%	c #3681C6",
"}%	c #1D5FAB",
"|%	c #99CCF4",
"1%	c #9ECEF8",
"2%	c #5C93DC",
"3%	c #7478B8",
"4%	c #41508F",
"5%	c #488BCD",
"6%	c #D2E8FB",
"7%	c #488DCA",
"8%	c #062543",
"9%	c #030C17",
"0%	c #03060C",
"a%	c #052340",
"b%	c #1C64A2",
"c%	c #A8D4F6",
"d%	c #B7DCFA",
"e%	c #7EB9EE",
"f%	c #88C3F4",
"g%	c #B2D9F9",
"h%	c #CCE4FA",
"i%	c #6EAEE5",
"j%	c #3360AD",
"k%	c #97CCF8",
"l%	c #2A467C",
"m%	c #33325D",
"n%	c #3063A1",
"o%	c #C1E1FA",
"p%	c #367DC4",
"q%	c #3665B1",
"r%	c #B3D9FA",
"s%	c #B4DAFA",
"t%	c #82BCF0",
"u%	c #8BC4F3",
"v%	c #CCE5FB",
"w%	c #7EBAE9",
"x%	c #0B4274",
"y%	c #04172A",
"z%	c #030911",
"A%	c #041C33",
"B%	c #0A4074",
"C%	c #1A6CB6",
"D%	c #509CDC",
"E%	c #6FB0E7",
"F%	c #529EDE",
"G%	c #3684D2",
"H%	c #BADBF8",
"I%	c #6CA7E4",
"J%	c #7386C5",
"K%	c #498BD1",
"L%	c #5393DA",
"M%	c #7B4F7F",
"N%	c #8D4770",
"O%	c #6968A0",
"P%	c #5BA1E3",
"Q%	c #5485CC",
"R%	c #5B7FC6",
"S%	c #AAD2F4",
"T%	c #8BBEEB",
"U%	c #3584CD",
"V%	c #5FA0D9",
"W%	c #67A6DC",
"X%	c #3A82C0",
"Y%	c #0C3F70",
"Z%	c #041D35",
"`%	c #03070E",
" &	c #051B32",
".&	c #186DB2",
"+&	c #4699D6",
"@&	c #267ECC",
"#&	c #1770C5",
"$&	c #166FC3",
"%&	c #529FE5",
"&&	c #C7E4FA",
"*&	c #3F76B7",
"=&	c #6D3C6D",
"-&	c #8B4168",
";&	c #AE6086",
">&	c #C87C99",
",&	c #D17C96",
"'&	c #BA6486",
")&	c #8D4871",
"!&	c #703967",
"~&	c #394986",
"{&	c #A2CEF3",
"]&	c #164882",
"^&	c #093560",
"/&	c #05223E",
"(&	c #041426",
"_&	c #03080F",
":&	c #030408",
"<&	c #041629",
"[&	c #145086",
"}&	c #8AC2EE",
"|&	c #BADDFA",
"1&	c #8AC6F6",
"2&	c #97CBF7",
"3&	c #B8DDFA",
"4&	c #5B9ED6",
"5&	c #183A67",
"6&	c #2D1931",
"7&	c #390D1D",
"8&	c #410C1B",
"9&	c #490814",
"0&	c #4A0814",
"a&	c #470B18",
"b&	c #3C0E1F",
"c&	c #2C1A34",
"d&	c #193A6A",
"e&	c #6BB7EE",
"f&	c #4491D1",
"g&	c #072C51",
"h&	c #031425",
"i&	c #030D19",
"j&	c #051E38",
"k&	c #0D4070",
"l&	c #2D74B2",
"m&	c #5390C5",
"n&	c #4B8BC1",
"o&	c #20629C",
"p&	c #08325A",
"q&	c #08192F",
"r&	c #070911",
"s&	c #0D0205",
"t&	c #110205",
"u&	c #0F0205",
"v&	c #060811",
"w&	c #061C34",
"x&	c #0A3C68",
"y&	c #08335B",
"z&	c #04172B",
"A&	c #030811",
". . . . . . . . . . . . . . . . . . . . + @ # $ % & * . . . . . ",
". . . . . . . . . . = - ; > , ' ) - ! ! ~ { ] ^ / ( _ ) . . . . ",
". . . . . . . . : < [ } | 1 2 3 4 5 6 7 8 9 0 a b c d e ' . . . ",
". . . . . . f ' g h i j k l m n o p q r s t u v w x y z A B : . ",
". . . . . - C D E F G H I J K L M N O P Q R S T U V W X Y Z ) : ",
". . . . `  ...+.@.#.$.%.T &.*.=.-.;.>.,.'.).!.~.{.].^./.(._.:.! ",
". . . <.[.}.|.1.2.T e ].B * - , 5 3.4.5.6.7.8.> : = ].( 9.0.-.a.",
". . *  .b.c.d.e.f.g.` : : . . h.i.j.k.l.m.n.o.<.. . p.q.r.s.t.Z ",
". = u.v.w.x.y.7 , . . . . . . [ z.A.B.C.D.E.F.- . = {.G.H.I.J.K.",
". h.L.M.@.N.O.; . . . . . . p.% P.0 Q.R.S.T.U.u.V.W.X.Y.Z.`. +.+",
"= ++@+#+$+%+h.. . . . . . . < Y.&+*+=+-+;+Z.>+,+'+)+!+~+{+]+^+/+",
"<.(+_+:+<+[+- . . . . . . }+_ r.|+1+2+3+4+5+6+7+8+9+0+a+b+c+d+e+",
"> f+g+h+i++ . . . . . - , j+k+l+m+n+o+p+q+r+s+t+u+v+w+x+y+z+A+V.",
"B+C+D+E+O.<.. . . . f F+G+q H+I+J+K+L+M+N+O+P+Q+R+S+T+D.U+G.+ . ",
"[.V+W+X+Y+. . . . . ' Z+`+ @.@+@@@#@$@%@&@*@=@-@;@>@,@'@)@!@: . ",
"~@{@]@^@/@: . . . = (@_@:@<@K.[@}@|@1@2@3@4@5@6@7@V 8@9@0@a@` . ",
"b@c@d@e@f@= . . . f g@h@i@j@| k@l@m@n@o@e+L.p@u.u.q@r@s@t@u@f . ",
"b@v@w@7@].= . . . f [.x@y@z@A@B@C@D@E@F@g.<.! . : G@H@I@J@O.f . ",
"K@L@M@X+U.= N@. . . > O@P@Q@R@S@T@U@V@W@X@N@. N@= Y@Z@`@ #.#` . ",
"+#M+@###$#%#&#*#*#=#-#;#>#,#'#)#!#~#{#]#^#/#/#&#(#_#:#<#[#g.. . ",
"h.}#|#1#2#3#4#5#6#7#8#9#0#a#b#c#d#e#f#g#h#i#6#g#j#k#l#m#n#{.. . ",
"; o#p#q#r#s#t#u#v#w#x#y#z#A#B#C#D#E#F#G#H#I#J#K#L#M#N#O#P#}+. . ",
". Q#R#S#T#U#V#W#X#Y#Z#`# $.$+$@$#$$$%$`#&$*$=$-$;$>$,$'$)$!$. . ",
"~${$]$^$/$($_$:$<$[$}$|$1$2$3$4$5$6$7$8$9$=$0$a$b$c$d$e$f$g$. . ",
"h$i$j$[$k$l$m$n$o$p$q$|$r$s$t$u$v$6$w$x$y$z$A$B$C$D$E$F$G$H$. . ",
"I$J$K$L$M$N$O$P$Q$R$S$|$r$T$U$V$W$X$Y$Z$`$ %.%+%@%#%$%%%&%*%. . ",
"~$=%-%;%>%,%'%)%!%~%{%]%^%/%(%_%:%<%[%}%|%1%2%3%4%5%6%7%8%9%. . ",
". 0%a%b%c%d%e%f%g%h%i%j% $k%l%m%n%o%p%q%|%r%s%t%u%v%w%x%y%0%. . ",
". z%A%B%C%D%E%F%G%H%I%J%K%L%M%N%O%P%Q%R%S%T%U%V%W%X%Y%Z%=#I$. . ",
". `% &.&+&@&#&$&%&&&*&=&-&;&>&,&'&)&!&~&{&1$]&^&h#/&(&_&N@. . . ",
". :&<&[&}&|&1&2&3&4&5&6&7&8&9&0&a&b&c&d&e&f&g&h&9%z%~$. . . . . ",
". ~$i&j&k&l&m&n&o&p&q&r&s&) < ' t&u&v&w&x&y&z&A&N@. . . . . . . "};
