/* XPM */
static char * grip_16x16_xpm[] = {
"16 16 212 2",
"  	c None",
". 	c #040204",
"+ 	c #060204",
"@ 	c #0B0204",
"# 	c #0D0204",
"$ 	c #090204",
"% 	c #330309",
"& 	c #9A3A47",
"* 	c #530A13",
"= 	c #140205",
"- 	c #220206",
"; 	c #580B14",
"> 	c #872633",
", 	c #97303E",
"' 	c #862532",
") 	c #610C16",
"! 	c #972634",
"~ 	c #D46876",
"{ 	c #CD5766",
"] 	c #8F2F3B",
"^ 	c #1C0206",
"/ 	c #0F0204",
"( 	c #60111A",
"_ 	c #C54E5E",
": 	c #B94756",
"< 	c #8C2734",
"[ 	c #7B1925",
"} 	c #A42B3B",
"| 	c #EE8695",
"1 	c #E26A7A",
"2 	c #721420",
"3 	c #340309",
"4 	c #AC4251",
"5 	c #902E3B",
"6 	c #110204",
"7 	c #751E2A",
"8 	c #CB5B6A",
"9 	c #550A13",
"0 	c #190206",
"a 	c #0E0204",
"b 	c #7A1622",
"c 	c #EA6A7B",
"d 	c #DD7381",
"e 	c #2D0308",
"f 	c #C75363",
"g 	c #560B14",
"h 	c #080204",
"i 	c #560C15",
"j 	c #CC5A69",
"k 	c #350309",
"l 	c #180205",
"m 	c #BC5A68",
"n 	c #E85A6D",
"o 	c #AA404E",
"p 	c #1D0204",
"q 	c #130204",
"r 	c #300308",
"s 	c #941A29",
"t 	c #B24A58",
"u 	c #1C0205",
"v 	c #BA4655",
"w 	c #65101A",
"x 	c #42050C",
"y 	c #E37483",
"z 	c #CF5262",
"A 	c #BF4757",
"B 	c #912937",
"C 	c #B65562",
"D 	c #D96C7B",
"E 	c #DC6C7B",
"F 	c #9F3A47",
"G 	c #42040B",
"H 	c #CD5162",
"I 	c #250307",
"J 	c #520B14",
"K 	c #BB4B5A",
"L 	c #C35362",
"M 	c #6D0713",
"N 	c #CE4758",
"O 	c #E86274",
"P 	c #EA6275",
"Q 	c #E36475",
"R 	c #5E0611",
"S 	c #160205",
"T 	c #64121C",
"U 	c #AE4352",
"V 	c #120205",
"W 	c #46060E",
"X 	c #D55F6F",
"Y 	c #952331",
"Z 	c #AF2638",
"` 	c #DC7280",
" .	c #DA6C7B",
"..	c #BB5A68",
"+.	c #9A303E",
"@.	c #CE5161",
"#.	c #630E19",
"$.	c #050204",
"%.	c #6A1925",
"&.	c #A83D4B",
"*.	c #650E18",
"=.	c #BC4A59",
"-.	c #4B050F",
";.	c #A53F55",
">.	c #892537",
",.	c #150204",
"'.	c #1A0205",
").	c #AB3947",
"!.	c #6E121D",
"~.	c #540812",
"{.	c #BB4A59",
"].	c #1A060D",
"^.	c #03070E",
"/.	c #03060C",
"(.	c #23060D",
"_.	c #A7455A",
":.	c #B55574",
"<.	c #768FC9",
"[.	c #1E345A",
"}.	c #030811",
"|.	c #03080F",
"1.	c #190913",
"2.	c #BB4657",
"3.	c #4E0811",
"4.	c #29040A",
"5.	c #B05776",
"6.	c #415A88",
"7.	c #4478A5",
"8.	c #235C8F",
"9.	c #114372",
"0.	c #315C8E",
"a.	c #3866A0",
"b.	c #2871B6",
"c.	c #0D4B85",
"d.	c #235F94",
"e.	c #366C9C",
"f.	c #4E72A0",
"g.	c #985B84",
"h.	c #27060E",
"i.	c #0C0811",
"j.	c #5D6C9C",
"k.	c #93B8E2",
"l.	c #4375AC",
"m.	c #9DC7EC",
"n.	c #3E87C9",
"o.	c #96C4EC",
"p.	c #3C83C1",
"q.	c #72ACDC",
"r.	c #1E6EB7",
"s.	c #A9D3F6",
"t.	c #5488BE",
"u.	c #7A9CCF",
"v.	c #80A8D3",
"w.	c #0C1528",
"x.	c #030C16",
"y.	c #6D96BE",
"z.	c #7D94CD",
"A.	c #5E436D",
"B.	c #6192C2",
"C.	c #418ACC",
"D.	c #82BDEC",
"E.	c #0C4479",
"F.	c #70A7D3",
"G.	c #206FB8",
"H.	c #88BCEA",
"I.	c #5D4D7E",
"J.	c #7C6DA3",
"K.	c #91C3EF",
"L.	c #05213D",
"M.	c #03060D",
"N.	c #295C8A",
"O.	c #94BDE6",
"P.	c #7D9FD9",
"Q.	c #A7CDF1",
"R.	c #4B88CA",
"S.	c #7FBAEA",
"T.	c #1E3D6E",
"U.	c #74A3CE",
"V.	c #2F70B9",
"W.	c #A0CFF6",
"X.	c #81A8DF",
"Y.	c #78A1D2",
"Z.	c #689CC8",
"`.	c #041324",
" +	c #030509",
".+	c #0A3962",
"++	c #3587CD",
"@+	c #3B8BD3",
"#+	c #82B8EA",
"$+	c #6277B3",
"%+	c #756FA6",
"&+	c #A86387",
"*+	c #826D9E",
"=+	c #56619F",
"-+	c #90C1EC",
";+	c #2C68A2",
">+	c #2B5D8A",
",+	c #051E36",
"'+	c #030408",
")+	c #030205",
"!+	c #082440",
"~+	c #5F94C2",
"{+	c #6FABDC",
"]+	c #4E83B1",
"^+	c #151D36",
"/+	c #260710",
"(+	c #2E050C",
"_+	c #280710",
":+	c #141E38",
"<+	c #306DA0",
"[+	c #04172C",
"}+	c #030204",
". . . . . + @ # $ + % & * = . . ",
". . . $ - ; > , ' ) ! ~ { ] ^ . ",
". . / ( _ : < [ } | 1 2 3 4 5 = ",
". 6 7 8 9 0 @ a b c d e . e f g ",
"h i j k h . . l m n o p q r s t ",
"u v w $ . . + x y z A B C D E F ",
"G H I . . # J K L M N O P Q R S ",
"T U V . . W X Y Z `  ...+.@.#.$.",
"%.&.q . $.*.=.-.;.>.e ,.'.).!.$.",
"~.{.].^./.(._.:.<.[.}.|.1.2.3.$.",
"4.5.6.7.8.9.0.a.b.c.d.e.f.g.h.. ",
"i.j.k.l.m.n.o.p.q.r.s.t.u.v.w.. ",
"x.y.z.A.B.C.D.E.F.G.H.I.J.K.L.. ",
"M.N.O.P.Q.R.S.T.U.V.W.X.Y.Z.`.. ",
" +.+++@+#+$+%+&+*+=+-+;+>+,+'+. ",
")+!+~+{+]+^+/+(+_+:+<+[+/.}+. . "};
