/* XPM */
static char * links_32x32_xpm[] = {
"32 32 67 1",
" 	c None",
".	c #002D5E",
"+	c #00356D",
"@	c #5E0000",
"#	c #6D0000",
"$	c #544402",
"%	c #0069DB",
"&	c #007BFF",
"*	c #DB0000",
"=	c #FF0000",
"-	c #765F03",
";	c #C49E05",
">	c #000000",
",	c #006DE2",
"'	c #937604",
")	c #524202",
"!	c #0075F2",
"~	c #002043",
"{	c #0063CE",
"]	c #917504",
"^	c #615D22",
"/	c #0064CF",
"(	c #0072EB",
"_	c #0065D1",
":	c #0070E8",
"<	c #0067D6",
"[	c #002247",
"}	c #0055B1",
"|	c #445C50",
"1	c #B79305",
"2	c #9A7C04",
"3	c #806703",
"4	c #003F84",
"5	c #006BDE",
"6	c #002751",
"7	c #001B38",
"8	c #004A99",
"9	c #416B73",
"0	c #9C7E04",
"a	c #A08104",
"b	c #0050A6",
"c	c #0051A8",
"d	c #6C5703",
"e	c #002F62",
"f	c #0062CB",
"g	c #0066D4",
"h	c #957804",
"i	c #A58504",
"j	c #002C5C",
"k	c #004C9D",
"l	c #C09B05",
"m	c #7B6303",
"n	c #374A41",
"o	c #0060C8",
"p	c #0059B8",
"q	c #0064D0",
"r	c #001226",
"s	c #967904",
"t	c #144774",
"u	c #00336A",
"v	c #003269",
"w	c #002956",
"x	c #00060D",
"y	c #1B2C2F",
"z	c #514102",
"A	c #191401",
"B	c #003771",
"                                ",
"                                ",
"                                ",
"                                ",
"                                ",
"                                ",
"                                ",
"                                ",
"                                ",
"                                ",
"   .+    @#      $$             ",
"   %&    *=     -;;             ",
"   %&           -;;             ",
"   %&    >>  ,, -;;  ';)!%%!    ",
"   %&    >>~{{&&);; ];^/(_{:<   ",
"   %&    >>[  }&|;12;34&5  6<7  ",
"   %&    >>   8&9;00a  :&bc     ",
"   %&    >>   8&9;;;;d e&&&fg   ",
"   %&    >>   8&9;h i;    j_&k  ",
"   %&    >>   8&9;l m;nop   &&  ",
"   %&&&&qr>   8&9;;  -st&ku_(v  ",
"   .++++wx>    +y$$   zAB_&k    ",
"                                ",
"                                ",
"                                ",
"                                ",
"                                ",
"                                ",
"                                ",
"                                ",
"                                ",
"                                "};
