/* XPM */
static char * links_16x16_xpm[] = {
"16 16 30 1",
" 	c None",
".	c #005CBF",
"+	c #BF0000",
"@	c #7E6603",
"#	c #007BFF",
"$	c #A88704",
"%	c #000000",
"&	c #000F1F",
"*	c #0073EF",
"=	c #8B7918",
"-	c #AC8B04",
";	c #A98804",
">	c #1962A2",
",	c #0065D1",
"'	c #0052AA",
")	c #0069DB",
"!	c #83853C",
"~	c #B08E05",
"{	c #987B04",
"]	c #004FA4",
"^	c #0072EB",
"/	c #0061C9",
"(	c #0075F2",
"_	c #164265",
":	c #0070E8",
"<	c #002A57",
"[	c #61632D",
"}	c #474922",
"|	c #005BBD",
"1	c #005ABA",
"                ",
"                ",
"                ",
"                ",
"                ",
"  .  +  @       ",
"  #     $       ",
"  # %& *=-;>,'' ",
"  # %% )!~{]^/  ",
"  ( %% )! ~_  : ",
"  ..<% ][  }|1] ",
"                ",
"                ",
"                ",
"                ",
"                "};
