/* XPM */
static char * lynx_32x32_xpm[] = {
"32 32 68 1",
" 	c None",
".	c #1E1E1E",
"+	c #3D3D3D",
"@	c #999999",
"#	c #7A7A7A",
"$	c #5C5C5C",
"%	c #739112",
"&	c #131313",
"*	c #873E14",
"=	c #683112",
"-	c #1C1C1C",
";	c #48240F",
">	c #141414",
",	c #2C190F",
"'	c #576B16",
")	c #485818",
"!	c #181818",
"~	c #676A0F",
"{	c #888C13",
"]	c #686C11",
"^	c #4A4C0F",
"/	c #313214",
"(	c #2E2E10",
"_	c #323415",
":	c #4A2610",
"<	c #673010",
"[	c #445213",
"}	c #2D3515",
"|	c #686A10",
"1	c #4E2914",
"2	c #342217",
"3	c #662F10",
"4	c #3E4E0E",
"5	c #1A1A1A",
"6	c #4C2712",
"7	c #45570B",
"8	c #3F500A",
"9	c #262D0E",
"0	c #632E10",
"a	c #4A3D33",
"b	c #4A585C",
"c	c #2B4A59",
"d	c #132C38",
"e	c #135577",
"f	c #0D71A3",
"g	c #47490D",
"h	c #473B32",
"i	c #102835",
"j	c #094E71",
"k	c #494B0E",
"l	c #171717",
"m	c #0E597E",
"n	c #0A567B",
"o	c #0D587E",
"p	c #0A5A81",
"q	c #0B5C85",
"r	c #102936",
"s	c #084969",
"t	c #161616",
"u	c #0F2834",
"v	c #151515",
"w	c #0A577E",
"x	c #0B5F8A",
"y	c #052E43",
"z	c #06364D",
"A	c #084462",
"B	c #094B6D",
"C	c #052C40",
"               ..               ",
"              ....              ",
"             .+@@..             ",
"            ..#@@@..            ",
"           ..#@@@@$..           ",
"          ..+@@@@@@$..          ",
"         ..+@@@@@@@@+..         ",
"        ..+@@#$..$@@@...        ",
"       ...#@#.....+@@#...       ",
"      ...$+........+$#$...      ",
"  %% .................#....     ",
" %%%&.......................    ",
" %%%&..........**=-..;*;.....   ",
" %%%>..........***,..;*;......  ",
" '%%>..........****>.;*;....... ",
".)%%>..!~{]-..^****=-;*;........",
".)%%>.../{{(._{**:<*,;*;....... ",
" '%%[)))}^{{>|{**12**3*;......  ",
" %%%%%%%45~{~{{**1.6***;.....   ",
"  7844449._{{{(**1.50abc-..def  ",
"     ......g{{-**1..2hffi.&ffj  ",
"      .....k{{.>>l...>mfn!ofp   ",
"       ....k{{........lffqff    ",
"        ...k{{.........rfffs    ",
"         ..t>>.........ufffs    ",
"          ............vffwff    ",
"           ..........-xfw qfw   ",
"            ........ yffz  ffs  ",
"             ....... AAB   CAA  ",
"              .....             ",
"               ...              ",
"                .               "};
