/* XPM */
static char * lynx_16x16_xpm[] = {
"16 16 40 1",
" 	c None",
".	c #1E1E1E",
"+	c #7A7A7A",
"@	c #5C5C5C",
"#	c #999999",
"$	c #4C4C4C",
"%	c #919191",
"&	c #6B6B6B",
"*	c #444444",
"=	c #2D2D2D",
"-	c #353535",
";	c #B6E01D",
">	c #191919",
",	c #522E19",
"'	c #E25F22",
")	c #211C1A",
"!	c #332116",
"~	c #1C1C1C",
"{	c #DDDD1F",
"]	c #30311A",
"^	c #5D3915",
"/	c #332016",
"(	c #303717",
"_	c #333B1B",
":	c #333416",
"<	c #6A3314",
"[	c #272D15",
"}	c #281F1A",
"|	c #6F3A1B",
"1	c #1B2225",
"2	c #173F53",
"3	c #352319",
"4	c #402515",
"5	c #2B241F",
"6	c #16A2E2",
"7	c #142D39",
"8	c #343416",
"9	c #153443",
"0	c #143343",
"a	c #182126",
"       ..       ",
"      .++.      ",
"     .@##@.     ",
"    .$%&&#*.    ",
"   .=@-..$+=.   ",
";;>........-..  ",
";;>....,')!'... ",
";;>~{].^''/'....",
";;(_{{:{'<''... ",
";;;;[{{{'}|'.12 ",
"   ..:{34.56766 ",
"    .8{....966  ",
"     ~>....066  ",
"      ....a6 66 ",
"       ...      ",
"        .       "};
