/* XPM */
static char * ooo_db_16x16_xpm[] = {
"16 16 45 1",
" 	c None",
".	c #9C9C9C",
"+	c #AAAAAA",
"@	c #808080",
"#	c #8E8E8E",
"$	c #929292",
"%	c #D5D5D5",
"&	c #FFFFFF",
"*	c #E3E3E3",
"=	c #636363",
"-	c #474747",
";	c #ABABAB",
">	c #646464",
",	c #2B2B2B",
"'	c #F1F1F1",
")	c #717171",
"!	c #555555",
"~	c #393939",
"{	c #121212",
"]	c #C7C7C7",
"^	c #C6C6C6",
"/	c #CECECE",
"(	c #404040",
"_	c #727272",
":	c #1C1C1C",
"<	c #B8F1F1",
"[	c #55FFFF",
"}	c #1C8E8E",
"|	c #EAEAEA",
"1	c #666666",
"2	c #B9B9B9",
"3	c #000000",
"4	c #B8B8B8",
"5	c #007171",
"6	c #00AAAA",
"7	c #397171",
"8	c #0E0E0E",
"9	c #AAAAE3",
"0	c #000039",
"a	c #AAAAF1",
"b	c #000047",
"c	c #AAAAB8",
"d	c #00000E",
"e	c #DCDCDC",
"f	c #151515",
"   .+++++.@#$   ",
"   %&&&&*=-;%$  ",
"   %&*>,,@&+&*$ ",
"   %*#.%%'&)!!~{",
"   %'*#!=]^&%%/(",
"   %'_:_<[}^&&|(",
"  1__:2*--:)+*|(",
"  :3~~4_22!567|(",
"1-$**++!]]!~~8|(",
"_@ %90~:~~~^#,|(",
"   %ab'^^#~*.,|(",
"   %cd]4#!8-,@|(",
"   %&&!_#++#!^|(",
"   %&&&^++++^&|(",
"   ]||||||||||e(",
"   ~(((((((((((f"};
