/* XPM */
static char * ooo_chart_16x16_xpm[] = {
"16 16 57 1",
" 	c None",
".	c #9C9C9C",
"+	c #AAAAAA",
"@	c #8E8E8E",
"#	c #929292",
"$	c #D5D5D5",
"%	c #FFFFFF",
"&	c #E3E3E3",
"*	c #555555",
"=	c #727272",
"-	c #393939",
";	c #717171",
">	c #C7C7C7",
",	c #808080",
"'	c #121212",
")	c #DCDCDC",
"!	c #A3A3A3",
"~	c #B8B8B8",
"{	c #80B880",
"]	c #71B871",
"^	c #C7D5C7",
"/	c #CECECE",
"(	c #404040",
"_	c #F8F8F8",
":	c #474747",
"<	c #2B2B2B",
"[	c #E3F1E3",
"}	c #EAEAEA",
"|	c #B8B88E",
"1	c #2B2B00",
"2	c #55AA55",
"3	c #5B5B5B",
"4	c #0E0E0E",
"5	c #FFFF8E",
"6	c #646455",
"7	c #808000",
"8	c #878787",
"9	c #323232",
"0	c #4E4E4E",
"a	c #AAAA00",
"b	c #55551C",
"c	c #FFFF1C",
"d	c #8E8E1C",
"e	c #646464",
"f	c #8D8D8D",
"g	c #71AA71",
"h	c #717139",
"i	c #C7C755",
"j	c #A3C0A3",
"k	c #87C087",
"l	c #8E8E55",
"m	c #8EAA8E",
"n	c #80B980",
"o	c #72AB72",
"p	c #F1F1F1",
"q	c #BFDCBF",
"r	c #151515",
"   .+++++++@#   ",
"   $%%%%%&*=$#  ",
"   $%%&$@-;@%&# ",
"   $%>*,*+%;**-'",
"   $)!$$~{]^$$/(",
"   $_):<.,[]%%}(",
"   >$-*>|1)_2%}(",
"  3--4>5678)2%}(",
" 390@@+abcd+2%}(",
"3ef)%&ghbib+2%}(",
",  $%%jkhlbmn%}(",
"   $%%_jg*mop%}(",
"   $%%%%jkop%%}(",
"   $%%%%_qp%%%}(",
"   >}}}}}}}}}})(",
"   -(((((((((((r"};
