/* XPM */
static char * ooo_global_16x16_xpm[] = {
"16 16 53 1",
" 	c None",
".	c #9C9C9C",
"+	c #AAAAAA",
"@	c #8E8E8E",
"#	c #929292",
"$	c #D5D5D5",
"%	c #FFFFFF",
"&	c #E3E3E3",
"*	c #555555",
"=	c #727272",
"-	c #393939",
";	c #717171",
">	c #C7C7C7",
",	c #808080",
"'	c #121212",
")	c #DCDCDC",
"!	c #A3A3A3",
"~	c #B8B8B8",
"{	c #C6C6E3",
"]	c #B9B9B9",
"^	c #CECECE",
"/	c #404040",
"(	c #F8F8F8",
"_	c #474747",
":	c #2B2B2B",
"<	c #5555AA",
"[	c #8E8EC7",
"}	c #EAEAEA",
"|	c #71719C",
"1	c #555580",
"2	c #7171AA",
"3	c #5B5B5B",
"4	c #0E0E0E",
"5	c #000047",
"6	c #1C1C63",
"7	c #323232",
"8	c #4E4E4E",
"9	c #C6C6C6",
"0	c #9C9CB8",
"a	c #2B2B80",
"b	c #1C55D5",
"c	c #2B9CB8",
"d	c #F1F1F1",
"e	c #646464",
"f	c #8D8D8D",
"g	c #55559C",
"h	c #A4A4A4",
"i	c #001C55",
"j	c #5572AA",
"k	c #959595",
"l	c #395555",
"m	c #8EAAAA",
"n	c #151515",
"   .+++++++@#   ",
"   $%%%%%&*=$#  ",
"   $%%&$@-;@%&# ",
"   $%>*,*@>***-'",
"   $)!$$~>{%]]^/",
"   $()_:.><[++}/",
"   >$-*>|12+=+}/",
"  3--4>@56**-+}/",
" 378@90abbac$d}/",
"3ef)&&$$6g$$.~}/",
",  $$$h}ij&+++}/",
"   $$$k)lm&+++}/",
"   $9@++*@++;+}/",
"   $&+++99+++&}/",
"   >}}}}}}}}}})/",
"   -///////////n"};
