/* XPM */
static char * ooo_html_16x16_xpm[] = {
"16 16 55 1",
" 	c None",
".	c #9C9C9C",
"+	c #AAAAAA",
"@	c #8E8E8E",
"#	c #929292",
"$	c #D5D5D5",
"%	c #FFFFFF",
"&	c #F1F1F1",
"*	c #808080",
"=	c #717171",
"-	c #B8B8B8",
";	c #474747",
">	c #E3E3E3",
",	c #636363",
"'	c #646464",
")	c #555555",
"!	c #393939",
"~	c #121212",
"{	c #C7C7C7",
"]	c #CECECE",
"^	c #404040",
"/	c #2B2B2B",
"(	c #EAEAEA",
"_	c #727272",
":	c #1C1C1C",
"<	c #B9B9B9",
"[	c #B8F1B8",
"}	c #71E38E",
"|	c #8E8EE3",
"1	c #A3DCA3",
"2	c #A3A3A3",
"3	c #1B1B1B",
"4	c #C6E3C6",
"5	c #8EE38E",
"6	c #39AA8E",
"7	c #00718E",
"8	c #15DC15",
"9	c #153215",
"0	c #666666",
"a	c #AAD5AA",
"b	c #009C00",
"c	c #001CC6",
"d	c #646480",
"e	c #555547",
"f	c #000047",
"g	c #9A9A9A",
"h	c #E3F1E3",
"i	c #39B839",
"j	c #001C8E",
"k	c #2B6480",
"l	c #1C1C47",
"m	c #717180",
"n	c #F8F8F8",
"o	c #DCDCDC",
"p	c #151515",
"   .+++++++@#   ",
"   $%%%%&*=@$#  ",
"   $%&$-;;+@%># ",
"   $>,*'*&%=))!~",
"   $.{$->%%%$$]^",
"   $>*/'{+{%%%(^",
"   ]_:<[}|12%%(^",
"  3^:_456789%%(^",
"0!!*=>abcdef%%(^",
";*g$%%hijklm%%(^",
"   $%%%%))@%%%(^",
"   $&$$$$$$$$$(^",
"   $n((((((((((^",
"   $n((((((((((^",
"   {((((((((((o^",
"   !^^^^^^^^^^^p"};
