/* XPM */
static char * phoenix_16x16_xpm[] = {
"16 16 256 2",
"  	c None",
". 	c #6A0202",
"+ 	c #8A3E02",
"@ 	c #9A7A02",
"# 	c #CEA61A",
"$ 	c #DEC60A",
"% 	c #FEFEFD",
"& 	c #FA0202",
"* 	c #F6DD11",
"= 	c #A65E02",
"- 	c #8A0202",
"; 	c #A62A02",
"> 	c #FEE666",
", 	c #CA7E02",
"' 	c #CE8A0C",
") 	c #C63602",
"! 	c #EEB25E",
"~ 	c #F8C850",
"{ 	c #C45C02",
"] 	c #F6DA32",
"^ 	c #F6EA26",
"/ 	c #A20202",
"( 	c #CEB616",
"_ 	c #F68C3A",
": 	c #EEC642",
"< 	c #F23E1E",
"[ 	c #EAB242",
"} 	c #A61E02",
"| 	c #D65602",
"1 	c #D28E06",
"2 	c #FA2A0E",
"3 	c #DA9206",
"4 	c #EA7A09",
"5 	c #FEEA46",
"6 	c #E26A06",
"7 	c #AE1702",
"8 	c #C44E02",
"9 	c #F2B202",
"0 	c #FEF2CA",
"a 	c #CE2606",
"b 	c #9A1E02",
"c 	c #EABA32",
"d 	c #F6C62A",
"e 	c #9E3E02",
"f 	c #B2A20E",
"g 	c #E4A80A",
"h 	c #EA8E32",
"i 	c #FEF646",
"j 	c #FEEE72",
"k 	c #E26222",
"l 	c #ECB709",
"m 	c #FA170A",
"n 	c #EEA63A",
"o 	c #FDDF5A",
"p 	c #EA7A16",
"q 	c #F69606",
"r 	c #FED69A",
"s 	c #EED60C",
"t 	c #B20202",
"u 	c #BA2202",
"v 	c #FCE412",
"w 	c #CE6202",
"x 	c #C22A02",
"y 	c #E9C90A",
"z 	c #FABE56",
"A 	c #DA8A02",
"B 	c #E28A32",
"C 	c #F3CE3B",
"D 	c #EA3A1A",
"E 	c #CE4202",
"F 	c #AA4202",
"G 	c #EE9A3E",
"H 	c #BA8A0A",
"I 	c #F0BE0D",
"J 	c #F6622C",
"K 	c #E6D20A",
"L 	c #BE7606",
"M 	c #FCC248",
"N 	c #B24E02",
"O 	c #FCDA3E",
"P 	c #DE9E08",
"Q 	c #FDF236",
"R 	c #921602",
"S 	c #860202",
"T 	c #FDF144",
"U 	c #B30F02",
"V 	c #FEF272",
"W 	c #DE9E22",
"X 	c #EEC61E",
"Y 	c #AC0E02",
"Z 	c #B07C04",
"` 	c #F4A62A",
" .	c #BE9E12",
"..	c #F80904",
"+.	c #CA4A02",
"@.	c #EECA2A",
"#.	c #F2A60E",
"$.	c #E6AE0A",
"%.	c #CA7404",
"&.	c #D38605",
"*.	c #DD9D1A",
"=.	c #E25226",
"-.	c #EA6C2C",
";.	c #E6C206",
">.	c #FED676",
",.	c #D29A06",
"'.	c #D21E08",
").	c #F04A16",
"!.	c #AE0402",
"~.	c #EE812E",
"{.	c #FEC282",
"].	c #8E0202",
"^.	c #AE2A02",
"/.	c #EEC222",
"(.	c #EE761A",
"_.	c #FEE66E",
":.	c #B63202",
"<.	c #EAB622",
"[.	c #FEC232",
"}.	c #FED24E",
"|.	c #FEEE2E",
"1.	c #BE1802",
"2.	c #BE6202",
"3.	c #FE6E2E",
"4.	c #BE3A02",
"5.	c #EE8A0A",
"6.	c #F2C60D",
"7.	c #FEEF57",
"8.	c #F8DC4E",
"9.	c #F7C010",
"0.	c #FEB66A",
"a.	c #F6D12B",
"b.	c #F6B226",
"c.	c #FEEA5E",
"d.	c #FA120A",
"e.	c #FAEA2A",
"f.	c #E69606",
"g.	c #FEF75A",
"h.	c #760202",
"i.	c #D64A02",
"j.	c #FDEB15",
"k.	c #F2D63E",
"l.	c #DE7A06",
"m.	c #EA962A",
"n.	c #DA7202",
"o.	c #FEF662",
"p.	c #FAA242",
"q.	c #EA8602",
"r.	c #EA9A2A",
"s.	c #C20602",
"t.	c #EED206",
"u.	c #EE9206",
"v.	c #E22E02",
"w.	c #F4A01C",
"x.	c #FE823E",
"y.	c #AA0A02",
"z.	c #FAE23E",
"A.	c #D65203",
"B.	c #FE4E22",
"C.	c #E2861E",
"D.	c #DEA602",
"E.	c #FEE28A",
"F.	c #DE561A",
"G.	c #E28A1A",
"H.	c #F0CB0C",
"I.	c #FAE226",
"J.	c #FAC93D",
"K.	c #F4A008",
"L.	c #BA8606",
"M.	c #F5D219",
"N.	c #FBAA53",
"O.	c #DE6E2A",
"P.	c #FAB64A",
"Q.	c #BE260E",
"R.	c #FA9647",
"S.	c #FAE63B",
"T.	c #B61E02",
"U.	c #9E0202",
"V.	c #FABA1E",
"W.	c #E69A1A",
"X.	c #FADE22",
"Y.	c #E49C06",
"Z.	c #F2D632",
"`.	c #E6921E",
" +	c #DEB20A",
".+	c #F6D61E",
"++	c #EA8A4A",
"@+	c #DE4A16",
"#+	c #FEB20E",
"$+	c #E68A02",
"%+	c #AE0A02",
"&+	c #FEFC6E",
"*+	c #FAE64C",
"=+	c #DB5D03",
"-+	c #FA1E0A",
";+	c #C63102",
">+	c #F7CD22",
",+	c #7E0202",
"'+	c #F0C234",
")+	c #C86A04",
"!+	c #D6A204",
"~+	c #F0A22C",
"{+	c #E2A216",
"]+	c #EB9E06",
"^+	c #FEF850",
"/+	c #FCF050",
"(+	c #FEDA4A",
"_+	c #F24D21",
":+	c #E86A12",
"<+	c #F6CA1A",
"[+	c #FAD64A",
"}+	c #EEA606",
"|+	c #F8A83C",
"1+	c #FAE622",
"2+	c #F2AE16",
"3+	c #DEA616",
"4+	c #EE8A32",
"5+	c #BE4A02",
"6+	c #FAC222",
"7+	c #FDEA38",
"8+	c #C63A12",
"9+	c #F2BA06",
"0+	c #FEEC20",
"a+	c #E2CE06",
"b+	c #D28206",
"c+	c #FECE5A",
"d+	c #F29236",
"e+	c #FA3216",
"f+	c #B6920E",
"g+	c #EEC20A",
"h+	c #EE7236",
"i+	c #FEEA86",
"j+	c #AA0202",
"k+	c #D17D08",
"l+	c #FEEE3A",
"m+	c #960202",
"n+	c #FDE133",
"o+	c #FAC64A",
"p+	c #FEDA0E",
"q+	c #F27E3A",
"r+	c #E6B60A",
"s+	c #FED65E",
"t+	c #FAE24A",
"u+	c #F6CE0E",
"v+	c #FCDE3D",
"w+	c #F1B13B",
"x+	c #B52702",
"y+	c #F9D63B",
"z+	c #E17106",
"A+	c #A40602",
"B+	c #B60602",
"C+	c #FCEA52",
"D+	c #AE6002",
"E+	c #F6D60A",
"F+	c #FAAA0E",
"G+	c #FAD630",
"                                ",
"                        W =     ",
"                    J  .B+      ",
"                  _ L /     (.  ",
"                p.&.m+  ~.f+    ",
"              N.I m+=.m.e       ",
"            N./+l.! 3+!.!.F.    ",
"          x.&+i /+S.n [ W +     ",
"        B.V 0.^+T 7+] C Y.U.    ",
"      m c.% M i l+l+v+<+9+x+    ",
"      ~ % 0 C+v+X.|.I.6.r+:.    ",
"    _ t+(+|+[.V.g+j.E+I g %+    ",
"  ..C v+2+A.4 q 9 * y r+5+      ",
"  h a.I 6 ; ) u.Y.$ !+) h.      ",
"  <.3 { 1.A+U z+w ;+h.          ",
":+b                             "};
