/* XPM */
static char * photopaint_16x16_xpm[] = {
"16 16 257 2",
"  	c None",
". 	c #151919",
"+ 	c #797E7C",
"@ 	c #D3B763",
"# 	c #F2D50A",
"$ 	c #BB8559",
"% 	c #C0B893",
"& 	c #7A4627",
"* 	c #BA9A4C",
"= 	c #DDD48E",
"- 	c #D2BC74",
"; 	c #494B4B",
"> 	c #F1C707",
", 	c #E99C38",
"' 	c #CCC8AC",
") 	c #D1D3D1",
"! 	c #E8D54D",
"~ 	c #4C280C",
"{ 	c #A39B7E",
"] 	c #EAAC27",
"^ 	c #DD7F33",
"/ 	c #B5B8B9",
"( 	c #ECB822",
"_ 	c #7E6641",
": 	c #DA8E24",
"< 	c #2D302F",
"[ 	c #E5E089",
"} 	c #B66A18",
"| 	c #676865",
"1 	c #EDE154",
"2 	c #D3C68C",
"3 	c #A8ADAC",
"4 	c #EE9C34",
"5 	c #EDB858",
"6 	c #E5C74A",
"7 	c #C4BDAB",
"8 	c #D9DED9",
"9 	c #EEE00F",
"0 	c #624D36",
"a 	c #EAB05C",
"b 	c #A1854A",
"c 	c #EDC00F",
"d 	c #EC9137",
"e 	c #EFAC2D",
"f 	c #D4C8B4",
"g 	c #C6AC68",
"h 	c #CCBF88",
"i 	c #9E6438",
"j 	c #4A3A29",
"k 	c #DF873A",
"l 	c #2A1808",
"m 	c #D4BF69",
"n 	c #C4C8C7",
"o 	c #AAA27C",
"p 	c #E7E1A1",
"q 	c #EFD430",
"r 	c #D8D3A4",
"s 	c #3D4140",
"t 	c #E9D2C5",
"u 	c #675D4C",
"v 	c #E3D46D",
"w 	c #E69E4C",
"x 	c #BDBFBE",
"y 	c #EBE06C",
"z 	c #ECC82C",
"A 	c #CE6E24",
"B 	c #EECA7C",
"C 	c #BBAF89",
"D 	c #E1A22F",
"E 	c #D3C99D",
"F 	c #ED963A",
"G 	c #7F736B",
"H 	c #EFA432",
"I 	c #EAC83C",
"J 	c #C9B87D",
"K 	c #232320",
"L 	c #EAE689",
"M 	c #C6C2AB",
"N 	c #F1B225",
"O 	c #8B9091",
"P 	c #402E1A",
"Q 	c #EAC02C",
"R 	c #E98832",
"S 	c #CDCDCC",
"T 	c #F2DA0F",
"U 	c #D7DAD3",
"V 	c #F2B81A",
"W 	c #B4AC96",
"X 	c #A18E67",
"Y 	c #664124",
"Z 	c #F5CE07",
"` 	c #E9E1E3",
" .	c #DDB84B",
"..	c #565754",
"+.	c #A4A5A3",
"@.	c #E5B236",
"#.	c #E0D4A3",
"$.	c #241408",
"%.	c #7F552C",
"&.	c #BDBAB1",
"*.	c #E2CE63",
"=.	c #D7782E",
"-.	c #DBB7A4",
";.	c #EED54F",
">.	c #E49148",
",.	c #EFE131",
"'.	c #635545",
").	c #5D351A",
"!.	c #F7AC28",
"~.	c #D8B151",
"{.	c #EBE66F",
"].	c #574A32",
"^.	c #F2C00A",
"/.	c #F09049",
"(.	c #E1C046",
"_.	c #ADA18B",
":.	c #E9A335",
"<.	c #B1B2AF",
"[.	c #92846E",
"}.	c #F6D405",
"|.	c #BE9144",
"1.	c #D7D5D2",
"2.	c #E68133",
"3.	c #8F6531",
"4.	c #EBE17F",
"5.	c #E1CCC0",
"6.	c #C9C097",
"7.	c #705B32",
"8.	c #C7B98D",
"9.	c #EA8840",
"0.	c #997556",
"a.	c #965A20",
"b.	c #BEA470",
"c.	c #362418",
"d.	c #6A7274",
"e.	c #CD7F2C",
"f.	c #D09C60",
"g.	c #B97329",
"h.	c #5C4124",
"i.	c #8E522C",
"j.	c #CEAA9C",
"k.	c #8E7553",
"l.	c #4C3322",
"m.	c #AE8644",
"n.	c #828989",
"o.	c #C6A561",
"p.	c #A86E30",
"q.	c #EBC147",
"r.	c #D28A4C",
"s.	c #A6723C",
"t.	c #804C1C",
"u.	c #A49088",
"v.	c #8C6C3E",
"w.	c #3A3732",
"x.	c #865E1C",
"y.	c #D4C1B8",
"z.	c #525251",
"A.	c #4B4337",
"B.	c #DAA644",
"C.	c #76664C",
"D.	c #6E3E24",
"E.	c #CEA674",
"F.	c #E6C27C",
"G.	c #C0ACA4",
"H.	c #C49468",
"I.	c #C46A20",
"J.	c #201C0F",
"K.	c #9E9D96",
"L.	c #A3846A",
"M.	c #F0CA6C",
"N.	c #905C34",
"O.	c #5E6264",
"P.	c #6F4B2C",
"Q.	c #968E84",
"R.	c #41220F",
"S.	c #847E60",
"T.	c #E2E6D4",
"U.	c #DEDAD2",
"V.	c #7A7A7C",
"W.	c #D5CEB9",
"X.	c #74624B",
"Y.	c #EEBF62",
"Z.	c #E07126",
"`.	c #A75B21",
" +	c #E3DA84",
".+	c #4C2E1D",
"++	c #E59633",
"@+	c #DDCE81",
"#+	c #AEA67C",
"$+	c #9A969C",
"%+	c #CECEAC",
"&+	c #E0A660",
"*+	c #8A7A64",
"=+	c #D4B26A",
"-+	c #BAA69C",
";+	c #191E1C",
">+	c #323634",
",+	c #CDB26E",
"'+	c #E8E69C",
")+	c #E7DA6C",
"!+	c #E0964C",
"~+	c #9E7A51",
"{+	c #BDB2A2",
"]+	c #E8AC3A",
"^+	c #F19B4E",
"/+	c #DFC863",
"(+	c #BE8A5C",
"_+	c #826E40",
":+	c #C89C34",
"<+	c #6A361C",
"[+	c #767A74",
"}+	c #E9DA5A",
"|+	c #F1DA30",
"1+	c #404647",
"2+	c #A69668",
"3+	c #5A5E64",
"4+	c #C3C2C4",
"5+	c #7A5E44",
"6+	c #8A421C",
"7+	c #DF792B",
"8+	c #6B5647",
"9+	c #E0C0B0",
"0+	c #666E6C",
"a+	c #C4CECC",
"b+	c #D8CE99",
"c+	c #222A2C",
"d+	c #8E9694",
"e+	c #ECE6E4",
"f+	c #B0A68C",
"g+	c #968A64",
"h+	c #362A19",
"i+	c #E1DEDA",
"j+	c #D4802C",
"k+	c #B86834",
"l+	c #DCC05A",
"m+	c #6E5A54",
"n+	c #B28864",
"o+	c #D4C281",
"p+	c #E1DAA3",
"q+	c #EFDA4A",
"r+	c #766E64",
"s+	c #AAB2B4",
"t+	c #D6B2A4",
"u+	c #724622",
"v+	c #AE7A3C",
"w+	c #EECE2C",
"x+	c #EBCE41",
"y+	c #949690",
"z+	c #8E6E5C",
"A+	c #828284",
"B+	c #E3D481",
"C+	c #F7C905",
"D+	c #E59039",
"E+	c #F6E254",
"F+	c #DBCA84",
"G+	c #B4A068",
"H+	c #C6B27C",
", R Z.Z.R B.(.@ G+0.[.<.| n U.5.",
"H H k } ~ c.l.J.K w.S.) +.3 8 5.",
"N V ^.V `.l.7.b _ 7.p+' &.s+1.t ",
"!.V > }.D g.3.3.b p p+' &.+.S t ",
"e N ^.Z }.9 E+4.4.'+p+M &.3 S t ",
":.] c C+}.# ,.{.{.'+p+M &./ S t ",
"4 H V > }.}.,.1 4.[ r % <./ S t ",
"d 4 ] V C+# T 1 4.[ b+W W n S 5.",
"D+4 H V > Z T q+)+ +2 f+1.a+<.5.",
"2.d H ] V > # ! )+B+o+#+s . c+u.",
"2.D+H ] V c w+! *.@+@+C u | 1+8+",
"R d 4 H ] V > x+*.@+@+r ' n x Q.",
"++d , H ] N c I /+*.2 6.6.x n -.",
"F 4 4 4 ] N ( Q l+/+J % % a+) y.",
", , 4 4 :.e N @. .@ ,+J f+1+1+G ",
"|.d D+++:.D D @.~.,+G+h+A.s < m+"};
