/* XPM */
static char * quicktime_32x32_xpm[] = {
"32 32 495 2",
"  	c None",
". 	c #4F7FB7",
"+ 	c #749FCF",
"@ 	c #7AA4CD",
"# 	c #86AAD1",
"$ 	c #8CABCE",
"% 	c #94B2D6",
"& 	c #7695C3",
"* 	c #5388C0",
"= 	c #7CAAD4",
"- 	c #99CDEB",
"; 	c #93CBEC",
"> 	c #6CB1E4",
", 	c #4B9BDC",
"' 	c #328BD4",
") 	c #2781CF",
"! 	c #277DC7",
"~ 	c #2A7CC4",
"{ 	c #1362B4",
"] 	c #2C65AD",
"^ 	c #4F79B3",
"/ 	c #6597CB",
"( 	c #90BFE1",
"_ 	c #97D0F2",
": 	c #51A6E3",
"< 	c #288EDD",
"[ 	c #268AE2",
"} 	c #2C91E5",
"| 	c #2C90E6",
"1 	c #2B8DE1",
"2 	c #278ADC",
"3 	c #2686D8",
"4 	c #2481D2",
"5 	c #1E7AC8",
"6 	c #1771BF",
"7 	c #1164B7",
"8 	c #215FAC",
"9 	c #6386BC",
"0 	c #83AFD6",
"a 	c #A3D2F1",
"b 	c #489DE2",
"c 	c #298FE6",
"d 	c #329EF4",
"e 	c #38A6F7",
"f 	c #37AAFB",
"g 	c #38A9FB",
"h 	c #36A9FB",
"i 	c #33A3F9",
"j 	c #339BF2",
"k 	c #2C90E2",
"l 	c #298BDD",
"m 	c #2888DA",
"n 	c #2783D4",
"o 	c #1F7BCB",
"p 	c #1971C1",
"q 	c #125FAF",
"r 	c #3568AC",
"s 	c #94BDE1",
"t 	c #7DBEEA",
"u 	c #2A8DDE",
"v 	c #38ADFC",
"w 	c #3AB4FD",
"x 	c #39B5FD",
"y 	c #37AFFD",
"z 	c #30AAFC",
"A 	c #2EA6FA",
"B 	c #2DA2F9",
"C 	c #2BA0F7",
"D 	c #2A99F2",
"E 	c #268DE4",
"F 	c #2788DC",
"G 	c #2989D9",
"H 	c #2C86D4",
"I 	c #2A82D0",
"J 	c #277CC9",
"K 	c #1266B8",
"L 	c #3367AC",
"M 	c #9AB7D6",
"N 	c #65AEE4",
"O 	c #298EE0",
"P 	c #34A4F9",
"Q 	c #3DB6FD",
"R 	c #3AB8FC",
"S 	c #33AFFC",
"T 	c #259AF0",
"U 	c #167ED4",
"V 	c #1C72C8",
"W 	c #2D75C4",
"X 	c #1566BB",
"Y 	c #2E79C3",
"Z 	c #1873CA",
"` 	c #1980D9",
" .	c #2088DD",
"..	c #2386D7",
"+.	c #2486DA",
"@.	c #4092DE",
"#.	c #4288CE",
"$.	c #3A8AD4",
"%.	c #1567B9",
"&.	c #3164A9",
"*.	c #7FA5CC",
"=.	c #68AEE3",
"-.	c #258EE3",
";.	c #37A3F8",
">.	c #3FB8FB",
",.	c #39B7FC",
"'.	c #2AA2F5",
").	c #1A77CE",
"!.	c #2F71BB",
"~.	c #5D88BE",
"{.	c #206BBE",
"].	c #1477CD",
"^.	c #378DD2",
"/.	c #4D93D5",
"(.	c #4F97DE",
"_.	c #1666B6",
":.	c #5B82B8",
"<.	c #78B0DD",
"[.	c #2288DB",
"}.	c #329EF2",
"|.	c #3CB3FD",
"1.	c #38B7FC",
"2.	c #269DF1",
"3.	c #1F70C3",
"4.	c #7A9FCD",
"5.	c #5189C0",
"6.	c #2883D2",
"7.	c #52A0E9",
"8.	c #4797DF",
"9.	c #2467B6",
"0.	c #8EAED4",
"a.	c #2685D4",
"b.	c #2E92E7",
"c.	c #39A9FA",
"d.	c #35B5FC",
"e.	c #27A0F6",
"f.	c #2273C4",
"g.	c #60A1DC",
"h.	c #2A78C4",
"i.	c #5480B4",
"j.	c #1D7DCA",
"k.	c #2786D6",
"l.	c #3A93E1",
"m.	c #5FABEE",
"n.	c #3788D6",
"o.	c #4474B7",
"p.	c #277BC4",
"q.	c #2389DA",
"r.	c #329DF2",
"s.	c #38AEFD",
"t.	c #2FAAFB",
"u.	c #1879CF",
"v.	c #5CABE8",
"w.	c #218AE1",
"x.	c #519BD8",
"y.	c #5C90C5",
"z.	c #127BCD",
"A.	c #2583D6",
"B.	c #2C8BDB",
"C.	c #59A9EE",
"D.	c #5AA7EE",
"E.	c #236CBA",
"F.	c #437CBA",
"G.	c #1575C8",
"H.	c #298FE2",
"I.	c #37A1F7",
"J.	c #33ADFD",
"K.	c #2296EE",
"L.	c #3874BC",
"M.	c #BFE2F6",
"N.	c #5FB5F0",
"O.	c #299DF5",
"P.	c #549ADE",
"Q.	c #2B82C8",
"R.	c #1D80D0",
"S.	c #2587D8",
"T.	c #469DE7",
"U.	c #67B6F7",
"V.	c #2880D2",
"W.	c #2A6FB6",
"X.	c #1C7DCC",
"Y.	c #2F92E6",
"Z.	c #35A4FB",
"`.	c #2FA7FC",
" +	c #167AD5",
".+	c #65BAF3",
"++	c #2FA1F2",
"@+	c #4A9CE2",
"#+	c #5098D2",
"$+	c #177DCD",
"%+	c #2185D5",
"&+	c #3793E2",
"*+	c #6ABAF9",
"=+	c #439CE7",
"-+	c #3873B5",
";+	c #1B6CB9",
">+	c #2183D5",
",+	c #3094E8",
"'+	c #33A3FA",
")+	c #2AA1FA",
"!+	c #2B7DCB",
"~+	c #A3CDED",
"{+	c #5EB8F3",
"]+	c #2EA5F4",
"^+	c #4798DE",
"/+	c #1E80CE",
"(+	c #2184D5",
"_+	c #308FDE",
":+	c #66BCF8",
"<+	c #5BB1F2",
"[+	c #2B72BE",
"}+	c #0F65B7",
"|+	c #2387D5",
"1+	c #3294E6",
"2+	c #31A1F9",
"3+	c #279DF6",
"4+	c #2475C2",
"5+	c #67A9DB",
"6+	c #3380C7",
"7+	c #238BE0",
"8+	c #4A9ADE",
"9+	c #3290D4",
"0+	c #2184D6",
"a+	c #2D8DE0",
"b+	c #65BCF8",
"c+	c #66C1F9",
"d+	c #2F76C3",
"e+	c #0D64B9",
"f+	c #2686D9",
"g+	c #3292E5",
"h+	c #309CF6",
"i+	c #2795F0",
"j+	c #3480C8",
"k+	c #297AC3",
"l+	c #1C82CA",
"m+	c #3997DD",
"n+	c #1F84D4",
"o+	c #2E8EE0",
"p+	c #69BDF7",
"q+	c #6FCCFB",
"r+	c #276FC2",
"s+	c #0F66B8",
"t+	c #2582D4",
"u+	c #3092E5",
"v+	c #2F95EC",
"w+	c #2293EC",
"x+	c #2677C4",
"y+	c #2273BD",
"z+	c #1C83CA",
"A+	c #4D92CF",
"B+	c #3B99DC",
"C+	c #2084D3",
"D+	c #3190E5",
"E+	c #6BC4FA",
"F+	c #6FD0FA",
"G+	c #2B71BF",
"H+	c #1665B6",
"I+	c #1F7ED1",
"J+	c #2F91E4",
"K+	c #2D91E8",
"L+	c #268EE3",
"M+	c #2881CC",
"N+	c #3391DD",
"O+	c #2285D3",
"P+	c #3997E8",
"Q+	c #70CDFC",
"R+	c #6FCEF9",
"S+	c #3573BB",
"T+	c #1E69BA",
"U+	c #1B77C8",
"V+	c #2D8EE0",
"W+	c #2D91E3",
"X+	c #268CE1",
"Y+	c #1277CD",
"Z+	c #8CCAEC",
"`+	c #2789DA",
" @	c #2386D8",
".@	c #45A4F0",
"+@	c #78D6FC",
"@@	c #62C4F6",
"#@	c #2660B0",
"$@	c #3974B7",
"%@	c #1170C2",
"&@	c #2A8ADB",
"*@	c #2C90E1",
"=@	c #278CDD",
"-@	c #1A82D7",
";@	c #3179C3",
">@	c #5DB3EA",
",@	c #1F81D4",
"'@	c #298CE2",
")@	c #56B7F9",
"!@	c #7DDBFD",
"~@	c #50ABE2",
"{@	c #3F6BAB",
"]@	c #0D68BC",
"^@	c #2181D3",
"/@	c #2B8EDF",
"(@	c #2286D8",
"_@	c #1275CA",
":@	c #86C7EE",
"<@	c #2F92DB",
"[@	c #2387D9",
"}@	c #3396EA",
"|@	c #60C1FB",
"1@	c #7EDBFD",
"2@	c #3987CB",
"3@	c #1D67B3",
"4@	c #1775C7",
"5@	c #2A8DDD",
"6@	c #2F90E0",
"7@	c #2A8BDB",
"8@	c #1D81D5",
"9@	c #2175C0",
"0@	c #97D0EB",
"a@	c #49A7E5",
"b@	c #1F82D2",
"c@	c #298ADC",
"d@	c #409EED",
"e@	c #68C1FB",
"f@	c #76CBF9",
"g@	c #376DB6",
"h@	c #4374B5",
"i@	c #0D6BC0",
"j@	c #2281D5",
"k@	c #2F90E1",
"l@	c #2F8FE0",
"m@	c #278ADB",
"n@	c #1B80D2",
"o@	c #1C77C6",
"p@	c #6AA0D5",
"q@	c #83C5F1",
"r@	c #4CA7E5",
"s@	c #2284D3",
"t@	c #2889DA",
"u@	c #308EE0",
"v@	c #4EA2EC",
"w@	c #6EBAF9",
"x@	c #4892D5",
"y@	c #2464B0",
"z@	c #1276C9",
"A@	c #2889DC",
"B@	c #2E90E0",
"C@	c #2C8FDF",
"D@	c #2589D9",
"E@	c #1F81D0",
"F@	c #1378C9",
"G@	c #3D8ECD",
"H@	c #63A8DE",
"I@	c #7FC4ED",
"J@	c #5EB3EA",
"K@	c #3294DC",
"L@	c #2083D5",
"M@	c #2788DB",
"N@	c #2F8EE0",
"O@	c #318FE2",
"P@	c #3F99E8",
"Q@	c #68B4F4",
"R@	c #2E79C5",
"S@	c #6992C2",
"T@	c #0F5FB3",
"U@	c #177AD0",
"V@	c #2A8EDF",
"W@	c #2E91E0",
"X@	c #2D8FDF",
"Y@	c #268CDD",
"Z@	c #2386D6",
"`@	c #1C80CF",
" #	c #187ECC",
".#	c #2183CE",
"+#	c #288AD6",
"@#	c #3594DB",
"##	c #3596DC",
"$#	c #3191D7",
"%#	c #2688D3",
"&#	c #228ADA",
"*#	c #2A8EE1",
"=#	c #2F8FE2",
"-#	c #308FE1",
";#	c #3191E2",
">#	c #3591E2",
",#	c #4DA1EA",
"'#	c #68B3F2",
")#	c #2570C2",
"!#	c #5271AA",
"~#	c #1164BA",
"{#	c #1A7ED6",
"]#	c #2891E2",
"^#	c #2E92E2",
"/#	c #3091E3",
"(#	c #2D8EDF",
"_#	c #298CDB",
":#	c #258ADC",
"<#	c #2388D7",
"[#	c #2086D5",
"}#	c #2085D4",
"|#	c #1F85D5",
"1#	c #2288DA",
"2#	c #288DDE",
"3#	c #2C93E7",
"4#	c #329CF1",
"5#	c #349FF6",
"6#	c #3197EE",
"7#	c #308EDF",
"8#	c #3793E3",
"9#	c #3E98E6",
"0#	c #5EB4F6",
"a#	c #6CBDF3",
"b#	c #1C69BC",
"c#	c #5776AF",
"d#	c #1461B3",
"e#	c #1680DB",
"f#	c #2693EA",
"g#	c #3196ED",
"h#	c #3098ED",
"i#	c #3196EA",
"j#	c #3195E6",
"k#	c #3094E7",
"l#	c #3195E5",
"m#	c #3296E9",
"n#	c #3197EB",
"o#	c #339CF0",
"p#	c #36A2F7",
"q#	c #3AADFC",
"r#	c #36ADFD",
"s#	c #339EF6",
"t#	c #2588DA",
"u#	c #278BDB",
"v#	c #3396E6",
"w#	c #3F9EED",
"x#	c #50ADF3",
"y#	c #74D2FD",
"z#	c #1876CC",
"A#	c #19539F",
"B#	c #1174CD",
"C#	c #208FE8",
"D#	c #2E9BF5",
"E#	c #32A1F9",
"F#	c #32A3FA",
"G#	c #35A5FB",
"H#	c #38A7FC",
"I#	c #39AAFC",
"J#	c #39ACFD",
"K#	c #3AB1FD",
"L#	c #3AB5FD",
"M#	c #31ACF9",
"N#	c #2E9EF5",
"O#	c #479CE8",
"P#	c #1865B7",
"Q#	c #1980D6",
"R#	c #2E98EE",
"S#	c #45AAF7",
"T#	c #56BBFA",
"U#	c #73D6FC",
"V#	c #1777D2",
"W#	c #355599",
"X#	c #1754A5",
"Y#	c #126FC7",
"Z#	c #1B8AE5",
"`#	c #279AF3",
" $	c #2DA1F8",
".$	c #30A7FB",
"+$	c #31AAFB",
"@$	c #30A9F9",
"#$	c #2CA3F8",
"$$	c #2598F2",
"%$	c #1887E1",
"&$	c #1473CD",
"*$	c #3280C6",
"=$	c #689ECF",
"-$	c #175BAB",
";$	c #1D8DE7",
">$	c #3DAEF9",
",$	c #53C4FB",
"'$	c #71D8FD",
")$	c #1D7ED5",
"!$	c #566FA6",
"~$	c #2955A0",
"{$	c #1B53A4",
"]$	c #0B54AB",
"^$	c #0D5DB9",
"/$	c #0E61B9",
"($	c #0B5AB8",
"_$	c #0B52A9",
":$	c #1F57A7",
"<$	c #3362A9",
"[$	c #1558AB",
"}$	c #2285DC",
"|$	c #429BE4",
"1$	c #5AABE9",
"2$	c #3B91D8",
"3$	c #749EC8",
"4$	c #72A0D4",
"5$	c #77A9D8",
"6$	c #7CB0DB",
"                                                                ",
"                        . + @ # $ % &                           ",
"                  * = - ; > , ' ) ! ~ { ] ^                     ",
"              / ( _ : < [ } | 1 2 3 4 5 6 7 8 9                 ",
"            0 a b c d e f g h i j k l m n o p q r               ",
"          s t u d v w x y z A B C D E F G H I J K L             ",
"        M N O P Q R S T U V W X Y Z `  ...+.@.#.$.%.&.          ",
"      *.=.-.;.>.,.'.).!.            ~.{.].^.    /.(._.:.        ",
"      <.[.}.|.1.2.3.                    4.    5.6.7.8.9.        ",
"    0.a.b.c.d.e.f.                      g.h.i.j.k.l.m.n.o.      ",
"    p.q.r.s.t.u.                      v.w.x.y.z.A.B.C.D.E.      ",
"  F.G.H.I.J.K.L.                  M.N.O.P.    Q.R.S.T.U.V.      ",
"  W.X.Y.Z.`. +                    .+++@+      #+$+%+&+*+=+-+    ",
"  ;+>+,+'+)+!+                ~+{+]+^+          /+(+_+:+<+[+    ",
"  }+|+1+2+3+4+              5+6+7+8+            9+0+a+b+c+d+    ",
"  e+f+g+h+i+j+              k+  l+              m+n+o+p+q+r+    ",
"  s+t+u+v+w+x+              y+z+A+              B+C+D+E+F+G+    ",
"  H+I+J+K+L+M+                                  N+O+P+Q+R+S+    ",
"  T+U+V+W+X+Y+                                Z+`+ @.@+@@@#@    ",
"  $@%@&@*@=@-@;@                              >@,@'@)@!@~@{@    ",
"    ]@^@*@/@(@_@                            :@<@[@}@|@1@2@      ",
"    3@4@5@6@7@8@9@                        0@a@b@c@d@e@f@g@      ",
"    h@i@j@k@l@m@n@o@p@                  q@r@s@t@u@v@w@x@        ",
"      y@z@A@B@C@D@E@F@G@H@          I@J@K@L@M@N@O@P@Q@R@S@      ",
"        T@U@V@W@X@Y@Z@`@ #.#+#@###$#%#n+&#*#=#-#;#>#,#'#)#      ",
"        !#~#{#]#^#/#(#_#:#<#[#}#|#1#2#3#4#5#6#J+7#8#9#0#a#b#    ",
"          c#d#e#f#g#h#i#j#k#l#m#n#o#p#q#|.r#s#t#u#v#w#x#y#z#    ",
"              A#B#C#D#E#F#G#H#I#J#K#L#,.M#N#O#P#Q#R#S#T#U#V#    ",
"                W#X#Y#Z#`# $.$+$@$#$$$%$&$*$=$  -$;$>$,$'$)$    ",
"                    !$~${$]$^$/$($_$:$<$          [$}$|$1$2$    ",
"                                                    3$4$5$6$    ",
"                                                                "};
