/* XPM */
static char * quicktime_16x16_xpm[] = {
"16 16 126 2",
"  	c None",
". 	c #81B4DD",
"+ 	c #64ABE0",
"@ 	c #54A6E6",
"# 	c #3591DE",
"$ 	c #2784D2",
"% 	c #2076C4",
"& 	c #256CB6",
"* 	c #73B3E4",
"= 	c #379EEE",
"- 	c #37ABF9",
"; 	c #36ABFC",
"> 	c #31A5FA",
", 	c #2D99EF",
"' 	c #288ADE",
") 	c #2783D3",
"! 	c #1F74C2",
"~ 	c #2767B1",
"{ 	c #62A8E0",
"] 	c #35A3F3",
"^ 	c #36B2FA",
"/ 	c #288DDF",
"( 	c #297DCB",
"_ 	c #327EC9",
": 	c #277ECF",
"< 	c #2484D4",
"[ 	c #4A91D6",
"} 	c #3B87D0",
"| 	c #326EB3",
"1 	c #65A0D6",
"2 	c #2F98EC",
"3 	c #34B0FB",
"4 	c #2680D2",
"5 	c #629BD3",
"6 	c #3E83C2",
"7 	c #378FDC",
"8 	c #408CD6",
"9 	c #2282D2",
"0 	c #35A6F9",
"a 	c #278DDF",
"b 	c #59AEEE",
"c 	c #4396DD",
"d 	c #3084CA",
"e 	c #2585D6",
"f 	c #58A9EE",
"g 	c #357CC6",
"h 	c #2E76BC",
"i 	c #278ADC",
"j 	c #30A4FB",
"k 	c #3082CF",
"l 	c #61BAF4",
"m 	c #429EE7",
"n 	c #1E82D1",
"o 	c #4EA6EC",
"p 	c #4290D6",
"q 	c #1166B8",
"r 	c #2B8DDE",
"s 	c #2C9CF5",
"t 	c #4A95D1",
"u 	c #3A94DA",
"v 	c #2A8CD7",
"w 	c #4AA5EC",
"x 	c #4B9CDE",
"y 	c #1A68B7",
"z 	c #2888DB",
"A 	c #2992E9",
"B 	c #2E82C6",
"C 	c #2C8DD8",
"D 	c #51AEF1",
"E 	c #50A1DB",
"F 	c #1F7BCC",
"G 	c #2A8EE0",
"H 	c #2880CE",
"I 	c #2487DA",
"J 	c #64C3F8",
"K 	c #4997D4",
"L 	c #1871C2",
"M 	c #2C8FDF",
"N 	c #1F82D5",
"O 	c #429DDF",
"P 	c #3091E3",
"Q 	c #6FCAFB",
"R 	c #4380C2",
"S 	c #256CB7",
"T 	c #2384D7",
"U 	c #2C8EDE",
"V 	c #1F80D0",
"W 	c #3A8BCE",
"X 	c #439EE0",
"Y 	c #2889DA",
"Z 	c #3C96E6",
"` 	c #539EE2",
" .	c #1C6BBC",
"..	c #268CDE",
"+.	c #2C90E0",
"@.	c #2588D8",
"#.	c #2085D3",
"$.	c #278AD6",
"%.	c #2A8DD8",
"&.	c #268BDB",
"*.	c #2C95E8",
"=.	c #3092E5",
"-.	c #3391E2",
";.	c #54A8EE",
">.	c #418AD0",
",.	c #1E68B8",
"'.	c #228BE3",
").	c #309AF1",
"!.	c #329CF0",
"~.	c #359FF2",
"{.	c #36A4F5",
"].	c #39AFFB",
"^.	c #34AAFA",
"/.	c #2E8ADC",
"(.	c #288EE1",
"_.	c #4AACF4",
":.	c #46A5E6",
"<.	c #2671C0",
"[.	c #1E78CE",
"}.	c #1F84DA",
"|.	c #1C7ED4",
"1.	c #2377CA",
"2.	c #3480C9",
"3.	c #1C6BBE",
"4.	c #3DA4ED",
"5.	c #49A4E5",
"                                ",
"        . + @ # $ % &           ",
"      * = - ; > , ' ) ! ~       ",
"    { ] ^ / (   _ : < [ } |     ",
"  1 2 3 4           5 6 7 8     ",
"  9 0 a           b c d e f g   ",
"h i j k         l m     n o p   ",
"q r s         t u       v w x   ",
"y z A         B         C D E   ",
"y F G H                 I J K   ",
"  L M N               O P Q R   ",
"  S T U V W         X Y Z `     ",
"     ...+.@.#.$.%.&.*.=.-.;.>.  ",
"      ,.'.).!.~.{.].^./.(._.:.  ",
"          <.[.}.|.1.2.  3.4.5.  ",
"                                "};
