/* XPM */
static char * sybase_16x16_xpm[] = {
"16 16 55 1",
" 	c None",
".	c #F5F5F7",
"+	c #F1F2F5",
"@	c #9E9DB6",
"#	c #78789B",
"$	c #9695B0",
"%	c #7F7C9E",
"&	c #717497",
"*	c #C6C5D6",
"=	c #FBFBFC",
"-	c #7C7D9F",
";	c #C7C6D5",
">	c #FFFFFF",
",	c #FDFCFC",
"'	c #C5C4D3",
")	c #FCFDFD",
"!	c #8380A2",
"~	c #9898B2",
"{	c #D2D2DE",
"]	c #C5C5D3",
"^	c #E8E7ED",
"/	c #8887A6",
"(	c #575581",
"_	c #8D8AA9",
":	c #B3B1C5",
"<	c #BCBCCE",
"[	c #676990",
"}	c #A2A2BA",
"|	c #7E7FA0",
"1	c #9C9BB5",
"2	c #C2BDCD",
"3	c #C1BDCD",
"4	c #C0BCCC",
"5	c #9A98B4",
"6	c #8E8BA8",
"7	c #AFAAC1",
"8	c #9394B1",
"9	c #8687A5",
"0	c #FAF9FB",
"a	c #CFCFDC",
"b	c #9F9EB6",
"c	c #9794B1",
"d	c #CDCDDA",
"e	c #FEFEFE",
"f	c #908FAC",
"g	c #BDBDCE",
"h	c #B1B0C6",
"i	c #888AA7",
"j	c #D3D2DE",
"k	c #ECEEF2",
"l	c #ECEEF1",
"m	c #E4E3EA",
"n	c #A1A0B9",
"o	c #76779B",
"p	c #747497",
"                ",
"    .+@#$%&*    ",
"    =-;>,')!    ",
"    ~{>>,]>^    ",
"    />>>>(_:    ",
"    <>>>>[}|    ",
"    12324567    ",
"    <>>>>>>>    ",
"    8>>>>>>>    ",
"    90>>>>>>    ",
"    ab>>>>>>    ",
"    >cd>>>>>    ",
"    >efg>>>>    ",
"    >>>hij>>    ",
"    klllmnop    ",
"                "};
