/* XPM */
static char * sybase_32x32_xpm[] = {
"32 32 189 2",
"  	c None",
". 	c #666676",
"+ 	c #EDEDF2",
"@ 	c #E9E9EF",
"# 	c #E5E6EC",
"$ 	c #BFC0D0",
"% 	c #787899",
"& 	c #414273",
"* 	c #4D4A78",
"= 	c #565680",
"- 	c #454373",
"; 	c #524E7C",
"> 	c #454475",
", 	c #8385A2",
"' 	c #DAD9E5",
") 	c #929299",
"! 	c #6A6A7E",
"~ 	c #FFFFFF",
"{ 	c #F4F7F7",
"] 	c #8D88A8",
"^ 	c #494877",
"/ 	c #747699",
"( 	c #B3B3C7",
"_ 	c #D6D4E0",
": 	c #E0E0E8",
"< 	c #8E8AAA",
"[ 	c #D9D6E2",
"} 	c #ADB1C5",
"| 	c #515781",
"1 	c #757199",
"2 	c #E3E1EB",
"3 	c #A1A4A4",
"4 	c #6C6C7E",
"5 	c #D5D4E1",
"6 	c #5F608B",
"7 	c #6A6891",
"8 	c #CBC8D6",
"9 	c #FDF9F9",
"0 	c #9491AE",
"a 	c #F7F7F9",
"b 	c #747299",
"c 	c #5D5C87",
"d 	c #929499",
"e 	c #F0F0F4",
"f 	c #53537E",
"g 	c #6B6E92",
"h 	c #EBE9F0",
"i 	c #F9F9F9",
"j 	c #E2DFE8",
"k 	c #595682",
"l 	c #454762",
"m 	c #6A687E",
"n 	c #F0EFF4",
"o 	c #727196",
"p 	c #79799A",
"q 	c #EEF0F4",
"r 	c #B7B2C8",
"s 	c #202042",
"t 	c #6E6C7E",
"u 	c #B9B8CC",
"v 	c #464875",
"w 	c #E5E3EB",
"x 	c #9493AE",
"y 	c #F7F9F9",
"z 	c #EBECF0",
"A 	c #6D6C80",
"B 	c #595984",
"C 	c #A4A0B8",
"D 	c #64608C",
"E 	c #625C87",
"F 	c #67668B",
"G 	c #8D88A9",
"H 	c #9190AA",
"I 	c #8D87A6",
"J 	c #504E66",
"K 	c #4E4D7A",
"L 	c #D7D7E2",
"M 	c #4C4E7A",
"N 	c #4A4A78",
"O 	c #6C6A93",
"P 	c #D5D1E0",
"Q 	c #ECEDF1",
"R 	c #C4C0D4",
"S 	c #727195",
"T 	c #F7F5F7",
"U 	c #414373",
"V 	c #AAADC0",
"W 	c #928FAD",
"X 	c #E1E1E9",
"Y 	c #DEDEE7",
"Z 	c #5F638B",
"` 	c #3A3854",
" .	c #8B8DAE",
"..	c #484A7A",
"+.	c #6B6B94",
"@.	c #77779A",
"#.	c #A1A1B9",
"$.	c #5A5983",
"%.	c #63628D",
"&.	c #8E9096",
"*.	c #6D6C95",
"=.	c #A8A7BD",
"-.	c #AFA7BD",
";.	c #AEA7BD",
">.	c #A8A3B9",
",.	c #686692",
"'.	c #565380",
").	c #4C4976",
"!.	c #413E6E",
"~.	c #65608A",
"{.	c #A9A1BB",
"].	c #6B6A7A",
"^.	c #8586A7",
"/.	c #D6D3DE",
"(.	c #D5D3DE",
"_.	c #D4D3DE",
":.	c #D6D4DF",
"<.	c #D8D6E1",
"[.	c #858790",
"}.	c #8889AB",
"|.	c #9FA4A4",
"1.	c #727397",
"2.	c #4B4B64",
"3.	c #585883",
"4.	c #E1E2EB",
"5.	c #68687A",
"6.	c #4D4E7F",
"7.	c #C8C9D8",
"8.	c #716E82",
"9.	c #8C8CA8",
"0.	c #8181A1",
"a.	c #C5C5D4",
"b.	c #494C78",
"c.	c #ECE9F0",
"d.	c #6C6A7E",
"e.	c #F4F4F7",
"f.	c #8584A3",
"g.	c #F8F7F9",
"h.	c #D3D3E0",
"i.	c #413F6E",
"j.	c #C0BFCF",
"k.	c #A19DB8",
"l.	c #4F4B7B",
"m.	c #E3E3EB",
"n.	c #7D799E",
"o.	c #6E6E93",
"p.	c #E5E5EC",
"q.	c #FBFBFB",
"r.	c #717197",
"s.	c #5F5B88",
"t.	c #DFDDE6",
"u.	c #FEFEFE",
"v.	c #6C687E",
"w.	c #EBEBF0",
"x.	c #8585A3",
"y.	c #595983",
"z.	c #C1C0D2",
"A.	c #6A6C7E",
"B.	c #A9A5C0",
"C.	c #4D4C7A",
"D.	c #8685A4",
"E.	c #D3D4E0",
"F.	c #FDFDFD",
"G.	c #FBFBFC",
"H.	c #D6D6E2",
"I.	c #797F9D",
"J.	c #51517E",
"K.	c #8683A3",
"L.	c #CDCBDC",
"M.	c #6F6E80",
"N.	c #DEE1E9",
"O.	c #8985A7",
"P.	c #5F5C86",
"Q.	c #525583",
"R.	c #78749B",
"S.	c #A09CB7",
"T.	c #AFAFC2",
"U.	c #737583",
"V.	c #5D5F75",
"W.	c #DCDEE7",
"X.	c #D9DEE3",
"Y.	c #DAD6E1",
"Z.	c #D6DBE1",
"`.	c #C9C5D6",
" +	c #999DB5",
".+	c #767699",
"++	c #4E507E",
"@+	c #343568",
"#+	c #222445",
"                                                                ",
"                                                                ",
"              . + @ @ @ # $ % & * = - ; > , ' @ )               ",
"              ! ~ ~ ~ { ] ^ / ( _ : < [ } | 1 2 3               ",
"              4 ~ ~ 5 6 7 8 ~ ~ ~ 9 0 a ~ { b c d               ",
"              4 ~ e f g h ~ ~ ~ ~ i 0 a ~ ~ j k l               ",
"              m n o p q ~ ~ ~ ~ ~ 9 0 a ~ ~ ~ r s               ",
"              t u v w ~ ~ ~ ~ ~ ~ i x y ~ ~ ~ z s               ",
"              A B C ~ ~ ~ ~ ~ ~ ~ ~ D E F G H I s               ",
"              J K L ~ ~ ~ ~ ~ ~ ~ ~ M N O P Q R s               ",
"              s S T ~ ~ ~ ~ ~ ~ ~ ~ U V W X Y Z `               ",
"              s  .~ ~ ~ ~ ~ ~ ~ ~ ~ ..+.@.#.$.%.&.              ",
"              s *.=.-.-.;.;.-.-.;.>.,.'.).!.~.{.].              ",
"              s ^./.(.(._._.(.(._./.:.:././.<.:.[.              ",
"              s }.~ ~ ~ ~ ~ ~ ~ ~ ~ ~ ~ ~ ~ ~ ~ |.              ",
"              s 1.a ~ ~ ~ ~ ~ ~ ~ ~ ~ ~ ~ ~ ~ ~ |.              ",
"              2.3.4.~ ~ ~ ~ ~ ~ ~ ~ ~ ~ ~ ~ ~ ~ |.              ",
"              5.6.7.~ ~ ~ ~ ~ ~ ~ ~ ~ ~ ~ ~ ~ ~ |.              ",
"              8.9.0.~ ~ ~ ~ ~ ~ ~ ~ ~ ~ ~ ~ ~ ~ |.              ",
"              ! a.b.c.~ ~ ~ ~ ~ ~ ~ ~ ~ ~ ~ ~ ~ |.              ",
"              d.e.@.f.g.~ ~ ~ ~ ~ ~ ~ ~ ~ ~ ~ ~ |.              ",
"              d.~ h.i.j.~ ~ ~ ~ ~ ~ ~ ~ ~ ~ ~ ~ |.              ",
"              ! ~ ~ k.l.m.~ ~ ~ ~ ~ ~ ~ ~ ~ ~ ~ |.              ",
"              ! ~ ~ e n.o.p.~ ~ ~ ~ ~ ~ ~ ~ ~ ~ |.              ",
"              4 ~ ~ ~ q.r.s.t.u.~ ~ ~ ~ ~ ~ ~ ~ |.              ",
"              v.~ ~ ~ ~ w.x.y.z.~ ~ ~ ~ ~ ~ ~ ~ |.              ",
"              A.~ ~ ~ ~ ~ ~ B.C.D.E.F.~ ~ ~ ~ ~ |.              ",
"              m ~ ~ ~ ~ ~ ~ G.H.I.J.K.L.~ ~ ~ ~ |.              ",
"              M.~ ~ ~ ~ ~ ~ ~ ~ ~ N.O.P.Q.R.S.T.U.              ",
"              V.W.X.X.X.X.X.X.X.Y.Y.Z.`. +.+++@+#+              ",
"                                                                ",
"                                                                "};
