/* XPM */
static char * tuxracer_32x32_xpm[] = {
"32 32 256 2",
"  	c None",
". 	c #020202",
"+ 	c #C2A63C",
"@ 	c #867E22",
"# 	c #6E6226",
"$ 	c #5F5517",
"% 	c #3E3A1E",
"& 	c #9AAAC8",
"* 	c #122E42",
"= 	c #222226",
"- 	c #7286AE",
"; 	c #D2BE36",
"> 	c #DEE6F4",
", 	c #121A0E",
"' 	c #8A6E26",
") 	c #9A7E22",
"! 	c #F6D233",
"~ 	c #C7D1EA",
"{ 	c #FCEEAC",
"] 	c #061626",
"^ 	c #4E4E50",
"/ 	c #4A6272",
"( 	c #061212",
"_ 	c #A0A8A6",
": 	c #A28E26",
"< 	c #7E7232",
"[ 	c #9A9C94",
"} 	c #7E863E",
"| 	c #3252A6",
"1 	c #F2D666",
"2 	c #060E0E",
"3 	c #BABEC6",
"4 	c #2E4256",
"5 	c #C29222",
"6 	c #4A4A52",
"7 	c #8E7E5A",
"8 	c #636367",
"9 	c #E6BA26",
"0 	c #725E36",
"a 	c #060A02",
"b 	c #FEED56",
"c 	c #BAA23A",
"d 	c #2A2E34",
"e 	c #828A9A",
"f 	c #D6A62A",
"g 	c #AAAEC2",
"h 	c #463E4E",
"i 	c #282925",
"j 	c #F6D45C",
"k 	c #7E6E5A",
"l 	c #291E25",
"m 	c #727E72",
"n 	c #364E7E",
"o 	c #22365E",
"p 	c #BA922E",
"q 	c #B8A86A",
"r 	c #E2BE22",
"s 	c #696D65",
"t 	c #0B0205",
"u 	c #2E427E",
"v 	c #FEEEDA",
"w 	c #8692AE",
"x 	c #F2C222",
"y 	c #AA9A36",
"z 	c #020603",
"A 	c #0C1D29",
"B 	c #929692",
"C 	c #FCD632",
"D 	c #3E4E86",
"E 	c #1E0E14",
"F 	c #42465E",
"G 	c #4A669A",
"H 	c #CEDEEE",
"I 	c #FEDE76",
"J 	c #C6C9DF",
"K 	c #12222A",
"L 	c #A28E46",
"M 	c #9A9EA2",
"N 	c #DAC65E",
"O 	c #C69A4A",
"P 	c #9A6E26",
"Q 	c #EACE4A",
"R 	c #1A1206",
"S 	c #8296BE",
"T 	c #515E6E",
"U 	c #AE7E26",
"V 	c #030211",
"W 	c #5E7276",
"X 	c #FDDD48",
"Y 	c #AE9E6A",
"Z 	c #5B5860",
"` 	c #A69626",
" .	c #7E8A6E",
"..	c #6C706E",
"+.	c #596782",
"@.	c #3A3A36",
"#.	c #BEBABE",
"$.	c #322E2C",
"%.	c #766226",
"&.	c #EEC626",
"*.	c #405892",
"=.	c #8A8E92",
"-.	c #243A6A",
";.	c #0E2232",
">.	c #FEEE92",
",.	c #060202",
"'.	c #B4BACC",
").	c #F6DE2A",
"!.	c #160A02",
"~.	c #766656",
"{.	c #121612",
"].	c #050E1E",
"^.	c #525E52",
"/.	c #22425E",
"(.	c #0F1B39",
"_.	c #525266",
":.	c #AB8A2A",
"<.	c #A2861A",
"[.	c #9A8AA2",
"}.	c #B3BFD1",
"|.	c #7A7656",
"1.	c #36423E",
"2.	c #5E6686",
"3.	c #EAB62A",
"4.	c #D0A62A",
"5.	c #1C2848",
"6.	c #F2C63A",
"7.	c #FEEE6E",
"8.	c #445A84",
"9.	c #E6C646",
"0.	c #020207",
"a.	c #4A6E76",
"b.	c #9A7A36",
"c.	c #1A1E1E",
"d.	c #323E6A",
"e.	c #827F82",
"f.	c #262E52",
"g.	c #A2B2BA",
"h.	c #C6962E",
"i.	c #A87E30",
"j.	c #86662E",
"k.	c #05060E",
"l.	c #8A8656",
"m.	c #92823A",
"n.	c #0B0A0A",
"o.	c #2F3336",
"p.	c #C2BADE",
"q.	c #B6C5E1",
"r.	c #6E5622",
"s.	c #4B6388",
"t.	c #46484A",
"u.	c #4A547A",
"v.	c #12264E",
"w.	c #FEF6F2",
"x.	c #717779",
"y.	c #D0CEDE",
"z.	c #A68E32",
"A.	c #060602",
"B.	c #38363C",
"C.	c #121626",
"D.	c #E9EEFE",
"E.	c #B79A39",
"F.	c #8D8F6D",
"G.	c #D2A63E",
"H.	c #9EAED6",
"I.	c #8A7A2A",
"J.	c #FEFAD6",
"K.	c #5A72A6",
"L.	c #2A4A96",
"M.	c #0E1206",
"N.	c #0D0E15",
"O.	c #726A5E",
"P.	c #B29A36",
"Q.	c #BEC2D6",
"R.	c #FDC92C",
"S.	c #5C5E5A",
"T.	c #A5862E",
"U.	c #1B1A1A",
"V.	c #AF9133",
"W.	c #0E0612",
"X.	c #254171",
"Y.	c #101212",
"Z.	c #22120E",
"`.	c #162A42",
" +	c #FEE235",
".+	c #1B304D",
"++	c #D7DCF2",
"@+	c #F0BA32",
"#+	c #92949A",
"$+	c #DECA76",
"%+	c #7E8692",
"&+	c #927E2E",
"*+	c #B29632",
"=+	c #181216",
"-+	c #2A436F",
";+	c #C39C29",
">+	c #0C0604",
",+	c #566E7A",
"'+	c #6E6A4E",
")+	c #305AAA",
"!+	c #D8AE30",
"~+	c #2E4A86",
"{+	c #F6E66C",
"]+	c #8C9EBE",
"^+	c #826E26",
"/+	c #F6CA3A",
"(+	c #A1802D",
"_+	c #29292F",
":+	c #FCC030",
"<+	c #AA924E",
"[+	c #786E50",
"}+	c #B69E4A",
"|+	c #564A52",
"1+	c #F6C646",
"2+	c #1E1622",
"3+	c #050A0B",
"4+	c #131D2A",
"5+	c #A2A6C0",
"6+	c #1E2A22",
"7+	c #768EB6",
"8+	c #C6D6F2",
"9+	c #A29232",
"0+	c #AEB6BE",
"a+	c #464652",
"b+	c #F6DA62",
"c+	c #86765E",
"d+	c #667266",
"e+	c #9E9646",
"f+	c #C2A24E",
"g+	c #B2862E",
"h+	c #425E8E",
"i+	c #CAAE3E",
"j+	c #FACE32",
"k+	c #929AA2",
"l+	c #928626",
"m+	c #0E0E0C",
"n+	c #060207",
"o+	c #17161B",
"p+	c #666E82",
"q+	c #02060A",
"r+	c #060607",
"s+	c #B2B2C6",
"t+	c #10233D",
"u+	c #1E1E17",
"v+	c #9AA6B2",
"w+	c #A28A36",
"x+	c #E6BA36",
"y+	c #26366E",
"z+	c #BA923E",
"A+	c #A29A46",
"B+	c #A2A2B2",
"C+	c #2E467A",
"D+	c #12121A",
"E+	c #646E77",
"F+	c #FCDD30",
"G+	c #A0792F",
"                                                                ",
"                                                                ",
"                                                                ",
"                                                                ",
"                        s.F.F.m +.                              ",
"                    E+Y 6.F+F+X x+8.                            ",
"                    :+F+F+ +b X !+s.  C+`.] z ( t+-.            ",
"                    4.4.3.j N G.} ~+K r+. r+l E 0.0.A -+        ",
"  h+W p++.  a.x.*.  < G+# r.) U 2.(.n+. D+B.e.Z i z . N.C+      ",
"F.9.F+! j+1 {+:+O   T m.E Y.% e+5.. ,.r+U.S.[ s o.n.0.. A       ",
"p ;+V.G+(+T.G+l+O.    v.n.$.2 0.0.,.z ,.A.m+o+Y.m+. . 0.0.      ",
"s b.T.c c w+G+I./   | A ,.. . . . . . . . r+a >+. . . r+Y.X.    ",
"    +.s.*.Z ' g+k   A . . . . . . . . . . . . 0.r+. 0.6 e.t+    ",
"            ^+;+i+..n+z . . . . . . . . . W.i {.. . i 0+g..+    ",
"            *+{+7.I.0.. 0.. . . . . . . . a+k+=.i . $.s+o.4     ",
"          / p Q $+Z.. n+z . . . . . . . 6+_ 6 k+x.n.2+m c.d.    ",
"            [+I.l z . z . . . . . . . . o.y.l 7 <+; b X C c+L.  ",
"              T t . t 0.z . . . . . . . a x.L 6.R.j { { I x d+  ",
"      y+u   )+X.0.. k.N.m+n.. . . . . 0.0.R 3.@+x 1 v w.{ R.[+  ",
"      . _+A 5.(.m+U.0.n.n.n.. . . . . r+M.%.G+:.f 1+{ J.>.z.u.  ",
"      t !.0.. . u+@.z r+A.r+. . 0.. . 0.a $ j.# ^+<.f+q E.^.    ",
"      V ,.. . . . A.>+0.. 0.. . . z z . D+1.<+E.T.p E.V.U       ",
"      n ].. t ,.,.n+. . . . . . . . 0._+g.'.'.& 5+%+X.          ",
"        u (.. n+n+0.. . . . . . . . n+8 B+v+s+s+g w             ",
"            /.].. >+0.z . 0.r+m+n.Y.D+#+Q.J p.'.Q.-             ",
"                `.C.. >+=+c.o+o+{.D+a+J > ++J J ]+              ",
"                    .+A n.m+m+,.3+_+3 D.> ++~ 7+                ",
"                        4+N.o+_+Z B+D.> ~ q.K.                  ",
"                            +.]+q.}.H.S G                       ",
"                                                                ",
"                                                                ",
"                                                                "};
