/* XPM */
static char * word_16x16_xpm[] = {
"14 14 4 1",
" 	c None",
".	c #000D87",
"+	c #FFFFFF",
"@	c #C0C0C0",
"..............",
".+++++++++++..",
".+++++++++++..",
".+............",
".++..+...+.@..",
".++..@...@.+..",
".++.......@+..",
".++.......++..",
".++......@++..",
".++..@...+++..",
".++..+..@+++..",
".+++++++++++..",
"..............",
".............."};
