/* XPM */
static char * xscorch_32x32_xpm[] = {
"32 32 256 2",
"  	c None",
". 	c #020202",
"+ 	c #CA0A02",
"@ 	c #920202",
"# 	c #720202",
"$ 	c #E2530B",
"% 	c #620A06",
"& 	c #96825A",
"* 	c #3E0E0E",
"= 	c #FAA216",
"- 	c #9A6E36",
"; 	c #351515",
"> 	c #6E5E4E",
", 	c #2A0A0A",
"' 	c #8E4434",
") 	c #FEE222",
"! 	c #723E22",
"~ 	c #220606",
"{ 	c #622E1A",
"] 	c #D6760A",
"^ 	c #982E22",
"/ 	c #1B0606",
"( 	c #FAD126",
"_ 	c #CA2A06",
": 	c #BBB172",
"< 	c #3E3632",
"[ 	c #721E1A",
"} 	c #D2A23F",
"| 	c #C6862A",
"1 	c #564E46",
"2 	c #160202",
"3 	c #96221E",
"4 	c #CA8E22",
"5 	c #C63A12",
"6 	c #722222",
"7 	c #FEBE32",
"8 	c #120202",
"9 	c #411E1C",
"0 	c #BA0202",
"a 	c #EAAE26",
"b 	c #DA320E",
"c 	c #E27E16",
"d 	c #523E36",
"e 	c #AA6A4A",
"f 	c #745545",
"g 	c #D6D296",
"h 	c #2A1616",
"i 	c #0E0303",
"j 	c #84221E",
"k 	c #B68236",
"l 	c #341E1D",
"m 	c #96461E",
"n 	c #F7940D",
"o 	c #AE3A06",
"p 	c #C6AA46",
"q 	c #520E0E",
"r 	c #FEFA5E",
"s 	c #D24E1A",
"t 	c #921814",
"u 	c #7E6E56",
"v 	c #AA5A2A",
"w 	c #0A0202",
"x 	c #CAB24E",
"y 	c #722A26",
"z 	c #3E2B2A",
"A 	c #1A0A0A",
"B 	c #B26E2A",
"C 	c #D2A67A",
"D 	c #261C1B",
"E 	c #5A1212",
"F 	c #A68E5A",
"G 	c #FEE22A",
"H 	c #BE2A02",
"I 	c #BA0A02",
"J 	c #D6BA5E",
"K 	c #6A4E2A",
"L 	c #563330",
"M 	c #F47E0A",
"N 	c #AE1002",
"O 	c #EE3E06",
"P 	c #AE4620",
"Q 	c #1D1818",
"R 	c #EEDA5A",
"S 	c #FAB222",
"T 	c #8A2622",
"U 	c #521A1A",
"V 	c #FEDE42",
"W 	c #322624",
"X 	c #AA2E1E",
"Y 	c #6E2E2A",
"Z 	c #B21E06",
"` 	c #2A1A1A",
" .	c #661A16",
"..	c #E68A12",
"+.	c #FEEB46",
"@.	c #7A5A4A",
"#.	c #7E3A36",
"$.	c #760E0A",
"%.	c #C17623",
"&.	c #4E3F39",
"*.	c #AEA66A",
"=.	c #160606",
"-.	c #C71E06",
";.	c #DA6E06",
">.	c #8E0E0E",
",.	c #E21A02",
"'.	c #C6420E",
").	c #7B1C1A",
"!.	c #7A2E2A",
"~.	c #CEC276",
"{.	c #AE965A",
"].	c #2A1E1E",
"^.	c #AE5626",
"/.	c #D63E06",
"(.	c #7E6A56",
"_.	c #BE1A02",
":.	c #C1BB6D",
"<.	c #120707",
"[.	c #E44808",
"}.	c #220A0A",
"|.	c #907E60",
"1.	c #0E0B0B",
"2.	c #623632",
"3.	c #060202",
"4.	c #F2820E",
"5.	c #923C28",
"6.	c #C69A32",
"7.	c #DA2202",
"8.	c #4D1F1E",
"9.	c #664040",
"0.	c #EA862E",
"a.	c #A65032",
"b.	c #821E06",
"c.	c #543A37",
"d.	c #FADA2C",
"e.	c #F2B23E",
"f.	c #872D26",
"g.	c #DA360E",
"h.	c #C6C262",
"i.	c #1D1213",
"j.	c #120F10",
"k.	c #EC6C0E",
"l.	c #72463E",
"m.	c #411A1A",
"n.	c #C23206",
"o.	c #625446",
"p.	c #250E0E",
"q.	c #7F1612",
"r.	c #9E7246",
"s.	c #9F1105",
"t.	c #2D1111",
"u.	c #160C0C",
"v.	c #FA860A",
"w.	c #4E2E2A",
"x.	c #B89454",
"y.	c #AA2606",
"z.	c #880C08",
"A.	c #3F2525",
"B.	c #57453B",
"C.	c #562523",
"D.	c #CE4612",
"E.	c #371A1A",
"F.	c #E22606",
"G.	c #6A3B3A",
"H.	c #4C1212",
"I.	c #E25A22",
"J.	c #A21606",
"K.	c #BE4222",
"L.	c #DEBE7C",
"M.	c #DAAA5E",
"N.	c #76312D",
"O.	c #AE3A26",
"P.	c #B6664A",
"Q.	c #D29A1E",
"R.	c #827A62",
"S.	c #FABE1E",
"T.	c #FABE56",
"U.	c #C68E4A",
"V.	c #C2BE82",
"W.	c #9E0202",
"X.	c #893222",
"Y.	c #E73E07",
"Z.	c #4A3A34",
"`.	c #F6DE57",
" +	c #5C4A46",
".+	c #5E2222",
"++	c #F6CE3E",
"@+	c #DCC05C",
"#+	c #2D2423",
"$+	c #F6AB16",
"%+	c #871D18",
"&+	c #924E32",
"*+	c #E28820",
"=+	c #F2760A",
"-+	c #F2DA42",
";+	c #D29A3A",
">+	c #824622",
",+	c #6A423E",
"'+	c #F2921C",
")+	c #7A4A2E",
"!+	c #825A46",
"~+	c #3A2E2E",
"{+	c #B61A06",
"]+	c #F2EA5A",
"^+	c #443431",
"/+	c #060606",
"(+	c #231313",
"_+	c #452E2A",
":+	c #5E3632",
"<+	c #92826E",
"[+	c #0A0606",
"}+	c #EE5A06",
"|+	c #FEFA76",
"1+	c #823632",
"2+	c #441515",
"3+	c #F78D0F",
"4+	c #960A06",
"5+	c #B22A16",
"6+	c #6D3331",
"7+	c #161212",
"8+	c #FA9A12",
"9+	c #5E2B2A",
"0+	c #7B352E",
"a+	c #4A2626",
"b+	c #CA4D0A",
"c+	c #9C2A0E",
"d+	c #C6BA5A",
"e+	c #A83628",
"f+	c #76624C",
"g+	c #E02E04",
"h+	c #634B3E",
"i+	c #EC4806",
"j+	c #C0965A",
"k+	c #703C38",
"l+	c #382824",
"m+	c #65221F",
"n+	c #5B3E3D",
"o+	c #9F0903",
"p+	c #7C2220",
"q+	c #A87836",
"r+	c #CAB262",
"s+	c #9E1A1A",
"t+	c #E6320A",
"u+	c #A24A0E",
"v+	c #B66226",
"w+	c #E2B666",
"x+	c #FA3606",
"y+	c #8A6A4E",
"z+	c #BA321A",
"A+	c #C2663E",
"B+	c #362222",
"C+	c #1D0E0E",
"D+	c #B71B13",
"E+	c #462422",
"F+	c #5E443C",
"G+	c #4A3434",
". . . . . . . . . . . . . . . . . . . . . . . . . . . . . . . . ",
". . . . . . . . . . . . . . . . . . . . . . . . . . . . . . . . ",
". . . . . . . . . . . . . . . . . . . . . . . . . . . . . . . . ",
". . . . . . . . . . . . . . . . . . . . . . . . . . . . . . . . ",
". . . . . . . . . . . . . . . . . . . . . . . . . . . . . . . . ",
". . . . . . . . . . . . . . . . . . . . . . . . . 3.. . . . . . ",
". . . . . . . . . . . . 3.. . . . 3.. . w . w . w 8 . . . . . . ",
". 3.. . . 3.. . . . . . w w . . 3.2 . . 2 . / . [+p.. . . . . . ",
". w 3.. . i . . . . . w 8 w . . w p.3.8 2 3.p.3.(+l 3.. . . . 3.",
". w 2 . . ~ w . 3.3.w i 8 w . 3./ m.[+/ ; 3., <.t.E.3.. . . . 3.",
". }., . 3.; i . i <.<.1./ A w w / 9 u.t.2+i.H.i.p.L [+. . . 3.w ",
"<.; m.1./+m.C+. (+E.h h ; A i.=., 2+C+E.E i.C.l ` k+i.. . . i 8 ",
"[+; U C+1.9+l+. l Z.E+A.; , ~+l+a+.+Q C.[ A :+_+l N.A . . . C+(+",
"3.q 6+t.Q l.E+1.B.n+w.w.* E. +o.,+6+` 0+q.p.6+n+ +0+t.3.3.. A.` ",
"w .+).E.D [ * #+n+L  .8.9 E+L 9.k+f.^+t 3 B+!.h+f f.w.C+B+Q G+l ",
"j.).o+2.B+z.6+W 9+!.1+m+8.8.6+y !.' E+s+5+L 5.6+m+X.G.~+G+1 9+* ",
"p.>.I 6 z s.).#+y q.^ N.Y q.$.>.q.' 9+-.5 9.O.%+% c+y Z.d B.C.L ",
"t.D+,.T _+{+D+^+f.J.y.c+N.t o++ s.a.6+Y.$ y z+4+z.o %+c.9.F+k+9+",
"t.b x+D+q g+t+c.e+_ b+n.X.5+_.Y.{+v f.3+4.).'._.0 b+e+2.p+.+%+j ",
"9 =+4.b y k.n G.P g+3+$ v O.[.n /.%.X ) n o+] Y.O k.s y J.# N ^ ",
"a+d.( 3+5.S +.&+| v.T.= q+%.S +...} v+|+d.-.*+= S.7 *+m $ W.H %.",
"! : r ]+>+R @+l.r+J A+;+r.p M.a.} F x.C ~.Y.T.L.P.e U.> K.F.I.(.",
"[ Q.V.j+b.d+`.q+<+..[.;.b+R.4.N S |.@.6.h.M C $ _.@ D.> 6.3+e.Z.",
"{ d.R.@+m c k o.> d.n a 4 u ( }++.<+!+x : G x.$+i+7.'+(.f < f F+",
"K *.l+o.B -+w+d < :.`.w+{.A.:.++g &.y+& ^+: - d+`.0.x.f+F+/+h+f ",
"W i.3.7+l _+l+7+1.z ^+].u.j.#+L #+7+Z.#+1.` ].W _+l+Q D u.. i.` ",
"3.. . . . /+. . . . . . . . . . . . . . . . . . 3.. . . . . . . ",
". . . . . . . . . . . . . . . . . . . . . . . . . . . . . . . . ",
". . . . . . . . . . . . . . . . . . . . . . . . . . . . . . . . ",
". . . . . . . . . . . . . . . . . . . . . . . . . . . . . . . . ",
". . . . . . . . . . . . . . . . . . . . . . . . . . . . . . . . ",
". . . . . . . . . . . . . . . . . . . . . . . . . . . . . . . . "};
