/* XPM */
static char * xscreensaver_32x32_xpm[] = {
"32 32 279 2",
"  	c None",
". 	c #0A0100",
"+ 	c #850704",
"@ 	c #3F0302",
"# 	c #9F0604",
"$ 	c #950402",
"% 	c #FF0000",
"& 	c #591107",
"* 	c #000000",
"= 	c #87190A",
"- 	c #260806",
"; 	c #A90402",
"> 	c #F20502",
", 	c #592516",
"' 	c #C40705",
") 	c #77291D",
"! 	c #3C3C3C",
"~ 	c #646464",
"{ 	c #554941",
"] 	c #B90906",
"^ 	c #D11C0A",
"/ 	c #53463F",
"( 	c #493A30",
"_ 	c #E60402",
": 	c #863626",
"< 	c #595959",
"[ 	c #434343",
"} 	c #808080",
"| 	c #FFFFFF",
"1 	c #F2ECEC",
"2 	c #DB726B",
"3 	c #EA1007",
"4 	c #9B3B1E",
"5 	c #C5C2BF",
"6 	c #CC6F66",
"7 	c #F10201",
"8 	c #91331F",
"9 	c #D1D1D1",
"0 	c #8E8E8E",
"a 	c #FDFDFD",
"b 	c #E7E7E7",
"c 	c #C6C6C6",
"d 	c #C3C1BF",
"e 	c #B4AFA7",
"f 	c #CB8B83",
"g 	c #E51F1D",
"h 	c #E8170B",
"i 	c #824625",
"j 	c #AFABA6",
"k 	c #D73B38",
"l 	c #FC0101",
"m 	c #B52612",
"n 	c #948E86",
"o 	c #DBDBDB",
"p 	c #FBFBFB",
"q 	c #D6D6D6",
"r 	c #505050",
"s 	c #1B1B1B",
"t 	c #461B18",
"u 	c #1E0E09",
"v 	c #B80804",
"w 	c #FD0100",
"x 	c #E91B10",
"y 	c #5C2D18",
"z 	c #301916",
"A 	c #C40906",
"B 	c #FE0000",
"C 	c #E50B04",
"D 	c #442815",
"E 	c #404040",
"F 	c #C4C4C4",
"G 	c #C0C0C0",
"H 	c #262626",
"I 	c #0F0101",
"J 	c #5C0503",
"K 	c #2A0302",
"L 	c #CD0100",
"M 	c #E71708",
"N 	c #4F200C",
"O 	c #1E0202",
"P 	c #C40202",
"Q 	c #F70201",
"R 	c #5E160C",
"S 	c #050404",
"T 	c #1A1A1A",
"U 	c #ABABAB",
"V 	c #C2C2C2",
"W 	c #272727",
"X 	c #390201",
"Y 	c #8E0E06",
"Z 	c #511408",
"` 	c #DD0703",
" .	c #FB0401",
"..	c #8F110B",
"+.	c #2A1211",
"@.	c #C50C0B",
"#.	c #BE0F07",
"$.	c #371509",
"%.	c #282623",
"&.	c #353535",
"*.	c #333333",
"=.	c #2F2F2F",
"-.	c #0A0A0A",
";.	c #191919",
">.	c #A9A9A9",
",.	c #C3C3C3",
"'.	c #282828",
").	c #500000",
"!.	c #B0200C",
"~.	c #7E5035",
"{.	c #EA1F1A",
"].	c #E40302",
"^.	c #59251E",
"/.	c #A72E1F",
"(.	c #E70502",
"_.	c #8D250F",
":.	c #877B6D",
"<.	c #CECECE",
"[.	c #D7D7D7",
"}.	c #D0D0D0",
"|.	c #3B3B3B",
"1.	c #BDBDBD",
"2.	c #242424",
"3.	c #100101",
"4.	c #880402",
"5.	c #C5130A",
"6.	c #966A59",
"7.	c #DE3B35",
"8.	c #FC0402",
"9.	c #D60403",
"0.	c #551A14",
"a.	c #ED0201",
"b.	c #EB0803",
"c.	c #8D4B35",
"d.	c #D3CEC8",
"e.	c #515151",
"f.	c #200000",
"g.	c #BE0101",
"h.	c #ED0F05",
"i.	c #954422",
"j.	c #B96B5E",
"k.	c #F91210",
"l.	c #A50B09",
"m.	c #92100C",
"n.	c #FA0100",
"o.	c #B22618",
"p.	c #AA9790",
"q.	c #250000",
"r.	c #CF0000",
"s.	c #CA1F11",
"t.	c #8F735C",
"u.	c #CE3F2E",
"v.	c #7F220D",
"w.	c #DC0202",
"x.	c #D30806",
"y.	c #915E54",
"z.	c #F40A03",
"A.	c #8C4A38",
"B.	c #A65A4D",
"C.	c #F50704",
"D.	c #CB0C05",
"E.	c #DF0201",
"F.	c #EC0201",
"G.	c #983C3A",
"H.	c #EFEFEF",
"I.	c #1E0100",
"J.	c #B60201",
"K.	c #C00A04",
"L.	c #7A4538",
"M.	c #E61311",
"N.	c #F20101",
"O.	c #A02421",
"P.	c #CECDCC",
"Q.	c #BEBEBE",
"R.	c #252525",
"S.	c #060000",
"T.	c #620101",
"U.	c #FA0000",
"V.	c #F60000",
"W.	c #91150F",
"X.	c #B30A07",
"Y.	c #FC0000",
"Z.	c #C9110B",
"`.	c #BAB3AA",
" +	c #2A0605",
".+	c #D20906",
"++	c #FE0100",
"@+	c #DB0201",
"#+	c #C80302",
"$+	c #CB0806",
"%+	c #A7A5A1",
"&+	c #FEFEFE",
"*+	c #C1C1C1",
"=+	c #231C1C",
"-+	c #B34139",
";+	c #F60B09",
">+	c #FD0000",
",+	c #C80E08",
"'+	c #A29A8F",
")+	c #F6F6F6",
"!+	c #BFBFBF",
"~+	c #C0A7A4",
"{+	c #E64C42",
"]+	c #FC0201",
"^+	c #EE0402",
"/+	c #A1291C",
"(+	c #B9B4AB",
"_+	c #F9F9F9",
":+	c #181818",
"<+	c #A19C97",
"[+	c #B58375",
"}+	c #D80D07",
"|+	c #B80705",
"1+	c #72463C",
"2+	c #C5C4C2",
"3+	c #C9C9C9",
"4+	c #3B3B3A",
"5+	c #15130F",
"6+	c #211E19",
"7+	c #480806",
"8+	c #BB0202",
"9+	c #D00101",
"0+	c #420503",
"a+	c #181611",
"b+	c #1C1C1B",
"c+	c #040403",
"d+	c #050000",
"e+	c #3F0201",
"f+	c #FB0000",
"g+	c #410000",
"h+	c #070100",
"i+	c #E7E7E5",
"j+	c #827C75",
"k+	c #4D4C49",
"l+	c #593B38",
"m+	c #430807",
"n+	c #780402",
"o+	c #930403",
"p+	c #930C06",
"q+	c #62130C",
"r+	c #170303",
"s+	c #1B1B1A",
"t+	c #7B7267",
"u+	c #E1DFDD",
"v+	c #F0EFEE",
"w+	c #E8E7E7",
"x+	c #827D74",
"y+	c #100F0D",
"z+	c #0C0100",
"A+	c #110101",
"B+	c #110201",
"C+	c #080402",
"D+	c #030303",
"E+	c #393939",
"F+	c #D5D5D4",
"G+	c #EFEEEC",
"H+	c #FDFDFC",
"I+	c #D2D0CC",
"J+	c #858079",
"K+	c #181510",
"L+	c #010100",
"M+	c #040404",
"N+	c #575757",
"O+	c #B9B9B9",
"P+	c #F7F7F7",
"Q+	c #B3AFAB",
"R+	c #797876",
"S+	c #6D6D6C",
"T+	c #6D6D6D",
"U+	c #696969",
"V+	c #686868",
"W+	c #6C6C6C",
"X+	c #727272",
"Y+	c #959595",
"Z+	c #F3F3F3",
"`+	c #464646",
" @	c #717171",
".@	c #6E6E6E",
"+@	c #474747",
"                                                                ",
"                        .                                       ",
"                        + @                                     ",
"                        # $                                     ",
"                          % &       *                           ",
"                          % =     -                             ",
"                        ; > ,   ' )                             ",
"      ! ~ ~ ~ ~ ~ ~ ~ { ] ^ / ( _ : < ~ ~ ~ ~ ~ ~ ~ ~ ~ [       ",
"      } | | | | | | 1 2 3 4 5 6 7 8 9 | | | | | | | | | 0       ",
"      } a b c c d e f g h i j k l m n c c c c c c c o p 0       ",
"      } q r s s t u v w x y z A B C D s s s s s s s E F 0       ",
"      } G H * I J K L % M N O P % Q R S * * * * * * T U 0       ",
"      } V W * X Y Z ` %  ...+.@.% B #.$.%.&.*.=.-.* ;.>.0       ",
"      } ,.'.* ).!.~.{.% % ].^./.% % (._.:.<.[.}.|.* ;.>.0       ",
"      } 1.2.3.4.5.6.7.8.% % 9.0.a.% % b.c.d.| | e.* ;.>.0       ",
"      } ,.'.f.g.h.i.j.k.% % B l.m.% % n.o.p.| | e.* ;.>.0       ",
"      } G H q.r.% s.t.u.% % % % v.w.% % x.y.| | e.* ;.>.0       ",
"      } G H q.r.% z.A.B.C.% % % D.E.% % F.G.H.| e.* ;.>.0       ",
"      } ,.'.I.J.% % K.L.M.% % % % % % % N.O.P.| e.* ;.>.0       ",
"      } Q.R.S.T.U.% V.W.X.U.% % % % % % Y.Z.`.| e.* ;.>.0       ",
"      } ,.'.*  +.+++% @+#+U.% % % % % % % $+%+&+e.* ;.>.0       ",
"      } *+W * =+-+;+% % % % % % % % % % >+,+'+)+e.* ;.>.0       ",
"      } !+H * 2.~+{+]+% % % % % % % % % ^+/+(+_+e.* ;.>.0       ",
"      } ,.'.* :+<+[+}+Y.% % % % % % % % |+1+2+3+4+* ;.>.0       ",
"      } Q.R.* * 5+6+7+8+Y.% % % % % Y.9+0+a+2.b+c+* ;.>.0       ",
"      } V W * * * * d+e+P f+% % % Y.J.g+h+* * * * * ;.>.0       ",
"      } i+j+k+k+k+k+k+k+l+m+n+o+p+q+r+s+k+k+k+k+k+k+t+u+0       ",
"      } a v+w+w+w+w+w+w+x+y+z+A+B+C+D+E+F+w+w+w+w+w+G+H+0       ",
"      } | | | | | | I+J+K+L+* * * * * M+N+O+P+| | | | | 0       ",
"      } | | | | | | Q+R+S+T+U+V+T+W+U+U+X+Y+Z+| | | | | 0       ",
"      `+ @ @ @ @ @ @.@W+W+T+W+W+T+T+W+W+W+.@ @ @ @ @ @ @+@      ",
"                                                                "};
