/* XPM */
static char * xscreensaver_16x16_xpm[] = {
"16 16 100 2",
"  	c None",
". 	c #810503",
"+ 	c #FF0000",
"@ 	c #611508",
"# 	c #CC0C05",
"$ 	c #483026",
"% 	c #A91B13",
"& 	c #606060",
"* 	c #F8F8F8",
"= 	c #E2E2E2",
"- 	c #DDDCD9",
"; 	c #DF827E",
"> 	c #BC2A15",
", 	c #C68681",
"' 	c #CD170D",
") 	c #CAC9C7",
"! 	c #F5F5F5",
"~ 	c #6B6B6B",
"{ 	c #838383",
"] 	c #110E0E",
"^ 	c #3A0C0A",
"/ 	c #E00201",
"( 	c #9F200F",
"_ 	c #760A08",
": 	c #F60301",
"< 	c #301710",
"[ 	c #0E0E0E",
"} 	c #727272",
"| 	c #757575",
"1 	c #220000",
"2 	c #832414",
"3 	c #F10A07",
"4 	c #DB0604",
"5 	c #7C1C16",
"6 	c #9A1408",
"7 	c #6C6965",
"8 	c #828282",
"9 	c #111111",
"0 	c #616161",
"a 	c #737373",
"b 	c #5E0201",
"c 	c #B73422",
"d 	c #E32F29",
"e 	c #B40A08",
"f 	c #DF0403",
"g 	c #F90201",
"h 	c #AF7669",
"i 	c #FFFFFF",
"j 	c #282828",
"k 	c #7A0000",
"l 	c #EF0A05",
"m 	c #A45644",
"n 	c #FC0201",
"o 	c #C10C05",
"p 	c #BA2925",
"q 	c #FBFBFB",
"r 	c #747474",
"s 	c #4F0100",
"t 	c #FE0000",
"u 	c #B01913",
"v 	c #E40706",
"w 	c #D60E0B",
"x 	c #E2E0DD",
"y 	c #130808",
"z 	c #DE1612",
"A 	c #F60000",
"B 	c #F00100",
"C 	c #E40604",
"D 	c #CFCDC9",
"E 	c #0F0F0F",
"F 	c #BF847C",
"G 	c #F40402",
"H 	c #AE1E18",
"I 	c #D0CECC",
"J 	c #232323",
"K 	c #000000",
"L 	c #0E0C0A",
"M 	c #520302",
"N 	c #EE0000",
"O 	c #B10100",
"P 	c #180705",
"Q 	c #101010",
"R 	c #010101",
"S 	c #D6D4D1",
"T 	c #9A9A98",
"U 	c #4C3430",
"V 	c #4A0202",
"W 	c #440905",
"X 	c #1C1616",
"Y 	c #969593",
"Z 	c #D2CFCB",
"` 	c #A19E9A",
" .	c #3D3C3A",
"..	c #343434",
"+.	c #363636",
"@.	c #868686",
"#.	c #FAFAFA",
"$.	c #565656",
"%.	c #535353",
"&.	c #525252",
"                                ",
"            .                   ",
"            + @                 ",
"            # $ %               ",
"  & * = - ; > , ' ) = = = ! ~   ",
"  & { ] ^ / ( _ : < [ [ [ } ~   ",
"  & | 1 2 3 4 5 + 6 7 8 9 0 ~   ",
"  & a b c d + e f g h i j 0 ~   ",
"  & a k l m n + o + p q j 0 ~   ",
"  & r s t u v + + + w x j 0 ~   ",
"  & | y z A B + + + C D j 0 ~   ",
"  & r E F G + + + + H I J 0 ~   ",
"  & a K L M N + t O P Q R 0 ~   ",
"  & S T T T U V W X Y T T Z ~   ",
"  & i i i `  ...+.+.@.#.i i ~   ",
"    $.$.$.%.%.&.%.&.%.$.$.$.    "};
